if (_typeface_js && _typeface_js.loadFace) _typeface_js.loadFace({"glyphs":{"0":{"ha":785,"x_min":43,"x_max":713,"o":"m 494 735 q 657 669 601 735 q 713 489 713 604 q 678 305 713 396 q 582 141 643 214 q 441 24 521 68 q 271 -19 361 -19 q 104 44 165 -19 q 43 228 43 107 q 79 412 43 322 q 178 575 115 501 q 323 692 242 649 q 494 735 404 735 m 468 710 q 358 669 411 710 q 262 558 304 628 q 195 400 219 489 q 171 215 171 311 q 207 51 171 97 q 297 6 243 6 q 410 49 358 6 q 501 166 463 93 q 563 328 540 239 q 585 510 585 418 q 553 666 585 622 q 468 710 521 710 z "},"1":{"ha":475,"x_min":69,"x_max":436,"o":"m 436 731 l 221 0 l 100 0 l 278 601 q 190 559 239 579 q 69 517 142 539 l 74 546 q 222 603 161 572 q 326 667 282 635 q 408 731 371 700 l 436 731 z "},"2":{"ha":699,"x_min":-29,"x_max":610,"o":"m 422 733 q 558 698 507 733 q 610 596 610 663 q 573 483 610 539 q 478 374 536 426 q 356 274 421 321 q 235 188 292 228 q 143 121 178 149 q 235 111 182 121 q 343 92 289 101 q 438 82 397 82 q 509 99 485 82 q 533 149 533 115 q 472 228 533 200 l 490 246 q 547 203 526 229 q 567 136 567 176 q 549 67 567 100 q 494 13 532 33 q 393 -8 456 -8 q 310 1 350 -8 q 229 22 271 11 q 138 33 188 32 q 50 27 86 36 q -29 0 14 18 l -22 29 q 63 92 13 57 q 171 168 114 126 q 283 258 228 210 q 383 358 338 306 q 456 466 429 410 q 483 581 483 522 q 456 669 483 636 q 376 703 429 703 q 297 684 339 703 q 219 633 256 665 q 161 560 183 600 q 139 479 139 521 q 158 429 139 446 q 219 413 176 413 q 287 427 258 413 q 347 469 315 442 l 364 450 q 285 399 325 414 q 210 383 244 383 q 163 391 188 383 q 122 419 139 399 q 106 478 106 439 q 131 569 106 524 q 199 651 156 614 q 300 711 243 689 q 422 733 357 733 z "},"3":{"ha":674,"x_min":-111,"x_max":608,"o":"m 421 738 q 557 702 506 738 q 608 600 608 667 q 581 512 608 553 q 511 438 554 471 q 417 383 468 406 q 321 347 367 360 q 433 328 383 346 q 513 275 483 310 q 543 189 543 240 q 501 50 543 113 q 388 -60 458 -12 q 230 -141 317 -108 q 55 -191 143 -174 q -111 -210 -33 -208 l -104 -185 q 69 -153 -21 -179 q 238 -78 160 -126 q 365 38 317 -31 q 414 199 414 107 q 383 288 414 254 q 296 325 353 322 q 253 308 274 315 q 215 301 233 301 q 196 306 204 301 q 192 322 188 310 q 222 346 196 342 q 285 347 249 350 q 385 403 339 368 q 460 485 432 439 q 489 582 489 531 q 458 674 489 640 q 375 707 428 707 q 300 692 339 707 q 227 650 261 676 q 172 591 193 624 q 151 525 151 558 q 170 475 151 492 q 232 458 189 458 q 318 479 279 458 l 333 458 q 276 436 304 443 q 222 429 247 429 q 176 437 200 429 q 135 465 151 444 q 118 524 118 485 q 159 624 118 575 q 269 705 200 672 q 421 738 338 738 z "},"4":{"ha":715,"x_min":-71,"x_max":603,"o":"m 543 735 l 543 699 l -39 63 l 4 126 l 603 126 l 581 47 l -71 47 l -62 76 l 543 735 m 579 735 l 331 -196 l 210 -196 l 417 581 l 543 735 l 579 735 z "},"5":{"ha":638,"x_min":-112,"x_max":610,"o":"m 593 747 l 610 738 q 531 626 578 668 q 419 585 483 585 q 366 599 393 585 q 313 625 339 613 q 265 633 288 638 l 110 315 q 198 350 151 338 q 304 363 244 363 q 466 317 415 363 q 517 204 517 272 q 475 58 517 122 q 365 -56 433 -7 q 213 -137 296 -104 q 44 -186 129 -169 q -112 -206 -40 -203 l -106 -181 q 60 -156 -26 -181 q 219 -83 146 -131 q 339 37 293 -35 q 385 201 385 108 q 351 288 385 254 q 239 321 317 321 q 176 315 214 321 q 85 283 139 308 l 71 290 l 279 719 q 343 713 317 722 q 400 694 369 704 q 478 685 431 685 q 542 699 513 685 q 593 747 572 713 z "},"6":{"ha":732,"x_min":50,"x_max":736,"o":"m 728 1003 l 736 975 q 577 907 657 956 q 426 785 497 858 q 298 618 354 711 q 209 417 242 525 q 176 190 176 308 q 203 46 176 83 q 276 8 231 8 q 381 50 335 8 q 460 157 428 92 q 510 294 493 222 q 526 428 526 367 q 502 535 526 501 q 436 568 478 568 q 351 532 396 568 q 272 399 307 496 l 250 407 q 314 530 275 486 q 397 591 353 574 q 482 608 442 608 q 608 555 560 608 q 657 400 657 501 q 625 243 657 318 q 537 109 593 168 q 408 15 481 50 q 254 -19 336 -19 q 99 44 149 -19 q 50 229 50 107 q 96 467 50 356 q 217 670 142 578 q 382 832 292 763 q 563 945 472 901 q 728 1003 653 989 z "},"7":{"ha":676,"x_min":68,"x_max":751,"o":"m 264 722 q 372 706 324 722 q 467 674 419 690 q 568 653 514 657 q 650 663 614 651 q 715 714 686 675 l 751 714 q 653 592 707 654 q 542 463 599 531 q 431 321 485 396 q 334 160 378 246 q 264 -25 290 74 q 254 -67 258 -47 q 247 -103 250 -86 q 240 -135 244 -119 q 210 -184 232 -162 q 154 -206 188 -206 q 123 -196 133 -206 q 111 -168 113 -186 q 114 -128 110 -150 q 176 36 128 -51 q 292 213 224 124 q 435 386 361 301 q 574 544 508 471 q 682 671 640 617 q 693 676 682 671 q 704 681 704 681 q 649 640 678 657 q 588 612 619 622 q 525 597 557 601 q 463 592 493 592 q 369 602 408 592 q 297 622 331 613 q 221 632 263 632 q 135 609 169 632 q 101 539 101 586 q 149 442 101 481 q 294 379 196 403 l 286 358 q 128 424 189 378 q 68 554 68 469 q 88 633 68 594 q 152 697 108 671 q 264 722 196 722 z "},"8":{"ha":756,"x_min":14,"x_max":746,"o":"m 550 1003 q 650 987 606 1003 q 720 939 694 971 q 746 856 746 907 q 718 755 746 801 q 647 669 690 708 q 552 597 603 629 q 454 542 501 565 l 449 561 q 539 639 497 592 q 607 743 581 686 q 633 860 633 800 q 525 978 633 978 q 430 952 474 978 q 360 882 386 926 q 333 778 333 838 q 364 670 333 718 q 440 580 394 622 q 530 492 485 538 q 606 393 575 447 q 636 268 636 339 q 607 149 636 201 q 526 58 578 96 q 406 1 474 21 q 260 -19 338 -19 q 133 -1 189 -19 q 46 58 78 18 q 14 160 14 97 q 45 278 14 224 q 128 379 76 333 q 240 460 179 425 q 360 519 301 494 l 365 500 q 247 408 299 464 q 166 286 196 353 q 136 147 136 219 q 166 45 136 85 q 272 6 196 6 q 390 33 335 6 q 478 113 444 60 q 513 239 513 165 q 483 358 513 307 q 409 453 453 410 q 322 538 365 496 q 248 631 278 581 q 218 747 218 681 q 247 853 218 806 q 323 933 275 900 q 430 985 371 967 q 550 1003 489 1003 z "},"9":{"ha":713,"x_min":-25,"x_max":647,"o":"m 443 733 q 598 671 549 733 q 647 485 647 608 q 603 255 647 363 q 485 58 558 147 q 323 -97 411 -31 q 146 -206 235 -164 q -17 -261 57 -247 l -25 -233 q 129 -168 51 -215 q 277 -50 207 -121 q 402 111 347 21 q 489 306 457 201 q 521 524 521 410 q 494 668 521 631 q 421 706 467 706 q 316 664 363 706 q 237 557 269 622 q 188 419 204 492 q 171 286 171 347 q 195 179 171 213 q 261 146 219 146 q 346 182 301 146 q 425 315 390 218 l 447 307 q 383 185 422 229 q 301 123 344 140 q 215 106 257 106 q 89 159 138 106 q 40 314 40 213 q 72 471 40 396 q 160 605 104 546 q 290 699 217 664 q 443 733 363 733 z "},"A":{"ha":874,"x_min":-121,"x_max":768,"o":"m 111 225 q 49 110 60 153 q 65 48 39 67 q 149 28 92 29 l 142 0 q 61 3 103 3 q -17 4 19 4 q -75 3 -51 4 q -121 0 -99 3 l -114 28 q -74 45 -94 32 q -28 83 -53 58 q 25 149 -3 108 l 624 990 q 634 990 629 990 q 644 990 639 990 l 700 117 q 726 48 704 67 q 768 28 747 29 l 763 0 q 693 3 735 3 q 611 4 651 4 q 517 3 561 4 q 444 0 472 3 l 450 28 q 544 52 517 31 q 569 144 572 74 l 532 831 l 542 833 l 111 225 m 222 400 l 628 400 l 617 372 l 197 372 l 222 400 z "},"Á":{"ha":874,"x_min":-121,"x_max":989,"o":"m 111 225 q 49 110 60 153 q 65 48 39 67 q 149 28 92 29 l 142 0 q 61 3 103 3 q -17 4 19 4 q -75 3 -51 4 q -121 0 -99 3 l -114 28 q -74 45 -94 32 q -28 83 -53 58 q 25 149 -3 108 l 624 990 q 634 990 629 990 q 644 990 639 990 l 700 117 q 726 48 704 67 q 768 28 747 29 l 763 0 q 693 3 735 3 q 611 4 651 4 q 517 3 561 4 q 444 0 472 3 l 450 28 q 544 52 517 31 q 569 144 572 74 l 532 831 l 542 833 l 111 225 m 222 400 l 628 400 l 617 372 l 197 372 l 222 400 m 615 1088 q 737 1174 689 1138 q 820 1238 785 1211 q 888 1285 856 1265 q 920 1298 901 1293 q 956 1299 939 1303 q 979 1278 972 1296 q 972 1235 989 1256 q 933 1203 954 1214 q 860 1169 901 1185 q 761 1133 818 1154 q 625 1072 704 1111 l 615 1088 z "},"Ă":{"ha":874,"x_min":-121,"x_max":988,"o":"m 111 225 q 49 110 60 153 q 65 48 39 67 q 149 28 92 29 l 142 0 q 61 3 103 3 q -17 4 19 4 q -75 3 -51 4 q -121 0 -99 3 l -114 28 q -74 45 -94 32 q -28 83 -53 58 q 25 149 -3 108 l 624 990 q 634 990 629 990 q 644 990 639 990 l 700 117 q 726 48 704 67 q 768 28 747 29 l 763 0 q 693 3 735 3 q 611 4 651 4 q 517 3 561 4 q 444 0 472 3 l 450 28 q 544 52 517 31 q 569 144 572 74 l 532 831 l 542 833 l 111 225 m 222 400 l 628 400 l 617 372 l 197 372 l 222 400 m 667 1179 q 823 1200 739 1179 q 974 1260 907 1221 l 988 1244 q 892 1172 951 1208 q 767 1110 833 1135 q 643 1086 701 1086 q 540 1108 583 1086 q 469 1166 496 1129 q 433 1247 443 1203 l 456 1254 q 541 1195 492 1211 q 667 1179 590 1179 z "},"Ắ":{"ha":874,"x_min":-121,"x_max":1038,"o":"m 111 225 q 49 110 60 153 q 65 48 39 67 q 149 28 92 29 l 142 0 q 61 3 103 3 q -17 4 19 4 q -75 3 -51 4 q -121 0 -99 3 l -114 28 q -74 45 -94 32 q -28 83 -53 58 q 25 149 -3 108 l 624 990 q 634 990 629 990 q 644 990 639 990 l 700 117 q 726 48 704 67 q 768 28 747 29 l 763 0 q 693 3 735 3 q 611 4 651 4 q 517 3 561 4 q 444 0 472 3 l 450 28 q 544 52 517 31 q 569 144 572 74 l 532 831 l 542 833 l 111 225 m 222 400 l 628 400 l 617 372 l 197 372 l 222 400 m 667 1179 q 823 1200 739 1179 q 974 1260 907 1221 l 988 1244 q 892 1172 951 1208 q 767 1110 833 1135 q 643 1086 701 1086 q 540 1108 583 1086 q 469 1166 496 1129 q 433 1247 443 1203 l 456 1254 q 541 1195 492 1211 q 667 1179 590 1179 m 664 1283 q 785 1370 738 1333 q 869 1434 833 1407 q 936 1481 904 1461 q 969 1494 950 1489 q 1004 1495 988 1499 q 1028 1474 1021 1492 q 1020 1431 1038 1451 q 982 1399 1003 1410 q 908 1365 950 1381 q 810 1328 867 1350 q 674 1268 753 1307 l 664 1283 z "},"Ặ":{"ha":874,"x_min":-121,"x_max":988,"o":"m 111 225 q 49 110 60 153 q 65 48 39 67 q 149 28 92 29 l 142 0 q 61 3 103 3 q -17 4 19 4 q -75 3 -51 4 q -121 0 -99 3 l -114 28 q -74 45 -94 32 q -28 83 -53 58 q 25 149 -3 108 l 624 990 q 634 990 629 990 q 644 990 639 990 l 700 117 q 726 48 704 67 q 768 28 747 29 l 763 0 q 693 3 735 3 q 611 4 651 4 q 517 3 561 4 q 444 0 472 3 l 450 28 q 544 52 517 31 q 569 144 572 74 l 532 831 l 542 833 l 111 225 m 222 400 l 628 400 l 617 372 l 197 372 l 222 400 m 667 1179 q 823 1200 739 1179 q 974 1260 907 1221 l 988 1244 q 892 1172 951 1208 q 767 1110 833 1135 q 643 1086 701 1086 q 540 1108 583 1086 q 469 1166 496 1129 q 433 1247 443 1203 l 456 1254 q 541 1195 492 1211 q 667 1179 590 1179 m 264 -251 q 214 -233 233 -251 q 194 -186 194 -215 q 221 -123 194 -150 q 289 -96 247 -96 q 340 -115 322 -96 q 358 -161 358 -133 q 329 -227 358 -203 q 264 -251 300 -251 z "},"Ằ":{"ha":874,"x_min":-121,"x_max":988,"o":"m 111 225 q 49 110 60 153 q 65 48 39 67 q 149 28 92 29 l 142 0 q 61 3 103 3 q -17 4 19 4 q -75 3 -51 4 q -121 0 -99 3 l -114 28 q -74 45 -94 32 q -28 83 -53 58 q 25 149 -3 108 l 624 990 q 634 990 629 990 q 644 990 639 990 l 700 117 q 726 48 704 67 q 768 28 747 29 l 763 0 q 693 3 735 3 q 611 4 651 4 q 517 3 561 4 q 444 0 472 3 l 450 28 q 544 52 517 31 q 569 144 572 74 l 532 831 l 542 833 l 111 225 m 222 400 l 628 400 l 617 372 l 197 372 l 222 400 m 667 1179 q 823 1200 739 1179 q 974 1260 907 1221 l 988 1244 q 892 1172 951 1208 q 767 1110 833 1135 q 643 1086 701 1086 q 540 1108 583 1086 q 469 1166 496 1129 q 433 1247 443 1203 l 456 1254 q 541 1195 492 1211 q 667 1179 590 1179 m 725 1264 q 628 1339 669 1310 q 558 1389 588 1368 q 506 1431 528 1410 q 482 1469 492 1446 q 489 1513 472 1492 q 535 1525 507 1533 q 581 1497 563 1517 q 621 1446 601 1476 q 668 1374 640 1415 q 739 1278 696 1333 l 725 1264 z "},"Ẳ":{"ha":874,"x_min":-121,"x_max":988,"o":"m 111 225 q 49 110 60 153 q 65 48 39 67 q 149 28 92 29 l 142 0 q 61 3 103 3 q -17 4 19 4 q -75 3 -51 4 q -121 0 -99 3 l -114 28 q -74 45 -94 32 q -28 83 -53 58 q 25 149 -3 108 l 624 990 q 634 990 629 990 q 644 990 639 990 l 700 117 q 726 48 704 67 q 768 28 747 29 l 763 0 q 693 3 735 3 q 611 4 651 4 q 517 3 561 4 q 444 0 472 3 l 450 28 q 544 52 517 31 q 569 144 572 74 l 532 831 l 542 833 l 111 225 m 222 400 l 628 400 l 617 372 l 197 372 l 222 400 m 667 1179 q 823 1200 739 1179 q 974 1260 907 1221 l 988 1244 q 892 1172 951 1208 q 767 1110 833 1135 q 643 1086 701 1086 q 540 1108 583 1086 q 469 1166 496 1129 q 433 1247 443 1203 l 456 1254 q 541 1195 492 1211 q 667 1179 590 1179 m 693 1288 q 716 1357 697 1331 q 756 1403 735 1383 q 794 1446 778 1424 q 810 1504 810 1468 q 790 1559 810 1542 q 733 1576 769 1576 q 701 1572 718 1576 q 672 1554 685 1568 q 697 1533 688 1547 q 706 1500 706 1519 q 687 1455 706 1474 q 638 1436 668 1436 q 595 1451 611 1436 q 579 1492 579 1467 q 601 1542 579 1521 q 653 1578 622 1564 q 694 1592 668 1585 q 760 1599 721 1599 q 862 1578 818 1599 q 906 1508 906 1558 q 888 1456 906 1476 q 844 1421 871 1436 q 792 1389 818 1406 q 745 1349 765 1372 q 721 1288 725 1325 l 693 1288 z "},"Ẵ":{"ha":874,"x_min":-121,"x_max":994,"o":"m 111 225 q 49 110 60 153 q 65 48 39 67 q 149 28 92 29 l 142 0 q 61 3 103 3 q -17 4 19 4 q -75 3 -51 4 q -121 0 -99 3 l -114 28 q -74 45 -94 32 q -28 83 -53 58 q 25 149 -3 108 l 624 990 q 634 990 629 990 q 644 990 639 990 l 700 117 q 726 48 704 67 q 768 28 747 29 l 763 0 q 693 3 735 3 q 611 4 651 4 q 517 3 561 4 q 444 0 472 3 l 450 28 q 544 52 517 31 q 569 144 572 74 l 532 831 l 542 833 l 111 225 m 222 400 l 628 400 l 617 372 l 197 372 l 222 400 m 667 1179 q 823 1200 739 1179 q 974 1260 907 1221 l 988 1244 q 892 1172 951 1208 q 767 1110 833 1135 q 643 1086 701 1086 q 540 1108 583 1086 q 469 1166 496 1129 q 433 1247 443 1203 l 456 1254 q 541 1195 492 1211 q 667 1179 590 1179 m 632 1439 q 710 1424 679 1439 q 763 1388 740 1408 q 811 1353 786 1368 q 872 1338 836 1338 q 922 1356 897 1338 q 969 1418 946 1375 l 994 1411 q 913 1301 963 1335 q 814 1268 863 1268 q 736 1283 767 1268 q 683 1319 706 1299 q 635 1354 660 1339 q 574 1369 610 1369 q 524 1351 549 1369 q 476 1289 500 1333 l 451 1296 q 533 1406 483 1374 q 632 1439 583 1439 z "},"Ǎ":{"ha":874,"x_min":-121,"x_max":974,"o":"m 111 225 q 49 110 60 153 q 65 48 39 67 q 149 28 92 29 l 142 0 q 61 3 103 3 q -17 4 19 4 q -75 3 -51 4 q -121 0 -99 3 l -114 28 q -74 45 -94 32 q -28 83 -53 58 q 25 149 -3 108 l 624 990 q 634 990 629 990 q 644 990 639 990 l 700 117 q 726 48 704 67 q 768 28 747 29 l 763 0 q 693 3 735 3 q 611 4 651 4 q 517 3 561 4 q 444 0 472 3 l 450 28 q 544 52 517 31 q 569 144 572 74 l 532 831 l 542 833 l 111 225 m 222 400 l 628 400 l 617 372 l 197 372 l 222 400 m 681 1189 q 813 1240 735 1213 q 967 1283 892 1267 l 974 1264 q 786 1185 872 1233 q 647 1083 700 1136 l 622 1083 q 544 1190 588 1144 q 429 1264 500 1236 l 435 1283 q 540 1257 499 1272 q 615 1224 582 1242 q 681 1189 647 1207 z "},"Â":{"ha":874,"x_min":-121,"x_max":903,"o":"m 111 225 q 49 110 60 153 q 65 48 39 67 q 149 28 92 29 l 142 0 q 61 3 103 3 q -17 4 19 4 q -75 3 -51 4 q -121 0 -99 3 l -114 28 q -74 45 -94 32 q -28 83 -53 58 q 25 149 -3 108 l 624 990 q 634 990 629 990 q 644 990 639 990 l 700 117 q 726 48 704 67 q 768 28 747 29 l 763 0 q 693 3 735 3 q 611 4 651 4 q 517 3 561 4 q 444 0 472 3 l 450 28 q 544 52 517 31 q 569 144 572 74 l 532 831 l 542 833 l 111 225 m 222 400 l 628 400 l 617 372 l 197 372 l 222 400 m 651 1167 q 519 1117 597 1144 q 365 1072 440 1089 l 358 1092 q 546 1172 460 1124 q 685 1272 632 1219 l 710 1272 q 789 1166 746 1213 q 903 1092 832 1119 l 897 1072 q 792 1099 835 1085 q 717 1131 750 1114 q 651 1167 685 1149 z "},"Ấ":{"ha":874,"x_min":-121,"x_max":1056,"o":"m 111 225 q 49 110 60 153 q 65 48 39 67 q 149 28 92 29 l 142 0 q 61 3 103 3 q -17 4 19 4 q -75 3 -51 4 q -121 0 -99 3 l -114 28 q -74 45 -94 32 q -28 83 -53 58 q 25 149 -3 108 l 624 990 q 634 990 629 990 q 644 990 639 990 l 700 117 q 726 48 704 67 q 768 28 747 29 l 763 0 q 693 3 735 3 q 611 4 651 4 q 517 3 561 4 q 444 0 472 3 l 450 28 q 544 52 517 31 q 569 144 572 74 l 532 831 l 542 833 l 111 225 m 222 400 l 628 400 l 617 372 l 197 372 l 222 400 m 651 1167 q 519 1117 597 1144 q 365 1072 440 1089 l 358 1092 q 546 1172 460 1124 q 685 1272 632 1219 l 710 1272 q 789 1166 746 1213 q 903 1092 832 1119 l 897 1072 q 792 1099 835 1085 q 717 1131 750 1114 q 651 1167 685 1149 m 682 1351 q 803 1438 756 1401 q 887 1502 851 1475 q 954 1549 922 1529 q 987 1562 968 1557 q 1022 1563 1006 1567 q 1046 1542 1039 1560 q 1038 1499 1056 1519 q 1000 1467 1021 1478 q 926 1433 968 1449 q 828 1397 885 1418 q 692 1336 771 1375 l 682 1351 z "},"Ậ":{"ha":874,"x_min":-121,"x_max":903,"o":"m 111 225 q 49 110 60 153 q 65 48 39 67 q 149 28 92 29 l 142 0 q 61 3 103 3 q -17 4 19 4 q -75 3 -51 4 q -121 0 -99 3 l -114 28 q -74 45 -94 32 q -28 83 -53 58 q 25 149 -3 108 l 624 990 q 634 990 629 990 q 644 990 639 990 l 700 117 q 726 48 704 67 q 768 28 747 29 l 763 0 q 693 3 735 3 q 611 4 651 4 q 517 3 561 4 q 444 0 472 3 l 450 28 q 544 52 517 31 q 569 144 572 74 l 532 831 l 542 833 l 111 225 m 222 400 l 628 400 l 617 372 l 197 372 l 222 400 m 651 1167 q 519 1117 597 1144 q 365 1072 440 1089 l 358 1092 q 546 1172 460 1124 q 685 1272 632 1219 l 710 1272 q 789 1166 746 1213 q 903 1092 832 1119 l 897 1072 q 792 1099 835 1085 q 717 1131 750 1114 q 651 1167 685 1149 m 264 -251 q 214 -233 233 -251 q 194 -186 194 -215 q 221 -123 194 -150 q 289 -96 247 -96 q 340 -115 322 -96 q 358 -161 358 -133 q 329 -227 358 -203 q 264 -251 300 -251 z "},"Ầ":{"ha":874,"x_min":-121,"x_max":903,"o":"m 111 225 q 49 110 60 153 q 65 48 39 67 q 149 28 92 29 l 142 0 q 61 3 103 3 q -17 4 19 4 q -75 3 -51 4 q -121 0 -99 3 l -114 28 q -74 45 -94 32 q -28 83 -53 58 q 25 149 -3 108 l 624 990 q 634 990 629 990 q 644 990 639 990 l 700 117 q 726 48 704 67 q 768 28 747 29 l 763 0 q 693 3 735 3 q 611 4 651 4 q 517 3 561 4 q 444 0 472 3 l 450 28 q 544 52 517 31 q 569 144 572 74 l 532 831 l 542 833 l 111 225 m 222 400 l 628 400 l 617 372 l 197 372 l 222 400 m 651 1167 q 519 1117 597 1144 q 365 1072 440 1089 l 358 1092 q 546 1172 460 1124 q 685 1272 632 1219 l 710 1272 q 789 1166 746 1213 q 903 1092 832 1119 l 897 1072 q 792 1099 835 1085 q 717 1131 750 1114 q 651 1167 685 1149 m 743 1332 q 647 1407 688 1378 q 576 1457 606 1436 q 524 1499 546 1478 q 500 1537 510 1514 q 507 1581 490 1560 q 553 1593 525 1601 q 599 1565 581 1585 q 639 1514 619 1544 q 686 1442 658 1483 q 757 1346 714 1401 l 743 1332 z "},"Ẩ":{"ha":874,"x_min":-121,"x_max":1089,"o":"m 111 225 q 49 110 60 153 q 65 48 39 67 q 149 28 92 29 l 142 0 q 61 3 103 3 q -17 4 19 4 q -75 3 -51 4 q -121 0 -99 3 l -114 28 q -74 45 -94 32 q -28 83 -53 58 q 25 149 -3 108 l 624 990 q 634 990 629 990 q 644 990 639 990 l 700 117 q 726 48 704 67 q 768 28 747 29 l 763 0 q 693 3 735 3 q 611 4 651 4 q 517 3 561 4 q 444 0 472 3 l 450 28 q 544 52 517 31 q 569 144 572 74 l 532 831 l 542 833 l 111 225 m 222 400 l 628 400 l 617 372 l 197 372 l 222 400 m 651 1167 q 519 1117 597 1144 q 365 1072 440 1089 l 358 1092 q 546 1172 460 1124 q 685 1272 632 1219 l 710 1272 q 789 1166 746 1213 q 903 1092 832 1119 l 897 1072 q 792 1099 835 1085 q 717 1131 750 1114 q 651 1167 685 1149 m 876 1244 q 899 1314 881 1288 q 940 1360 918 1340 q 977 1403 961 1381 q 993 1461 993 1425 q 973 1516 993 1499 q 917 1533 953 1533 q 885 1529 901 1533 q 856 1511 868 1525 q 880 1490 871 1504 q 889 1457 889 1476 q 870 1412 889 1431 q 821 1393 851 1393 q 778 1408 794 1393 q 763 1449 763 1424 q 784 1499 763 1478 q 836 1535 806 1521 q 878 1549 851 1542 q 943 1556 904 1556 q 1045 1535 1001 1556 q 1089 1465 1089 1515 q 1072 1413 1089 1433 q 1028 1378 1054 1393 q 975 1346 1001 1363 q 928 1306 949 1329 q 904 1244 908 1282 l 876 1244 z "},"Ẫ":{"ha":874,"x_min":-121,"x_max":1013,"o":"m 111 225 q 49 110 60 153 q 65 48 39 67 q 149 28 92 29 l 142 0 q 61 3 103 3 q -17 4 19 4 q -75 3 -51 4 q -121 0 -99 3 l -114 28 q -74 45 -94 32 q -28 83 -53 58 q 25 149 -3 108 l 624 990 q 634 990 629 990 q 644 990 639 990 l 700 117 q 726 48 704 67 q 768 28 747 29 l 763 0 q 693 3 735 3 q 611 4 651 4 q 517 3 561 4 q 444 0 472 3 l 450 28 q 544 52 517 31 q 569 144 572 74 l 532 831 l 542 833 l 111 225 m 222 400 l 628 400 l 617 372 l 197 372 l 222 400 m 651 1167 q 519 1117 597 1144 q 365 1072 440 1089 l 358 1092 q 546 1172 460 1124 q 685 1272 632 1219 l 710 1272 q 789 1166 746 1213 q 903 1092 832 1119 l 897 1072 q 792 1099 835 1085 q 717 1131 750 1114 q 651 1167 685 1149 m 650 1507 q 728 1492 697 1507 q 781 1456 758 1476 q 829 1421 804 1436 q 890 1406 854 1406 q 940 1424 915 1406 q 988 1486 964 1443 l 1013 1479 q 931 1369 981 1403 q 832 1336 881 1336 q 754 1351 785 1336 q 701 1387 724 1367 q 653 1422 678 1407 q 592 1438 628 1438 q 542 1419 567 1438 q 494 1357 518 1401 l 469 1364 q 551 1474 501 1442 q 650 1507 601 1507 z "},"Ä":{"ha":874,"x_min":-121,"x_max":899,"o":"m 111 225 q 49 110 60 153 q 65 48 39 67 q 149 28 92 29 l 142 0 q 61 3 103 3 q -17 4 19 4 q -75 3 -51 4 q -121 0 -99 3 l -114 28 q -74 45 -94 32 q -28 83 -53 58 q 25 149 -3 108 l 624 990 q 634 990 629 990 q 644 990 639 990 l 700 117 q 726 48 704 67 q 768 28 747 29 l 763 0 q 693 3 735 3 q 611 4 651 4 q 517 3 561 4 q 444 0 472 3 l 450 28 q 544 52 517 31 q 569 144 572 74 l 532 831 l 542 833 l 111 225 m 222 400 l 628 400 l 617 372 l 197 372 l 222 400 m 442 1143 q 469 1204 442 1175 q 535 1233 497 1233 q 584 1213 564 1233 q 604 1164 604 1193 q 592 1120 604 1142 q 558 1085 579 1099 q 511 1072 536 1072 q 461 1092 481 1072 q 442 1143 442 1113 m 736 1143 q 764 1204 736 1175 q 829 1233 792 1233 q 878 1213 858 1233 q 899 1164 899 1193 q 886 1120 899 1142 q 852 1085 874 1099 q 806 1072 831 1072 q 756 1092 775 1072 q 736 1143 736 1113 z "},"Ạ":{"ha":874,"x_min":-121,"x_max":768,"o":"m 111 225 q 49 110 60 153 q 65 48 39 67 q 149 28 92 29 l 142 0 q 61 3 103 3 q -17 4 19 4 q -75 3 -51 4 q -121 0 -99 3 l -114 28 q -74 45 -94 32 q -28 83 -53 58 q 25 149 -3 108 l 624 990 q 634 990 629 990 q 644 990 639 990 l 700 117 q 726 48 704 67 q 768 28 747 29 l 763 0 q 693 3 735 3 q 611 4 651 4 q 517 3 561 4 q 444 0 472 3 l 450 28 q 544 52 517 31 q 569 144 572 74 l 532 831 l 542 833 l 111 225 m 222 400 l 628 400 l 617 372 l 197 372 l 222 400 m 264 -251 q 214 -233 233 -251 q 194 -186 194 -215 q 221 -123 194 -150 q 289 -96 247 -96 q 340 -115 322 -96 q 358 -161 358 -133 q 329 -227 358 -203 q 264 -251 300 -251 z "},"À":{"ha":874,"x_min":-121,"x_max":768,"o":"m 111 225 q 49 110 60 153 q 65 48 39 67 q 149 28 92 29 l 142 0 q 61 3 103 3 q -17 4 19 4 q -75 3 -51 4 q -121 0 -99 3 l -114 28 q -74 45 -94 32 q -28 83 -53 58 q 25 149 -3 108 l 624 990 q 634 990 629 990 q 644 990 639 990 l 700 117 q 726 48 704 67 q 768 28 747 29 l 763 0 q 693 3 735 3 q 611 4 651 4 q 517 3 561 4 q 444 0 472 3 l 450 28 q 544 52 517 31 q 569 144 572 74 l 532 831 l 542 833 l 111 225 m 222 400 l 628 400 l 617 372 l 197 372 l 222 400 m 676 1068 q 580 1143 621 1114 q 509 1193 539 1172 q 457 1235 479 1214 q 433 1273 443 1250 q 440 1317 424 1296 q 486 1329 458 1338 q 532 1301 514 1321 q 572 1250 553 1281 q 619 1178 592 1219 q 690 1082 647 1138 l 676 1068 z "},"Ả":{"ha":874,"x_min":-121,"x_max":839,"o":"m 111 225 q 49 110 60 153 q 65 48 39 67 q 149 28 92 29 l 142 0 q 61 3 103 3 q -17 4 19 4 q -75 3 -51 4 q -121 0 -99 3 l -114 28 q -74 45 -94 32 q -28 83 -53 58 q 25 149 -3 108 l 624 990 q 634 990 629 990 q 644 990 639 990 l 700 117 q 726 48 704 67 q 768 28 747 29 l 763 0 q 693 3 735 3 q 611 4 651 4 q 517 3 561 4 q 444 0 472 3 l 450 28 q 544 52 517 31 q 569 144 572 74 l 532 831 l 542 833 l 111 225 m 222 400 l 628 400 l 617 372 l 197 372 l 222 400 m 626 1042 q 649 1111 631 1085 q 690 1158 668 1138 q 727 1200 711 1178 q 743 1258 743 1222 q 723 1313 743 1296 q 667 1331 703 1331 q 635 1326 651 1331 q 606 1308 618 1322 q 630 1288 621 1301 q 639 1254 639 1274 q 620 1209 639 1228 q 571 1190 601 1190 q 528 1206 544 1190 q 513 1246 513 1221 q 534 1297 513 1275 q 586 1332 556 1318 q 628 1346 601 1339 q 693 1353 654 1353 q 795 1333 751 1353 q 839 1263 839 1313 q 822 1210 839 1231 q 778 1175 804 1190 q 725 1143 751 1160 q 678 1103 699 1126 q 654 1042 658 1079 l 626 1042 z "},"Ā":{"ha":874,"x_min":-121,"x_max":886,"o":"m 111 225 q 49 110 60 153 q 65 48 39 67 q 149 28 92 29 l 142 0 q 61 3 103 3 q -17 4 19 4 q -75 3 -51 4 q -121 0 -99 3 l -114 28 q -74 45 -94 32 q -28 83 -53 58 q 25 149 -3 108 l 624 990 q 634 990 629 990 q 644 990 639 990 l 700 117 q 726 48 704 67 q 768 28 747 29 l 763 0 q 693 3 735 3 q 611 4 651 4 q 517 3 561 4 q 444 0 472 3 l 450 28 q 544 52 517 31 q 569 144 572 74 l 532 831 l 542 833 l 111 225 m 222 400 l 628 400 l 617 372 l 197 372 l 222 400 m 886 1172 l 878 1138 l 389 1138 l 397 1172 l 886 1172 z "},"Ą":{"ha":874,"x_min":-121,"x_max":774,"o":"m 111 225 q 49 110 60 153 q 65 48 39 67 q 149 28 92 29 l 142 0 q 61 3 103 3 q -17 4 19 4 q -75 3 -51 4 q -121 0 -99 3 l -114 28 q -74 45 -94 32 q -28 83 -53 58 q 25 149 -3 108 l 624 990 q 634 990 629 990 q 644 990 639 990 l 700 117 q 726 48 704 67 q 768 28 747 29 l 763 0 q 693 3 735 3 q 611 4 651 4 q 517 3 561 4 q 444 0 472 3 l 450 28 q 544 52 517 31 q 569 144 572 74 l 532 831 l 542 833 l 111 225 m 222 400 l 628 400 l 617 372 l 197 372 l 222 400 m 761 4 q 688 -25 726 -6 q 624 -74 650 -44 q 597 -143 597 -104 q 651 -194 597 -194 q 710 -183 679 -194 q 758 -158 740 -172 l 774 -182 q 685 -242 731 -224 q 594 -261 639 -261 q 517 -239 543 -261 q 492 -181 492 -217 q 528 -97 492 -133 q 615 -35 564 -61 q 708 4 665 -10 l 761 4 z "},"Å":{"ha":874,"x_min":-121,"x_max":796,"o":"m 111 225 q 49 110 60 153 q 65 48 39 67 q 149 28 92 29 l 142 0 q 61 3 103 3 q -17 4 19 4 q -75 3 -51 4 q -121 0 -99 3 l -114 28 q -74 45 -94 32 q -28 83 -53 58 q 25 149 -3 108 l 624 990 q 634 990 629 990 q 644 990 639 990 l 700 117 q 726 48 704 67 q 768 28 747 29 l 763 0 q 693 3 735 3 q 611 4 651 4 q 517 3 561 4 q 444 0 472 3 l 450 28 q 544 52 517 31 q 569 144 572 74 l 532 831 l 542 833 l 111 225 m 222 400 l 628 400 l 617 372 l 197 372 l 222 400 m 676 1285 q 761 1255 726 1285 q 796 1174 796 1225 q 774 1102 796 1135 q 717 1050 753 1069 q 640 1031 682 1031 q 558 1060 592 1031 q 525 1142 525 1090 q 546 1215 525 1182 q 601 1266 567 1247 q 676 1285 635 1285 m 646 1060 q 701 1075 675 1060 q 744 1116 728 1090 q 760 1175 760 1142 q 731 1235 760 1215 q 671 1256 703 1256 q 594 1222 628 1256 q 561 1143 561 1188 q 588 1081 561 1101 q 646 1060 615 1060 z "},"Ã":{"ha":874,"x_min":-121,"x_max":946,"o":"m 111 225 q 49 110 60 153 q 65 48 39 67 q 149 28 92 29 l 142 0 q 61 3 103 3 q -17 4 19 4 q -75 3 -51 4 q -121 0 -99 3 l -114 28 q -74 45 -94 32 q -28 83 -53 58 q 25 149 -3 108 l 624 990 q 634 990 629 990 q 644 990 639 990 l 700 117 q 726 48 704 67 q 768 28 747 29 l 763 0 q 693 3 735 3 q 611 4 651 4 q 517 3 561 4 q 444 0 472 3 l 450 28 q 544 52 517 31 q 569 144 572 74 l 532 831 l 542 833 l 111 225 m 222 400 l 628 400 l 617 372 l 197 372 l 222 400 m 583 1243 q 661 1228 631 1243 q 715 1192 692 1213 q 763 1157 738 1172 q 824 1142 788 1142 q 873 1160 849 1142 q 921 1222 897 1179 l 946 1215 q 864 1106 914 1139 q 765 1072 814 1072 q 688 1088 718 1072 q 634 1123 657 1103 q 586 1158 611 1143 q 525 1174 561 1174 q 476 1156 500 1174 q 428 1093 451 1138 l 403 1100 q 485 1210 435 1178 q 583 1243 535 1243 z "},"Æ":{"ha":1246,"x_min":-111,"x_max":1297,"o":"m 890 1074 l 56 131 q 19 78 29 100 q 28 44 10 57 q 101 28 46 32 l 101 0 q 50 3 83 3 q -18 4 17 4 q -69 3 -43 4 q -111 0 -94 3 l -111 28 q 8 117 -68 31 l 854 1074 l 890 1074 m 350 481 l 376 508 l 976 508 l 971 481 l 350 481 m 878 508 q 945 531 919 508 q 988 588 971 553 q 1021 664 1006 624 l 1051 664 q 1024 574 1033 610 q 1004 494 1015 539 q 988 429 996 464 q 968 325 981 394 l 938 325 q 942 375 938 349 q 944 424 946 401 q 927 463 943 447 q 872 481 911 478 l 878 508 m 632 147 q 621 72 619 97 q 644 40 622 47 q 711 32 665 32 l 854 32 q 965 56 921 32 q 1040 133 1008 79 q 1103 278 1072 186 l 1133 278 q 1119 233 1126 260 q 1104 178 1111 207 q 1086 102 1097 151 q 1068 0 1075 53 q 910 3 997 3 q 754 4 824 4 q 676 4 724 4 q 574 3 629 4 q 463 2 519 3 q 354 0 406 1 l 360 28 q 433 39 407 31 q 475 72 460 47 q 503 147 490 97 l 686 836 q 697 912 700 888 q 673 945 694 936 q 604 956 651 954 l 611 983 q 718 981 661 982 q 830 980 775 981 q 932 979 885 979 q 1010 979 979 979 q 1153 980 1074 979 q 1297 983 1232 981 q 1265 889 1279 935 q 1244 819 1251 843 q 1233 772 1238 794 q 1226 733 1229 749 l 1196 733 q 1192 904 1218 857 q 1083 951 1167 951 l 954 951 q 883 944 908 951 q 843 912 857 936 q 815 836 829 888 l 632 147 z "},"B":{"ha":878,"x_min":-46,"x_max":833,"o":"m 572 982 q 769 933 704 982 q 833 804 833 885 q 792 677 833 733 q 685 581 750 621 q 549 519 619 542 q 726 437 676 499 q 776 293 776 375 q 740 163 776 218 q 644 72 704 108 q 511 18 585 36 q 363 0 438 0 q 253 2 310 0 q 124 4 196 4 q 60 3 92 4 q 1 2 28 3 q -46 0 -26 1 l -40 28 q 33 39 7 31 q 75 72 60 47 q 103 147 90 97 l 286 836 q 297 903 296 878 q 278 942 299 929 q 204 956 258 956 l 211 983 q 257 981 231 982 q 315 980 283 981 q 376 979 346 979 q 473 981 425 979 q 572 982 521 982 m 308 499 l 314 522 l 422 522 q 568 560 507 522 q 663 661 629 599 q 696 794 696 724 q 660 916 696 876 q 546 956 625 956 q 460 937 485 956 q 419 857 435 918 l 232 147 q 220 80 221 106 q 238 43 219 54 q 303 32 256 32 q 498 65 425 32 q 604 162 571 99 q 638 314 638 225 q 617 413 638 372 q 552 476 596 454 q 439 499 508 499 l 308 499 z "},"C":{"ha":931,"x_min":71,"x_max":989,"o":"m 989 983 q 946 852 968 929 q 900 664 924 775 l 869 664 q 877 785 881 736 q 856 869 874 835 q 780 950 829 922 q 674 978 731 978 q 533 935 601 978 q 407 821 465 893 q 304 658 349 749 q 235 469 260 567 q 210 278 210 371 q 263 74 210 142 q 408 6 317 6 q 535 33 467 6 q 656 114 604 61 q 720 202 693 151 q 781 333 747 253 l 811 333 q 758 130 776 207 q 729 0 739 53 l 699 0 q 703 47 703 29 q 692 83 703 79 q 657 71 681 86 q 582 26 619 46 q 500 -7 544 6 q 394 -19 456 -19 q 156 63 242 -19 q 71 307 71 146 q 100 499 71 401 q 183 688 129 597 q 313 849 238 778 q 479 961 388 919 q 676 1003 571 1003 q 774 990 736 1003 q 837 956 811 976 q 883 913 863 936 q 920 908 903 893 q 960 983 938 922 l 989 983 z "},"Ć":{"ha":931,"x_min":71,"x_max":1039,"o":"m 989 983 q 946 852 968 929 q 900 664 924 775 l 869 664 q 877 785 881 736 q 856 869 874 835 q 780 950 829 922 q 674 978 731 978 q 533 935 601 978 q 407 821 465 893 q 304 658 349 749 q 235 469 260 567 q 210 278 210 371 q 263 74 210 142 q 408 6 317 6 q 535 33 467 6 q 656 114 604 61 q 720 202 693 151 q 781 333 747 253 l 811 333 q 758 130 776 207 q 729 0 739 53 l 699 0 q 703 47 703 29 q 692 83 703 79 q 657 71 681 86 q 582 26 619 46 q 500 -7 544 6 q 394 -19 456 -19 q 156 63 242 -19 q 71 307 71 146 q 100 499 71 401 q 183 688 129 597 q 313 849 238 778 q 479 961 388 919 q 676 1003 571 1003 q 774 990 736 1003 q 837 956 811 976 q 883 913 863 936 q 920 908 903 893 q 960 983 938 922 l 989 983 m 665 1088 q 787 1174 739 1138 q 870 1238 835 1211 q 938 1285 906 1265 q 970 1298 951 1293 q 1006 1299 989 1303 q 1029 1278 1022 1296 q 1022 1235 1039 1256 q 983 1203 1004 1214 q 910 1169 951 1185 q 811 1133 868 1154 q 675 1072 754 1111 l 665 1088 z "},"Č":{"ha":931,"x_min":71,"x_max":1024,"o":"m 989 983 q 946 852 968 929 q 900 664 924 775 l 869 664 q 877 785 881 736 q 856 869 874 835 q 780 950 829 922 q 674 978 731 978 q 533 935 601 978 q 407 821 465 893 q 304 658 349 749 q 235 469 260 567 q 210 278 210 371 q 263 74 210 142 q 408 6 317 6 q 535 33 467 6 q 656 114 604 61 q 720 202 693 151 q 781 333 747 253 l 811 333 q 758 130 776 207 q 729 0 739 53 l 699 0 q 703 47 703 29 q 692 83 703 79 q 657 71 681 86 q 582 26 619 46 q 500 -7 544 6 q 394 -19 456 -19 q 156 63 242 -19 q 71 307 71 146 q 100 499 71 401 q 183 688 129 597 q 313 849 238 778 q 479 961 388 919 q 676 1003 571 1003 q 774 990 736 1003 q 837 956 811 976 q 883 913 863 936 q 920 908 903 893 q 960 983 938 922 l 989 983 m 731 1189 q 863 1240 785 1213 q 1017 1283 942 1267 l 1024 1264 q 836 1185 922 1233 q 697 1083 750 1136 l 672 1083 q 594 1190 638 1144 q 479 1264 550 1236 l 485 1283 q 590 1257 549 1272 q 665 1224 632 1242 q 731 1189 697 1207 z "},"Ç":{"ha":931,"x_min":71,"x_max":989,"o":"m 989 983 q 946 852 968 929 q 900 664 924 775 l 869 664 q 877 785 881 736 q 856 869 874 835 q 780 950 829 922 q 674 978 731 978 q 533 935 601 978 q 407 821 465 893 q 304 658 349 749 q 235 469 260 567 q 210 278 210 371 q 263 74 210 142 q 408 6 317 6 q 535 33 467 6 q 656 114 604 61 q 720 202 693 151 q 781 333 747 253 l 811 333 q 758 130 776 207 q 729 0 739 53 l 699 0 q 703 47 703 29 q 692 83 703 79 q 657 71 681 86 q 582 26 619 46 q 500 -7 544 6 q 394 -19 456 -19 q 156 63 242 -19 q 71 307 71 146 q 100 499 71 401 q 183 688 129 597 q 313 849 238 778 q 479 961 388 919 q 676 1003 571 1003 q 774 990 736 1003 q 837 956 811 976 q 883 913 863 936 q 920 908 903 893 q 960 983 938 922 l 989 983 m 419 6 l 369 -100 q 403 -93 385 -96 q 440 -90 422 -90 q 494 -105 475 -90 q 514 -146 514 -119 q 479 -212 514 -186 q 395 -249 444 -237 q 301 -261 346 -261 q 217 -251 253 -261 q 163 -231 181 -242 l 172 -210 q 210 -221 183 -214 q 283 -228 236 -228 q 338 -222 304 -228 q 399 -200 372 -215 q 425 -157 425 -185 q 372 -124 425 -124 q 347 -126 363 -124 q 315 -133 331 -128 l 382 6 l 419 6 z "},"Ĉ":{"ha":931,"x_min":71,"x_max":989,"o":"m 989 983 q 946 852 968 929 q 900 664 924 775 l 869 664 q 877 785 881 736 q 856 869 874 835 q 780 950 829 922 q 674 978 731 978 q 533 935 601 978 q 407 821 465 893 q 304 658 349 749 q 235 469 260 567 q 210 278 210 371 q 263 74 210 142 q 408 6 317 6 q 535 33 467 6 q 656 114 604 61 q 720 202 693 151 q 781 333 747 253 l 811 333 q 758 130 776 207 q 729 0 739 53 l 699 0 q 703 47 703 29 q 692 83 703 79 q 657 71 681 86 q 582 26 619 46 q 500 -7 544 6 q 394 -19 456 -19 q 156 63 242 -19 q 71 307 71 146 q 100 499 71 401 q 183 688 129 597 q 313 849 238 778 q 479 961 388 919 q 676 1003 571 1003 q 774 990 736 1003 q 837 956 811 976 q 883 913 863 936 q 920 908 903 893 q 960 983 938 922 l 989 983 m 701 1167 q 569 1117 647 1144 q 415 1072 490 1089 l 408 1092 q 596 1172 510 1124 q 735 1272 682 1219 l 760 1272 q 839 1166 796 1213 q 953 1092 882 1119 l 947 1072 q 842 1099 885 1085 q 767 1131 800 1114 q 701 1167 735 1149 z "},"Ċ":{"ha":931,"x_min":71,"x_max":989,"o":"m 989 983 q 946 852 968 929 q 900 664 924 775 l 869 664 q 877 785 881 736 q 856 869 874 835 q 780 950 829 922 q 674 978 731 978 q 533 935 601 978 q 407 821 465 893 q 304 658 349 749 q 235 469 260 567 q 210 278 210 371 q 263 74 210 142 q 408 6 317 6 q 535 33 467 6 q 656 114 604 61 q 720 202 693 151 q 781 333 747 253 l 811 333 q 758 130 776 207 q 729 0 739 53 l 699 0 q 703 47 703 29 q 692 83 703 79 q 657 71 681 86 q 582 26 619 46 q 500 -7 544 6 q 394 -19 456 -19 q 156 63 242 -19 q 71 307 71 146 q 100 499 71 401 q 183 688 129 597 q 313 849 238 778 q 479 961 388 919 q 676 1003 571 1003 q 774 990 736 1003 q 837 956 811 976 q 883 913 863 936 q 920 908 903 893 q 960 983 938 922 l 989 983 m 646 1146 q 676 1216 646 1182 q 749 1250 706 1250 q 800 1229 781 1250 q 819 1176 819 1208 q 790 1106 819 1139 q 715 1072 760 1072 q 665 1094 685 1072 q 646 1146 646 1115 z "},"D":{"ha":1007,"x_min":-42,"x_max":978,"o":"m 978 676 q 947 473 978 572 q 856 288 915 374 q 716 138 797 203 q 535 37 635 74 q 319 0 435 0 q 264 1 299 0 q 192 3 229 3 q 125 4 156 4 q 61 3 93 4 q 3 2 29 3 q -42 0 -24 1 l -37 28 q 33 39 7 31 q 74 72 58 47 q 101 147 89 97 l 283 836 q 296 908 296 882 q 275 944 296 933 q 203 956 254 954 l 207 983 q 254 981 226 982 q 314 979 282 979 q 376 979 346 979 q 447 981 408 981 q 523 983 486 982 q 586 983 560 983 q 881 905 783 983 q 978 676 978 826 m 303 25 q 496 61 410 25 q 647 163 582 97 q 756 314 713 228 q 822 501 800 400 q 844 711 844 603 q 775 897 844 835 q 547 958 706 958 q 481 949 506 958 q 440 913 456 939 q 413 839 425 888 l 231 144 q 218 77 219 104 q 235 38 217 50 q 303 25 254 25 z "},"Ð":{"ha":1007,"x_min":-42,"x_max":978,"o":"m 978 676 q 947 473 978 572 q 856 288 915 374 q 716 138 797 203 q 535 37 635 74 q 319 0 435 0 q 264 1 299 0 q 192 3 229 3 q 125 4 156 4 q 61 3 93 4 q 3 2 29 3 q -42 0 -24 1 l -37 28 q 33 39 7 31 q 74 72 58 47 q 101 147 89 97 l 283 836 q 296 908 296 882 q 275 944 296 933 q 203 956 254 954 l 207 983 q 254 981 226 982 q 314 979 282 979 q 376 979 346 979 q 447 981 408 981 q 523 983 486 982 q 586 983 560 983 q 881 905 783 983 q 978 676 978 826 m 303 25 q 496 61 410 25 q 647 163 582 97 q 756 314 713 228 q 822 501 800 400 q 844 711 844 603 q 775 897 844 835 q 547 958 706 958 q 481 949 506 958 q 440 913 456 939 q 413 839 425 888 l 231 144 q 218 77 219 104 q 235 38 217 50 q 303 25 254 25 m 608 508 l 600 474 l 28 474 l 36 508 l 608 508 z "},"Ď":{"ha":1007,"x_min":-42,"x_max":978,"o":"m 978 676 q 947 473 978 572 q 856 288 915 374 q 716 138 797 203 q 535 37 635 74 q 319 0 435 0 q 264 1 299 0 q 192 3 229 3 q 125 4 156 4 q 61 3 93 4 q 3 2 29 3 q -42 0 -24 1 l -37 28 q 33 39 7 31 q 74 72 58 47 q 101 147 89 97 l 283 836 q 296 908 296 882 q 275 944 296 933 q 203 956 254 954 l 207 983 q 254 981 226 982 q 314 979 282 979 q 376 979 346 979 q 447 981 408 981 q 523 983 486 982 q 586 983 560 983 q 881 905 783 983 q 978 676 978 826 m 303 25 q 496 61 410 25 q 647 163 582 97 q 756 314 713 228 q 822 501 800 400 q 844 711 844 603 q 775 897 844 835 q 547 958 706 958 q 481 949 506 958 q 440 913 456 939 q 413 839 425 888 l 231 144 q 218 77 219 104 q 235 38 217 50 q 303 25 254 25 m 618 1189 q 751 1240 672 1213 q 904 1283 829 1267 l 911 1264 q 724 1185 810 1233 q 585 1083 638 1136 l 560 1083 q 481 1190 525 1144 q 367 1264 438 1236 l 372 1283 q 478 1257 436 1272 q 552 1224 519 1242 q 618 1189 585 1207 z "},"Đ":{"ha":1007,"x_min":-42,"x_max":978,"o":"m 978 676 q 947 473 978 572 q 856 288 915 374 q 716 138 797 203 q 535 37 635 74 q 319 0 435 0 q 264 1 299 0 q 192 3 229 3 q 125 4 156 4 q 61 3 93 4 q 3 2 29 3 q -42 0 -24 1 l -37 28 q 33 39 7 31 q 74 72 58 47 q 101 147 89 97 l 283 836 q 296 908 296 882 q 275 944 296 933 q 203 956 254 954 l 207 983 q 254 981 226 982 q 314 979 282 979 q 376 979 346 979 q 447 981 408 981 q 523 983 486 982 q 586 983 560 983 q 881 905 783 983 q 978 676 978 826 m 303 25 q 496 61 410 25 q 647 163 582 97 q 756 314 713 228 q 822 501 800 400 q 844 711 844 603 q 775 897 844 835 q 547 958 706 958 q 481 949 506 958 q 440 913 456 939 q 413 839 425 888 l 231 144 q 218 77 219 104 q 235 38 217 50 q 303 25 254 25 m 608 508 l 600 474 l 28 474 l 36 508 l 608 508 z "},"E":{"ha":847,"x_min":-49,"x_max":892,"o":"m 278 481 l 286 508 l 526 508 l 518 481 l 278 481 m 419 508 q 494 527 465 508 q 542 575 524 546 q 574 635 561 604 q 597 692 586 667 l 629 692 q 592 571 603 613 q 572 494 582 529 q 560 447 567 472 q 547 385 554 421 q 528 297 539 350 l 496 297 q 504 363 500 331 q 503 422 508 396 q 478 465 499 449 q 411 481 457 481 l 419 508 m 788 733 q 799 863 801 815 q 765 931 796 911 q 660 951 733 951 l 558 951 q 485 944 511 951 q 444 912 460 936 q 415 836 429 888 l 231 147 q 219 72 217 97 q 243 40 221 47 q 313 32 265 32 l 414 32 q 553 56 501 32 q 639 133 604 79 q 707 278 674 186 l 739 278 q 724 233 732 260 q 708 178 715 207 q 690 102 701 151 q 671 0 679 53 q 511 3 600 3 q 353 4 422 4 q 274 4 322 4 q 171 3 226 4 q 58 2 115 3 q -49 0 1 1 l -42 28 q 32 39 6 31 q 73 72 58 47 q 101 147 88 97 l 286 836 q 298 912 300 888 q 274 945 296 936 q 206 956 253 954 l 213 983 q 321 981 264 982 q 433 980 378 981 q 537 979 489 979 q 615 979 585 979 q 753 980 676 979 q 892 983 831 981 q 860 889 874 935 q 839 819 846 843 q 827 772 832 794 q 819 733 822 749 l 788 733 z "},"É":{"ha":847,"x_min":-49,"x_max":940,"o":"m 278 481 l 286 508 l 526 508 l 518 481 l 278 481 m 419 508 q 494 527 465 508 q 542 575 524 546 q 574 635 561 604 q 597 692 586 667 l 629 692 q 592 571 603 613 q 572 494 582 529 q 560 447 567 472 q 547 385 554 421 q 528 297 539 350 l 496 297 q 504 363 500 331 q 503 422 508 396 q 478 465 499 449 q 411 481 457 481 l 419 508 m 788 733 q 799 863 801 815 q 765 931 796 911 q 660 951 733 951 l 558 951 q 485 944 511 951 q 444 912 460 936 q 415 836 429 888 l 231 147 q 219 72 217 97 q 243 40 221 47 q 313 32 265 32 l 414 32 q 553 56 501 32 q 639 133 604 79 q 707 278 674 186 l 739 278 q 724 233 732 260 q 708 178 715 207 q 690 102 701 151 q 671 0 679 53 q 511 3 600 3 q 353 4 422 4 q 274 4 322 4 q 171 3 226 4 q 58 2 115 3 q -49 0 1 1 l -42 28 q 32 39 6 31 q 73 72 58 47 q 101 147 88 97 l 286 836 q 298 912 300 888 q 274 945 296 936 q 206 956 253 954 l 213 983 q 321 981 264 982 q 433 980 378 981 q 537 979 489 979 q 615 979 585 979 q 753 980 676 979 q 892 983 831 981 q 860 889 874 935 q 839 819 846 843 q 827 772 832 794 q 819 733 822 749 l 788 733 m 567 1088 q 688 1174 640 1138 q 772 1238 736 1211 q 839 1285 807 1265 q 872 1298 853 1293 q 907 1299 890 1303 q 931 1278 924 1296 q 923 1235 940 1256 q 885 1203 906 1214 q 811 1169 853 1185 q 713 1133 769 1154 q 576 1072 656 1111 l 567 1088 z "},"Ĕ":{"ha":847,"x_min":-49,"x_max":939,"o":"m 278 481 l 286 508 l 526 508 l 518 481 l 278 481 m 419 508 q 494 527 465 508 q 542 575 524 546 q 574 635 561 604 q 597 692 586 667 l 629 692 q 592 571 603 613 q 572 494 582 529 q 560 447 567 472 q 547 385 554 421 q 528 297 539 350 l 496 297 q 504 363 500 331 q 503 422 508 396 q 478 465 499 449 q 411 481 457 481 l 419 508 m 788 733 q 799 863 801 815 q 765 931 796 911 q 660 951 733 951 l 558 951 q 485 944 511 951 q 444 912 460 936 q 415 836 429 888 l 231 147 q 219 72 217 97 q 243 40 221 47 q 313 32 265 32 l 414 32 q 553 56 501 32 q 639 133 604 79 q 707 278 674 186 l 739 278 q 724 233 732 260 q 708 178 715 207 q 690 102 701 151 q 671 0 679 53 q 511 3 600 3 q 353 4 422 4 q 274 4 322 4 q 171 3 226 4 q 58 2 115 3 q -49 0 1 1 l -42 28 q 32 39 6 31 q 73 72 58 47 q 101 147 88 97 l 286 836 q 298 912 300 888 q 274 945 296 936 q 206 956 253 954 l 213 983 q 321 981 264 982 q 433 980 378 981 q 537 979 489 979 q 615 979 585 979 q 753 980 676 979 q 892 983 831 981 q 860 889 874 935 q 839 819 846 843 q 827 772 832 794 q 819 733 822 749 l 788 733 m 618 1179 q 774 1200 690 1179 q 925 1260 858 1221 l 939 1244 q 844 1172 903 1208 q 719 1110 785 1135 q 594 1086 653 1086 q 491 1108 535 1086 q 421 1166 447 1129 q 385 1247 394 1203 l 407 1254 q 492 1195 443 1211 q 618 1179 542 1179 z "},"Ě":{"ha":847,"x_min":-49,"x_max":925,"o":"m 278 481 l 286 508 l 526 508 l 518 481 l 278 481 m 419 508 q 494 527 465 508 q 542 575 524 546 q 574 635 561 604 q 597 692 586 667 l 629 692 q 592 571 603 613 q 572 494 582 529 q 560 447 567 472 q 547 385 554 421 q 528 297 539 350 l 496 297 q 504 363 500 331 q 503 422 508 396 q 478 465 499 449 q 411 481 457 481 l 419 508 m 788 733 q 799 863 801 815 q 765 931 796 911 q 660 951 733 951 l 558 951 q 485 944 511 951 q 444 912 460 936 q 415 836 429 888 l 231 147 q 219 72 217 97 q 243 40 221 47 q 313 32 265 32 l 414 32 q 553 56 501 32 q 639 133 604 79 q 707 278 674 186 l 739 278 q 724 233 732 260 q 708 178 715 207 q 690 102 701 151 q 671 0 679 53 q 511 3 600 3 q 353 4 422 4 q 274 4 322 4 q 171 3 226 4 q 58 2 115 3 q -49 0 1 1 l -42 28 q 32 39 6 31 q 73 72 58 47 q 101 147 88 97 l 286 836 q 298 912 300 888 q 274 945 296 936 q 206 956 253 954 l 213 983 q 321 981 264 982 q 433 980 378 981 q 537 979 489 979 q 615 979 585 979 q 753 980 676 979 q 892 983 831 981 q 860 889 874 935 q 839 819 846 843 q 827 772 832 794 q 819 733 822 749 l 788 733 m 632 1189 q 765 1240 686 1213 q 918 1283 843 1267 l 925 1264 q 738 1185 824 1233 q 599 1083 651 1136 l 574 1083 q 495 1190 539 1144 q 381 1264 451 1236 l 386 1283 q 492 1257 450 1272 q 566 1224 533 1242 q 632 1189 599 1207 z "},"Ê":{"ha":847,"x_min":-49,"x_max":892,"o":"m 278 481 l 286 508 l 526 508 l 518 481 l 278 481 m 419 508 q 494 527 465 508 q 542 575 524 546 q 574 635 561 604 q 597 692 586 667 l 629 692 q 592 571 603 613 q 572 494 582 529 q 560 447 567 472 q 547 385 554 421 q 528 297 539 350 l 496 297 q 504 363 500 331 q 503 422 508 396 q 478 465 499 449 q 411 481 457 481 l 419 508 m 788 733 q 799 863 801 815 q 765 931 796 911 q 660 951 733 951 l 558 951 q 485 944 511 951 q 444 912 460 936 q 415 836 429 888 l 231 147 q 219 72 217 97 q 243 40 221 47 q 313 32 265 32 l 414 32 q 553 56 501 32 q 639 133 604 79 q 707 278 674 186 l 739 278 q 724 233 732 260 q 708 178 715 207 q 690 102 701 151 q 671 0 679 53 q 511 3 600 3 q 353 4 422 4 q 274 4 322 4 q 171 3 226 4 q 58 2 115 3 q -49 0 1 1 l -42 28 q 32 39 6 31 q 73 72 58 47 q 101 147 88 97 l 286 836 q 298 912 300 888 q 274 945 296 936 q 206 956 253 954 l 213 983 q 321 981 264 982 q 433 980 378 981 q 537 979 489 979 q 615 979 585 979 q 753 980 676 979 q 892 983 831 981 q 860 889 874 935 q 839 819 846 843 q 827 772 832 794 q 819 733 822 749 l 788 733 m 603 1167 q 470 1117 549 1144 q 317 1072 392 1089 l 310 1092 q 497 1172 411 1124 q 636 1272 583 1219 l 661 1272 q 740 1166 697 1213 q 854 1092 783 1119 l 849 1072 q 744 1099 786 1085 q 669 1131 701 1114 q 603 1167 636 1149 z "},"Ế":{"ha":847,"x_min":-49,"x_max":1007,"o":"m 278 481 l 286 508 l 526 508 l 518 481 l 278 481 m 419 508 q 494 527 465 508 q 542 575 524 546 q 574 635 561 604 q 597 692 586 667 l 629 692 q 592 571 603 613 q 572 494 582 529 q 560 447 567 472 q 547 385 554 421 q 528 297 539 350 l 496 297 q 504 363 500 331 q 503 422 508 396 q 478 465 499 449 q 411 481 457 481 l 419 508 m 788 733 q 799 863 801 815 q 765 931 796 911 q 660 951 733 951 l 558 951 q 485 944 511 951 q 444 912 460 936 q 415 836 429 888 l 231 147 q 219 72 217 97 q 243 40 221 47 q 313 32 265 32 l 414 32 q 553 56 501 32 q 639 133 604 79 q 707 278 674 186 l 739 278 q 724 233 732 260 q 708 178 715 207 q 690 102 701 151 q 671 0 679 53 q 511 3 600 3 q 353 4 422 4 q 274 4 322 4 q 171 3 226 4 q 58 2 115 3 q -49 0 1 1 l -42 28 q 32 39 6 31 q 73 72 58 47 q 101 147 88 97 l 286 836 q 298 912 300 888 q 274 945 296 936 q 206 956 253 954 l 213 983 q 321 981 264 982 q 433 980 378 981 q 537 979 489 979 q 615 979 585 979 q 753 980 676 979 q 892 983 831 981 q 860 889 874 935 q 839 819 846 843 q 827 772 832 794 q 819 733 822 749 l 788 733 m 603 1167 q 470 1117 549 1144 q 317 1072 392 1089 l 310 1092 q 497 1172 411 1124 q 636 1272 583 1219 l 661 1272 q 740 1166 697 1213 q 854 1092 783 1119 l 849 1072 q 744 1099 786 1085 q 669 1131 701 1114 q 603 1167 636 1149 m 633 1351 q 755 1438 707 1401 q 838 1502 803 1475 q 906 1549 874 1529 q 938 1562 919 1557 q 974 1563 957 1567 q 997 1542 990 1560 q 990 1499 1007 1519 q 951 1467 972 1478 q 878 1433 919 1449 q 779 1397 836 1418 q 643 1336 722 1375 l 633 1351 z "},"Ệ":{"ha":847,"x_min":-49,"x_max":892,"o":"m 278 481 l 286 508 l 526 508 l 518 481 l 278 481 m 419 508 q 494 527 465 508 q 542 575 524 546 q 574 635 561 604 q 597 692 586 667 l 629 692 q 592 571 603 613 q 572 494 582 529 q 560 447 567 472 q 547 385 554 421 q 528 297 539 350 l 496 297 q 504 363 500 331 q 503 422 508 396 q 478 465 499 449 q 411 481 457 481 l 419 508 m 788 733 q 799 863 801 815 q 765 931 796 911 q 660 951 733 951 l 558 951 q 485 944 511 951 q 444 912 460 936 q 415 836 429 888 l 231 147 q 219 72 217 97 q 243 40 221 47 q 313 32 265 32 l 414 32 q 553 56 501 32 q 639 133 604 79 q 707 278 674 186 l 739 278 q 724 233 732 260 q 708 178 715 207 q 690 102 701 151 q 671 0 679 53 q 511 3 600 3 q 353 4 422 4 q 274 4 322 4 q 171 3 226 4 q 58 2 115 3 q -49 0 1 1 l -42 28 q 32 39 6 31 q 73 72 58 47 q 101 147 88 97 l 286 836 q 298 912 300 888 q 274 945 296 936 q 206 956 253 954 l 213 983 q 321 981 264 982 q 433 980 378 981 q 537 979 489 979 q 615 979 585 979 q 753 980 676 979 q 892 983 831 981 q 860 889 874 935 q 839 819 846 843 q 827 772 832 794 q 819 733 822 749 l 788 733 m 325 -251 q 275 -233 294 -251 q 256 -186 256 -215 q 282 -123 256 -150 q 350 -96 308 -96 q 401 -115 383 -96 q 419 -161 419 -133 q 390 -227 419 -203 q 325 -251 361 -251 m 603 1167 q 470 1117 549 1144 q 317 1072 392 1089 l 310 1092 q 497 1172 411 1124 q 636 1272 583 1219 l 661 1272 q 740 1166 697 1213 q 854 1092 783 1119 l 849 1072 q 744 1099 786 1085 q 669 1131 701 1114 q 603 1167 636 1149 z "},"Ề":{"ha":847,"x_min":-49,"x_max":892,"o":"m 278 481 l 286 508 l 526 508 l 518 481 l 278 481 m 419 508 q 494 527 465 508 q 542 575 524 546 q 574 635 561 604 q 597 692 586 667 l 629 692 q 592 571 603 613 q 572 494 582 529 q 560 447 567 472 q 547 385 554 421 q 528 297 539 350 l 496 297 q 504 363 500 331 q 503 422 508 396 q 478 465 499 449 q 411 481 457 481 l 419 508 m 788 733 q 799 863 801 815 q 765 931 796 911 q 660 951 733 951 l 558 951 q 485 944 511 951 q 444 912 460 936 q 415 836 429 888 l 231 147 q 219 72 217 97 q 243 40 221 47 q 313 32 265 32 l 414 32 q 553 56 501 32 q 639 133 604 79 q 707 278 674 186 l 739 278 q 724 233 732 260 q 708 178 715 207 q 690 102 701 151 q 671 0 679 53 q 511 3 600 3 q 353 4 422 4 q 274 4 322 4 q 171 3 226 4 q 58 2 115 3 q -49 0 1 1 l -42 28 q 32 39 6 31 q 73 72 58 47 q 101 147 88 97 l 286 836 q 298 912 300 888 q 274 945 296 936 q 206 956 253 954 l 213 983 q 321 981 264 982 q 433 980 378 981 q 537 979 489 979 q 615 979 585 979 q 753 980 676 979 q 892 983 831 981 q 860 889 874 935 q 839 819 846 843 q 827 772 832 794 q 819 733 822 749 l 788 733 m 603 1167 q 470 1117 549 1144 q 317 1072 392 1089 l 310 1092 q 497 1172 411 1124 q 636 1272 583 1219 l 661 1272 q 740 1166 697 1213 q 854 1092 783 1119 l 849 1072 q 744 1099 786 1085 q 669 1131 701 1114 q 603 1167 636 1149 m 694 1332 q 598 1407 639 1378 q 527 1457 557 1436 q 475 1499 497 1478 q 451 1537 461 1514 q 458 1581 442 1560 q 504 1593 476 1601 q 550 1565 532 1585 q 590 1514 571 1544 q 638 1442 610 1483 q 708 1346 665 1401 l 694 1332 z "},"Ể":{"ha":847,"x_min":-49,"x_max":1040,"o":"m 278 481 l 286 508 l 526 508 l 518 481 l 278 481 m 419 508 q 494 527 465 508 q 542 575 524 546 q 574 635 561 604 q 597 692 586 667 l 629 692 q 592 571 603 613 q 572 494 582 529 q 560 447 567 472 q 547 385 554 421 q 528 297 539 350 l 496 297 q 504 363 500 331 q 503 422 508 396 q 478 465 499 449 q 411 481 457 481 l 419 508 m 788 733 q 799 863 801 815 q 765 931 796 911 q 660 951 733 951 l 558 951 q 485 944 511 951 q 444 912 460 936 q 415 836 429 888 l 231 147 q 219 72 217 97 q 243 40 221 47 q 313 32 265 32 l 414 32 q 553 56 501 32 q 639 133 604 79 q 707 278 674 186 l 739 278 q 724 233 732 260 q 708 178 715 207 q 690 102 701 151 q 671 0 679 53 q 511 3 600 3 q 353 4 422 4 q 274 4 322 4 q 171 3 226 4 q 58 2 115 3 q -49 0 1 1 l -42 28 q 32 39 6 31 q 73 72 58 47 q 101 147 88 97 l 286 836 q 298 912 300 888 q 274 945 296 936 q 206 956 253 954 l 213 983 q 321 981 264 982 q 433 980 378 981 q 537 979 489 979 q 615 979 585 979 q 753 980 676 979 q 892 983 831 981 q 860 889 874 935 q 839 819 846 843 q 827 772 832 794 q 819 733 822 749 l 788 733 m 603 1167 q 470 1117 549 1144 q 317 1072 392 1089 l 310 1092 q 497 1172 411 1124 q 636 1272 583 1219 l 661 1272 q 740 1166 697 1213 q 854 1092 783 1119 l 849 1072 q 744 1099 786 1085 q 669 1131 701 1114 q 603 1167 636 1149 m 828 1244 q 851 1314 832 1288 q 891 1360 869 1340 q 928 1403 913 1381 q 944 1461 944 1425 q 924 1516 944 1499 q 868 1533 904 1533 q 836 1529 853 1533 q 807 1511 819 1525 q 831 1490 822 1504 q 840 1457 840 1476 q 822 1412 840 1431 q 772 1393 803 1393 q 730 1408 746 1393 q 714 1449 714 1424 q 735 1499 714 1478 q 788 1535 757 1521 q 829 1549 803 1542 q 894 1556 856 1556 q 997 1535 953 1556 q 1040 1465 1040 1515 q 1023 1413 1040 1433 q 979 1378 1006 1393 q 926 1346 953 1363 q 880 1306 900 1329 q 856 1244 860 1282 l 828 1244 z "},"Ễ":{"ha":847,"x_min":-49,"x_max":964,"o":"m 278 481 l 286 508 l 526 508 l 518 481 l 278 481 m 419 508 q 494 527 465 508 q 542 575 524 546 q 574 635 561 604 q 597 692 586 667 l 629 692 q 592 571 603 613 q 572 494 582 529 q 560 447 567 472 q 547 385 554 421 q 528 297 539 350 l 496 297 q 504 363 500 331 q 503 422 508 396 q 478 465 499 449 q 411 481 457 481 l 419 508 m 788 733 q 799 863 801 815 q 765 931 796 911 q 660 951 733 951 l 558 951 q 485 944 511 951 q 444 912 460 936 q 415 836 429 888 l 231 147 q 219 72 217 97 q 243 40 221 47 q 313 32 265 32 l 414 32 q 553 56 501 32 q 639 133 604 79 q 707 278 674 186 l 739 278 q 724 233 732 260 q 708 178 715 207 q 690 102 701 151 q 671 0 679 53 q 511 3 600 3 q 353 4 422 4 q 274 4 322 4 q 171 3 226 4 q 58 2 115 3 q -49 0 1 1 l -42 28 q 32 39 6 31 q 73 72 58 47 q 101 147 88 97 l 286 836 q 298 912 300 888 q 274 945 296 936 q 206 956 253 954 l 213 983 q 321 981 264 982 q 433 980 378 981 q 537 979 489 979 q 615 979 585 979 q 753 980 676 979 q 892 983 831 981 q 860 889 874 935 q 839 819 846 843 q 827 772 832 794 q 819 733 822 749 l 788 733 m 603 1167 q 470 1117 549 1144 q 317 1072 392 1089 l 310 1092 q 497 1172 411 1124 q 636 1272 583 1219 l 661 1272 q 740 1166 697 1213 q 854 1092 783 1119 l 849 1072 q 744 1099 786 1085 q 669 1131 701 1114 q 603 1167 636 1149 m 601 1507 q 679 1492 649 1507 q 733 1456 710 1476 q 781 1421 756 1436 q 842 1406 806 1406 q 891 1424 867 1406 q 939 1486 915 1443 l 964 1479 q 882 1369 932 1403 q 783 1336 832 1336 q 706 1351 736 1336 q 652 1387 675 1367 q 604 1422 629 1407 q 543 1438 579 1438 q 494 1419 518 1438 q 446 1357 469 1401 l 421 1364 q 503 1474 453 1442 q 601 1507 553 1507 z "},"Ë":{"ha":847,"x_min":-49,"x_max":892,"o":"m 278 481 l 286 508 l 526 508 l 518 481 l 278 481 m 419 508 q 494 527 465 508 q 542 575 524 546 q 574 635 561 604 q 597 692 586 667 l 629 692 q 592 571 603 613 q 572 494 582 529 q 560 447 567 472 q 547 385 554 421 q 528 297 539 350 l 496 297 q 504 363 500 331 q 503 422 508 396 q 478 465 499 449 q 411 481 457 481 l 419 508 m 788 733 q 799 863 801 815 q 765 931 796 911 q 660 951 733 951 l 558 951 q 485 944 511 951 q 444 912 460 936 q 415 836 429 888 l 231 147 q 219 72 217 97 q 243 40 221 47 q 313 32 265 32 l 414 32 q 553 56 501 32 q 639 133 604 79 q 707 278 674 186 l 739 278 q 724 233 732 260 q 708 178 715 207 q 690 102 701 151 q 671 0 679 53 q 511 3 600 3 q 353 4 422 4 q 274 4 322 4 q 171 3 226 4 q 58 2 115 3 q -49 0 1 1 l -42 28 q 32 39 6 31 q 73 72 58 47 q 101 147 88 97 l 286 836 q 298 912 300 888 q 274 945 296 936 q 206 956 253 954 l 213 983 q 321 981 264 982 q 433 980 378 981 q 537 979 489 979 q 615 979 585 979 q 753 980 676 979 q 892 983 831 981 q 860 889 874 935 q 839 819 846 843 q 827 772 832 794 q 819 733 822 749 l 788 733 m 393 1143 q 421 1204 393 1175 q 486 1233 449 1233 q 535 1213 515 1233 q 556 1164 556 1193 q 543 1120 556 1142 q 509 1085 531 1099 q 463 1072 488 1072 q 413 1092 432 1072 q 393 1143 393 1113 m 688 1143 q 715 1204 688 1175 q 781 1233 743 1233 q 830 1213 810 1233 q 850 1164 850 1193 q 838 1120 850 1142 q 803 1085 825 1099 q 757 1072 782 1072 q 707 1092 726 1072 q 688 1143 688 1113 z "},"Ė":{"ha":847,"x_min":-49,"x_max":892,"o":"m 278 481 l 286 508 l 526 508 l 518 481 l 278 481 m 419 508 q 494 527 465 508 q 542 575 524 546 q 574 635 561 604 q 597 692 586 667 l 629 692 q 592 571 603 613 q 572 494 582 529 q 560 447 567 472 q 547 385 554 421 q 528 297 539 350 l 496 297 q 504 363 500 331 q 503 422 508 396 q 478 465 499 449 q 411 481 457 481 l 419 508 m 788 733 q 799 863 801 815 q 765 931 796 911 q 660 951 733 951 l 558 951 q 485 944 511 951 q 444 912 460 936 q 415 836 429 888 l 231 147 q 219 72 217 97 q 243 40 221 47 q 313 32 265 32 l 414 32 q 553 56 501 32 q 639 133 604 79 q 707 278 674 186 l 739 278 q 724 233 732 260 q 708 178 715 207 q 690 102 701 151 q 671 0 679 53 q 511 3 600 3 q 353 4 422 4 q 274 4 322 4 q 171 3 226 4 q 58 2 115 3 q -49 0 1 1 l -42 28 q 32 39 6 31 q 73 72 58 47 q 101 147 88 97 l 286 836 q 298 912 300 888 q 274 945 296 936 q 206 956 253 954 l 213 983 q 321 981 264 982 q 433 980 378 981 q 537 979 489 979 q 615 979 585 979 q 753 980 676 979 q 892 983 831 981 q 860 889 874 935 q 839 819 846 843 q 827 772 832 794 q 819 733 822 749 l 788 733 m 547 1146 q 577 1216 547 1182 q 650 1250 607 1250 q 701 1229 682 1250 q 721 1176 721 1208 q 691 1106 721 1139 q 617 1072 661 1072 q 567 1094 586 1072 q 547 1146 547 1115 z "},"Ẹ":{"ha":847,"x_min":-49,"x_max":892,"o":"m 278 481 l 286 508 l 526 508 l 518 481 l 278 481 m 419 508 q 494 527 465 508 q 542 575 524 546 q 574 635 561 604 q 597 692 586 667 l 629 692 q 592 571 603 613 q 572 494 582 529 q 560 447 567 472 q 547 385 554 421 q 528 297 539 350 l 496 297 q 504 363 500 331 q 503 422 508 396 q 478 465 499 449 q 411 481 457 481 l 419 508 m 788 733 q 799 863 801 815 q 765 931 796 911 q 660 951 733 951 l 558 951 q 485 944 511 951 q 444 912 460 936 q 415 836 429 888 l 231 147 q 219 72 217 97 q 243 40 221 47 q 313 32 265 32 l 414 32 q 553 56 501 32 q 639 133 604 79 q 707 278 674 186 l 739 278 q 724 233 732 260 q 708 178 715 207 q 690 102 701 151 q 671 0 679 53 q 511 3 600 3 q 353 4 422 4 q 274 4 322 4 q 171 3 226 4 q 58 2 115 3 q -49 0 1 1 l -42 28 q 32 39 6 31 q 73 72 58 47 q 101 147 88 97 l 286 836 q 298 912 300 888 q 274 945 296 936 q 206 956 253 954 l 213 983 q 321 981 264 982 q 433 980 378 981 q 537 979 489 979 q 615 979 585 979 q 753 980 676 979 q 892 983 831 981 q 860 889 874 935 q 839 819 846 843 q 827 772 832 794 q 819 733 822 749 l 788 733 m 325 -251 q 275 -233 294 -251 q 256 -186 256 -215 q 282 -123 256 -150 q 350 -96 308 -96 q 401 -115 383 -96 q 419 -161 419 -133 q 390 -227 419 -203 q 325 -251 361 -251 z "},"È":{"ha":847,"x_min":-49,"x_max":892,"o":"m 278 481 l 286 508 l 526 508 l 518 481 l 278 481 m 419 508 q 494 527 465 508 q 542 575 524 546 q 574 635 561 604 q 597 692 586 667 l 629 692 q 592 571 603 613 q 572 494 582 529 q 560 447 567 472 q 547 385 554 421 q 528 297 539 350 l 496 297 q 504 363 500 331 q 503 422 508 396 q 478 465 499 449 q 411 481 457 481 l 419 508 m 788 733 q 799 863 801 815 q 765 931 796 911 q 660 951 733 951 l 558 951 q 485 944 511 951 q 444 912 460 936 q 415 836 429 888 l 231 147 q 219 72 217 97 q 243 40 221 47 q 313 32 265 32 l 414 32 q 553 56 501 32 q 639 133 604 79 q 707 278 674 186 l 739 278 q 724 233 732 260 q 708 178 715 207 q 690 102 701 151 q 671 0 679 53 q 511 3 600 3 q 353 4 422 4 q 274 4 322 4 q 171 3 226 4 q 58 2 115 3 q -49 0 1 1 l -42 28 q 32 39 6 31 q 73 72 58 47 q 101 147 88 97 l 286 836 q 298 912 300 888 q 274 945 296 936 q 206 956 253 954 l 213 983 q 321 981 264 982 q 433 980 378 981 q 537 979 489 979 q 615 979 585 979 q 753 980 676 979 q 892 983 831 981 q 860 889 874 935 q 839 819 846 843 q 827 772 832 794 q 819 733 822 749 l 788 733 m 628 1068 q 531 1143 572 1114 q 460 1193 490 1172 q 408 1235 431 1214 q 385 1273 394 1250 q 392 1317 375 1296 q 438 1329 410 1338 q 483 1301 465 1321 q 524 1250 504 1281 q 571 1178 543 1219 q 642 1082 599 1138 l 628 1068 z "},"Ẻ":{"ha":847,"x_min":-49,"x_max":892,"o":"m 278 481 l 286 508 l 526 508 l 518 481 l 278 481 m 419 508 q 494 527 465 508 q 542 575 524 546 q 574 635 561 604 q 597 692 586 667 l 629 692 q 592 571 603 613 q 572 494 582 529 q 560 447 567 472 q 547 385 554 421 q 528 297 539 350 l 496 297 q 504 363 500 331 q 503 422 508 396 q 478 465 499 449 q 411 481 457 481 l 419 508 m 788 733 q 799 863 801 815 q 765 931 796 911 q 660 951 733 951 l 558 951 q 485 944 511 951 q 444 912 460 936 q 415 836 429 888 l 231 147 q 219 72 217 97 q 243 40 221 47 q 313 32 265 32 l 414 32 q 553 56 501 32 q 639 133 604 79 q 707 278 674 186 l 739 278 q 724 233 732 260 q 708 178 715 207 q 690 102 701 151 q 671 0 679 53 q 511 3 600 3 q 353 4 422 4 q 274 4 322 4 q 171 3 226 4 q 58 2 115 3 q -49 0 1 1 l -42 28 q 32 39 6 31 q 73 72 58 47 q 101 147 88 97 l 286 836 q 298 912 300 888 q 274 945 296 936 q 206 956 253 954 l 213 983 q 321 981 264 982 q 433 980 378 981 q 537 979 489 979 q 615 979 585 979 q 753 980 676 979 q 892 983 831 981 q 860 889 874 935 q 839 819 846 843 q 827 772 832 794 q 819 733 822 749 l 788 733 m 578 1042 q 601 1111 582 1085 q 641 1158 619 1138 q 678 1200 663 1178 q 694 1258 694 1222 q 674 1313 694 1296 q 618 1331 654 1331 q 586 1326 603 1331 q 557 1308 569 1322 q 581 1288 572 1301 q 590 1254 590 1274 q 572 1209 590 1228 q 522 1190 553 1190 q 480 1206 496 1190 q 464 1246 464 1221 q 485 1297 464 1275 q 538 1332 507 1318 q 579 1346 553 1339 q 644 1353 606 1353 q 747 1333 703 1353 q 790 1263 790 1313 q 773 1210 790 1231 q 729 1175 756 1190 q 676 1143 703 1160 q 630 1103 650 1126 q 606 1042 610 1079 l 578 1042 z "},"Ē":{"ha":847,"x_min":-49,"x_max":892,"o":"m 278 481 l 286 508 l 526 508 l 518 481 l 278 481 m 419 508 q 494 527 465 508 q 542 575 524 546 q 574 635 561 604 q 597 692 586 667 l 629 692 q 592 571 603 613 q 572 494 582 529 q 560 447 567 472 q 547 385 554 421 q 528 297 539 350 l 496 297 q 504 363 500 331 q 503 422 508 396 q 478 465 499 449 q 411 481 457 481 l 419 508 m 788 733 q 799 863 801 815 q 765 931 796 911 q 660 951 733 951 l 558 951 q 485 944 511 951 q 444 912 460 936 q 415 836 429 888 l 231 147 q 219 72 217 97 q 243 40 221 47 q 313 32 265 32 l 414 32 q 553 56 501 32 q 639 133 604 79 q 707 278 674 186 l 739 278 q 724 233 732 260 q 708 178 715 207 q 690 102 701 151 q 671 0 679 53 q 511 3 600 3 q 353 4 422 4 q 274 4 322 4 q 171 3 226 4 q 58 2 115 3 q -49 0 1 1 l -42 28 q 32 39 6 31 q 73 72 58 47 q 101 147 88 97 l 286 836 q 298 912 300 888 q 274 945 296 936 q 206 956 253 954 l 213 983 q 321 981 264 982 q 433 980 378 981 q 537 979 489 979 q 615 979 585 979 q 753 980 676 979 q 892 983 831 981 q 860 889 874 935 q 839 819 846 843 q 827 772 832 794 q 819 733 822 749 l 788 733 m 838 1172 l 829 1138 l 340 1138 l 349 1172 l 838 1172 z "},"Ę":{"ha":847,"x_min":-49,"x_max":892,"o":"m 278 481 l 286 508 l 526 508 l 518 481 l 278 481 m 419 508 q 494 527 465 508 q 542 575 524 546 q 574 635 561 604 q 597 692 586 667 l 629 692 q 592 571 603 613 q 572 494 582 529 q 560 447 567 472 q 547 385 554 421 q 528 297 539 350 l 496 297 q 504 363 500 331 q 503 422 508 396 q 478 465 499 449 q 411 481 457 481 l 419 508 m 788 733 q 799 863 801 815 q 765 931 796 911 q 660 951 733 951 l 558 951 q 485 944 511 951 q 444 912 460 936 q 415 836 429 888 l 231 147 q 219 72 217 97 q 243 40 221 47 q 313 32 265 32 l 414 32 q 553 56 501 32 q 639 133 604 79 q 707 278 674 186 l 739 278 q 724 233 732 260 q 708 178 715 207 q 690 102 701 151 q 671 0 679 53 q 511 3 600 3 q 353 4 422 4 q 274 4 322 4 q 171 3 226 4 q 58 2 115 3 q -49 0 1 1 l -42 28 q 32 39 6 31 q 73 72 58 47 q 101 147 88 97 l 286 836 q 298 912 300 888 q 274 945 296 936 q 206 956 253 954 l 213 983 q 321 981 264 982 q 433 980 378 981 q 537 979 489 979 q 615 979 585 979 q 753 980 676 979 q 892 983 831 981 q 860 889 874 935 q 839 819 846 843 q 827 772 832 794 q 819 733 822 749 l 788 733 m 665 4 q 592 -25 631 -6 q 528 -74 554 -44 q 501 -143 501 -104 q 556 -194 501 -194 q 614 -183 583 -194 q 663 -158 644 -172 l 678 -182 q 589 -242 635 -224 q 499 -261 543 -261 q 422 -239 447 -261 q 396 -181 396 -217 q 432 -97 396 -133 q 519 -35 468 -61 q 613 4 569 -10 l 665 4 z "},"Ẽ":{"ha":847,"x_min":-49,"x_max":897,"o":"m 278 481 l 286 508 l 526 508 l 518 481 l 278 481 m 419 508 q 494 527 465 508 q 542 575 524 546 q 574 635 561 604 q 597 692 586 667 l 629 692 q 592 571 603 613 q 572 494 582 529 q 560 447 567 472 q 547 385 554 421 q 528 297 539 350 l 496 297 q 504 363 500 331 q 503 422 508 396 q 478 465 499 449 q 411 481 457 481 l 419 508 m 788 733 q 799 863 801 815 q 765 931 796 911 q 660 951 733 951 l 558 951 q 485 944 511 951 q 444 912 460 936 q 415 836 429 888 l 231 147 q 219 72 217 97 q 243 40 221 47 q 313 32 265 32 l 414 32 q 553 56 501 32 q 639 133 604 79 q 707 278 674 186 l 739 278 q 724 233 732 260 q 708 178 715 207 q 690 102 701 151 q 671 0 679 53 q 511 3 600 3 q 353 4 422 4 q 274 4 322 4 q 171 3 226 4 q 58 2 115 3 q -49 0 1 1 l -42 28 q 32 39 6 31 q 73 72 58 47 q 101 147 88 97 l 286 836 q 298 912 300 888 q 274 945 296 936 q 206 956 253 954 l 213 983 q 321 981 264 982 q 433 980 378 981 q 537 979 489 979 q 615 979 585 979 q 753 980 676 979 q 892 983 831 981 q 860 889 874 935 q 839 819 846 843 q 827 772 832 794 q 819 733 822 749 l 788 733 m 535 1243 q 613 1228 582 1243 q 666 1192 643 1213 q 714 1157 689 1172 q 775 1142 739 1142 q 824 1160 800 1142 q 872 1222 849 1179 l 897 1215 q 815 1106 865 1139 q 717 1072 765 1072 q 639 1088 669 1072 q 585 1123 608 1103 q 538 1158 563 1143 q 476 1174 513 1174 q 427 1156 451 1174 q 379 1093 403 1138 l 354 1100 q 436 1210 386 1178 q 535 1243 486 1243 z "},"Ʒ":{"ha":825,"x_min":-47,"x_max":889,"o":"m 889 983 l 882 956 l 500 518 l 515 547 q 662 455 606 513 q 718 301 718 397 q 665 136 718 208 q 519 22 611 64 q 308 -19 426 -19 q 158 -1 219 -19 q 72 32 97 18 q 53 45 63 39 q 32 51 43 51 q 6 35 17 51 q -15 -10 -4 19 l -47 -10 q -24 59 -36 19 q 4 163 -12 99 q 42 324 21 226 l 74 324 q 75 157 56 228 q 152 47 94 86 q 303 8 210 8 q 451 50 388 8 q 552 159 515 92 q 589 303 589 226 q 544 458 589 401 q 413 542 499 515 l 419 569 l 754 951 l 463 951 q 353 938 397 951 q 276 894 308 924 q 220 814 244 864 q 171 692 196 764 l 139 692 q 166 785 154 736 q 188 886 178 835 q 206 983 199 938 q 317 981 257 982 q 439 979 378 979 q 550 979 500 979 q 721 980 629 979 q 889 983 813 981 z "},"Ǯ":{"ha":825,"x_min":-47,"x_max":889,"o":"m 889 983 l 882 956 l 500 518 l 515 547 q 662 455 606 513 q 718 301 718 397 q 665 136 718 208 q 519 22 611 64 q 308 -19 426 -19 q 158 -1 219 -19 q 72 32 97 18 q 53 45 63 39 q 32 51 43 51 q 6 35 17 51 q -15 -10 -4 19 l -47 -10 q -24 59 -36 19 q 4 163 -12 99 q 42 324 21 226 l 74 324 q 75 157 56 228 q 152 47 94 86 q 303 8 210 8 q 451 50 388 8 q 552 159 515 92 q 589 303 589 226 q 544 458 589 401 q 413 542 499 515 l 419 569 l 754 951 l 463 951 q 353 938 397 951 q 276 894 308 924 q 220 814 244 864 q 171 692 196 764 l 139 692 q 166 785 154 736 q 188 886 178 835 q 206 983 199 938 q 317 981 257 982 q 439 979 378 979 q 550 979 500 979 q 721 980 629 979 q 889 983 813 981 m 583 1189 q 716 1240 638 1213 q 869 1283 794 1267 l 876 1264 q 689 1185 775 1233 q 550 1083 603 1136 l 525 1083 q 447 1190 490 1144 q 332 1264 403 1236 l 338 1283 q 443 1257 401 1272 q 517 1224 485 1242 q 583 1189 550 1207 z "},"F":{"ha":786,"x_min":-49,"x_max":892,"o":"m 275 467 l 282 494 l 560 494 l 553 467 l 275 467 m 776 692 q 792 845 793 789 q 755 926 790 901 q 632 951 719 951 l 558 951 q 485 944 511 951 q 444 912 460 936 q 415 836 429 888 l 231 147 q 221 72 217 97 q 253 39 225 47 q 339 28 282 31 l 332 0 q 240 3 296 3 q 128 4 185 4 q 27 3 74 4 q -49 0 -19 3 l -42 28 q 32 39 6 31 q 73 72 58 47 q 101 147 88 97 l 286 836 q 298 912 300 888 q 274 945 296 936 q 206 956 253 954 l 213 983 q 321 981 264 982 q 433 980 378 981 q 537 979 489 979 q 615 979 585 979 q 753 980 676 979 q 892 983 831 981 q 858 881 874 931 q 835 806 842 832 q 819 743 825 772 q 808 692 813 714 l 776 692 m 425 494 q 500 513 471 494 q 549 561 529 532 q 581 622 568 590 q 603 678 593 653 l 635 678 q 598 557 608 599 q 578 481 588 515 q 560 404 569 446 q 533 283 550 363 l 501 283 q 510 349 506 317 q 510 408 514 382 q 485 451 506 435 q 418 467 464 467 l 425 494 z "},"G":{"ha":979,"x_min":69,"x_max":1015,"o":"m 439 8 q 531 23 489 8 q 597 51 572 38 q 641 91 628 69 q 661 139 654 113 l 693 261 q 705 346 708 318 q 674 383 701 374 q 589 394 647 393 l 596 422 q 654 420 621 421 q 724 419 688 419 q 790 418 760 418 q 874 419 836 418 q 936 422 911 421 l 929 394 q 881 385 899 393 q 852 351 864 376 q 826 275 840 326 l 753 0 l 725 0 q 728 51 731 24 q 708 79 726 79 q 690 75 700 79 q 656 56 681 71 q 544 1 601 21 q 419 -19 488 -19 q 159 64 249 -19 q 69 299 69 147 q 98 492 69 393 q 179 682 126 590 q 307 846 232 774 q 476 960 382 918 q 678 1003 569 1003 q 817 976 768 1003 q 906 913 867 950 q 944 906 926 892 q 985 983 963 919 l 1015 983 q 972 852 994 929 q 926 664 950 775 l 896 664 q 901 717 899 692 q 903 768 903 743 q 899 822 903 797 q 883 869 894 847 q 797 949 854 921 q 669 978 739 978 q 502 928 576 978 q 371 798 428 879 q 276 620 314 717 q 218 427 238 524 q 199 253 199 331 q 258 68 199 128 q 439 8 317 8 z "},"Ǵ":{"ha":979,"x_min":69,"x_max":1035,"o":"m 439 8 q 531 23 489 8 q 597 51 572 38 q 641 91 628 69 q 661 139 654 113 l 693 261 q 705 346 708 318 q 674 383 701 374 q 589 394 647 393 l 596 422 q 654 420 621 421 q 724 419 688 419 q 790 418 760 418 q 874 419 836 418 q 936 422 911 421 l 929 394 q 881 385 899 393 q 852 351 864 376 q 826 275 840 326 l 753 0 l 725 0 q 728 51 731 24 q 708 79 726 79 q 690 75 700 79 q 656 56 681 71 q 544 1 601 21 q 419 -19 488 -19 q 159 64 249 -19 q 69 299 69 147 q 98 492 69 393 q 179 682 126 590 q 307 846 232 774 q 476 960 382 918 q 678 1003 569 1003 q 817 976 768 1003 q 906 913 867 950 q 944 906 926 892 q 985 983 963 919 l 1015 983 q 972 852 994 929 q 926 664 950 775 l 896 664 q 901 717 899 692 q 903 768 903 743 q 899 822 903 797 q 883 869 894 847 q 797 949 854 921 q 669 978 739 978 q 502 928 576 978 q 371 798 428 879 q 276 620 314 717 q 218 427 238 524 q 199 253 199 331 q 258 68 199 128 q 439 8 317 8 m 661 1088 q 783 1174 735 1138 q 866 1238 831 1211 q 933 1285 901 1265 q 966 1298 947 1293 q 1001 1299 985 1303 q 1025 1278 1018 1296 q 1017 1235 1035 1256 q 979 1203 1000 1214 q 906 1169 947 1185 q 807 1133 864 1154 q 671 1072 750 1111 l 661 1088 z "},"Ğ":{"ha":979,"x_min":69,"x_max":1033,"o":"m 439 8 q 531 23 489 8 q 597 51 572 38 q 641 91 628 69 q 661 139 654 113 l 693 261 q 705 346 708 318 q 674 383 701 374 q 589 394 647 393 l 596 422 q 654 420 621 421 q 724 419 688 419 q 790 418 760 418 q 874 419 836 418 q 936 422 911 421 l 929 394 q 881 385 899 393 q 852 351 864 376 q 826 275 840 326 l 753 0 l 725 0 q 728 51 731 24 q 708 79 726 79 q 690 75 700 79 q 656 56 681 71 q 544 1 601 21 q 419 -19 488 -19 q 159 64 249 -19 q 69 299 69 147 q 98 492 69 393 q 179 682 126 590 q 307 846 232 774 q 476 960 382 918 q 678 1003 569 1003 q 817 976 768 1003 q 906 913 867 950 q 944 906 926 892 q 985 983 963 919 l 1015 983 q 972 852 994 929 q 926 664 950 775 l 896 664 q 901 717 899 692 q 903 768 903 743 q 899 822 903 797 q 883 869 894 847 q 797 949 854 921 q 669 978 739 978 q 502 928 576 978 q 371 798 428 879 q 276 620 314 717 q 218 427 238 524 q 199 253 199 331 q 258 68 199 128 q 439 8 317 8 m 713 1179 q 869 1200 785 1179 q 1019 1260 953 1221 l 1033 1244 q 938 1172 997 1208 q 813 1110 879 1135 q 689 1086 747 1086 q 585 1108 629 1086 q 515 1166 542 1129 q 479 1247 489 1203 l 501 1254 q 587 1195 538 1211 q 713 1179 636 1179 z "},"Ǧ":{"ha":979,"x_min":69,"x_max":1019,"o":"m 439 8 q 531 23 489 8 q 597 51 572 38 q 641 91 628 69 q 661 139 654 113 l 693 261 q 705 346 708 318 q 674 383 701 374 q 589 394 647 393 l 596 422 q 654 420 621 421 q 724 419 688 419 q 790 418 760 418 q 874 419 836 418 q 936 422 911 421 l 929 394 q 881 385 899 393 q 852 351 864 376 q 826 275 840 326 l 753 0 l 725 0 q 728 51 731 24 q 708 79 726 79 q 690 75 700 79 q 656 56 681 71 q 544 1 601 21 q 419 -19 488 -19 q 159 64 249 -19 q 69 299 69 147 q 98 492 69 393 q 179 682 126 590 q 307 846 232 774 q 476 960 382 918 q 678 1003 569 1003 q 817 976 768 1003 q 906 913 867 950 q 944 906 926 892 q 985 983 963 919 l 1015 983 q 972 852 994 929 q 926 664 950 775 l 896 664 q 901 717 899 692 q 903 768 903 743 q 899 822 903 797 q 883 869 894 847 q 797 949 854 921 q 669 978 739 978 q 502 928 576 978 q 371 798 428 879 q 276 620 314 717 q 218 427 238 524 q 199 253 199 331 q 258 68 199 128 q 439 8 317 8 m 726 1189 q 859 1240 781 1213 q 1013 1283 938 1267 l 1019 1264 q 832 1185 918 1233 q 693 1083 746 1136 l 668 1083 q 590 1190 633 1144 q 475 1264 546 1236 l 481 1283 q 586 1257 544 1272 q 660 1224 628 1242 q 726 1189 693 1207 z "},"Ĝ":{"ha":979,"x_min":69,"x_max":1015,"o":"m 439 8 q 531 23 489 8 q 597 51 572 38 q 641 91 628 69 q 661 139 654 113 l 693 261 q 705 346 708 318 q 674 383 701 374 q 589 394 647 393 l 596 422 q 654 420 621 421 q 724 419 688 419 q 790 418 760 418 q 874 419 836 418 q 936 422 911 421 l 929 394 q 881 385 899 393 q 852 351 864 376 q 826 275 840 326 l 753 0 l 725 0 q 728 51 731 24 q 708 79 726 79 q 690 75 700 79 q 656 56 681 71 q 544 1 601 21 q 419 -19 488 -19 q 159 64 249 -19 q 69 299 69 147 q 98 492 69 393 q 179 682 126 590 q 307 846 232 774 q 476 960 382 918 q 678 1003 569 1003 q 817 976 768 1003 q 906 913 867 950 q 944 906 926 892 q 985 983 963 919 l 1015 983 q 972 852 994 929 q 926 664 950 775 l 896 664 q 901 717 899 692 q 903 768 903 743 q 899 822 903 797 q 883 869 894 847 q 797 949 854 921 q 669 978 739 978 q 502 928 576 978 q 371 798 428 879 q 276 620 314 717 q 218 427 238 524 q 199 253 199 331 q 258 68 199 128 q 439 8 317 8 m 697 1167 q 565 1117 643 1144 q 411 1072 486 1089 l 404 1092 q 592 1172 506 1124 q 731 1272 678 1219 l 756 1272 q 835 1166 792 1213 q 949 1092 878 1119 l 943 1072 q 838 1099 881 1085 q 763 1131 796 1114 q 697 1167 731 1149 z "},"Ģ":{"ha":979,"x_min":69,"x_max":1015,"o":"m 439 8 q 531 23 489 8 q 597 51 572 38 q 641 91 628 69 q 661 139 654 113 l 693 261 q 705 346 708 318 q 674 383 701 374 q 589 394 647 393 l 596 422 q 654 420 621 421 q 724 419 688 419 q 790 418 760 418 q 874 419 836 418 q 936 422 911 421 l 929 394 q 881 385 899 393 q 852 351 864 376 q 826 275 840 326 l 753 0 l 725 0 q 728 51 731 24 q 708 79 726 79 q 690 75 700 79 q 656 56 681 71 q 544 1 601 21 q 419 -19 488 -19 q 159 64 249 -19 q 69 299 69 147 q 98 492 69 393 q 179 682 126 590 q 307 846 232 774 q 476 960 382 918 q 678 1003 569 1003 q 817 976 768 1003 q 906 913 867 950 q 944 906 926 892 q 985 983 963 919 l 1015 983 q 972 852 994 929 q 926 664 950 775 l 896 664 q 901 717 899 692 q 903 768 903 743 q 899 822 903 797 q 883 869 894 847 q 797 949 854 921 q 669 978 739 978 q 502 928 576 978 q 371 798 428 879 q 276 620 314 717 q 218 427 238 524 q 199 253 199 331 q 258 68 199 128 q 439 8 317 8 m 407 -96 q 463 -119 443 -96 q 483 -176 483 -142 q 458 -263 483 -221 q 347 -335 433 -306 l 338 -311 q 403 -278 369 -301 q 440 -222 438 -256 q 414 -238 431 -232 q 379 -244 397 -244 q 335 -229 353 -244 q 317 -186 317 -214 q 340 -126 317 -156 q 407 -96 364 -96 z "},"Ġ":{"ha":979,"x_min":69,"x_max":1015,"o":"m 439 8 q 531 23 489 8 q 597 51 572 38 q 641 91 628 69 q 661 139 654 113 l 693 261 q 705 346 708 318 q 674 383 701 374 q 589 394 647 393 l 596 422 q 654 420 621 421 q 724 419 688 419 q 790 418 760 418 q 874 419 836 418 q 936 422 911 421 l 929 394 q 881 385 899 393 q 852 351 864 376 q 826 275 840 326 l 753 0 l 725 0 q 728 51 731 24 q 708 79 726 79 q 690 75 700 79 q 656 56 681 71 q 544 1 601 21 q 419 -19 488 -19 q 159 64 249 -19 q 69 299 69 147 q 98 492 69 393 q 179 682 126 590 q 307 846 232 774 q 476 960 382 918 q 678 1003 569 1003 q 817 976 768 1003 q 906 913 867 950 q 944 906 926 892 q 985 983 963 919 l 1015 983 q 972 852 994 929 q 926 664 950 775 l 896 664 q 901 717 899 692 q 903 768 903 743 q 899 822 903 797 q 883 869 894 847 q 797 949 854 921 q 669 978 739 978 q 502 928 576 978 q 371 798 428 879 q 276 620 314 717 q 218 427 238 524 q 199 253 199 331 q 258 68 199 128 q 439 8 317 8 m 642 1146 q 672 1216 642 1182 q 744 1250 701 1250 q 796 1229 776 1250 q 815 1176 815 1208 q 785 1106 815 1139 q 711 1072 756 1072 q 661 1094 681 1072 q 642 1146 642 1115 z "},"Ǥ":{"ha":979,"x_min":69,"x_max":1015,"o":"m 419 -19 q 159 64 249 -19 q 69 299 69 147 q 98 492 69 393 q 179 682 126 590 q 307 846 232 774 q 476 960 382 918 q 678 1003 569 1003 q 817 976 768 1003 q 906 913 867 950 q 944 906 926 892 q 985 983 963 919 l 1015 983 q 972 852 994 929 q 926 664 950 775 l 896 664 q 901 717 899 692 q 903 768 903 743 q 899 822 903 797 q 883 869 894 847 q 797 949 854 921 q 669 978 739 978 q 502 928 576 978 q 371 798 428 879 q 276 620 314 717 q 218 427 238 524 q 199 253 199 331 q 258 68 199 128 q 439 8 317 8 q 531 23 489 8 q 597 51 572 38 q 641 91 628 69 q 661 139 654 113 l 697 275 q 709 360 713 332 q 678 397 706 388 q 593 408 651 407 l 600 436 q 658 434 625 435 q 728 433 692 433 q 794 432 764 432 q 878 433 840 432 q 940 436 915 435 l 933 408 q 885 399 903 407 q 856 365 868 390 q 831 289 844 340 l 753 0 l 725 0 q 728 51 731 24 q 708 79 726 79 q 690 75 700 79 q 656 56 681 71 q 544 1 601 21 q 419 -19 488 -19 m 525 233 l 531 261 l 954 261 l 949 233 l 525 233 z "},"H":{"ha":1049,"x_min":-46,"x_max":1139,"o":"m 293 481 l 303 508 l 793 508 l 782 481 l 293 481 m 860 836 q 872 912 874 888 q 847 945 869 936 q 778 956 825 954 l 785 983 q 865 981 817 982 q 960 979 913 979 q 1061 981 1014 979 q 1139 983 1108 982 l 1132 956 q 1058 945 1085 954 q 1017 912 1032 936 q 989 836 1003 888 l 806 147 q 794 72 793 97 q 818 39 796 47 q 888 28 840 31 l 882 0 q 806 3 853 3 q 704 4 758 4 q 608 3 657 4 q 528 0 560 3 l 533 28 q 607 39 581 31 q 649 72 633 47 q 676 147 664 97 l 860 836 m 231 147 q 219 72 218 97 q 243 39 221 47 q 313 28 265 31 l 307 0 q 227 3 275 3 q 131 4 179 4 q 31 3 76 4 q -46 0 -15 3 l -39 28 q 33 39 7 31 q 74 72 58 47 q 101 147 89 97 l 285 836 q 296 912 299 888 q 272 945 293 936 q 203 956 250 954 l 210 983 q 285 981 238 982 q 386 979 332 979 q 483 981 435 979 q 564 983 531 982 l 557 956 q 483 945 510 954 q 442 912 457 936 q 414 836 428 888 l 231 147 z "},"Ħ":{"ha":1049,"x_min":-46,"x_max":1139,"o":"m 293 481 l 303 508 l 793 508 l 782 481 l 293 481 m 860 836 q 872 912 874 888 q 847 945 869 936 q 778 956 825 954 l 785 983 q 865 981 817 982 q 960 979 913 979 q 1061 981 1014 979 q 1139 983 1108 982 l 1132 956 q 1058 945 1085 954 q 1017 912 1032 936 q 989 836 1003 888 l 806 147 q 794 72 793 97 q 818 39 796 47 q 888 28 840 31 l 882 0 q 806 3 853 3 q 704 4 758 4 q 608 3 657 4 q 528 0 560 3 l 533 28 q 607 39 581 31 q 649 72 633 47 q 676 147 664 97 l 860 836 m 231 147 q 219 72 218 97 q 243 39 221 47 q 313 28 265 31 l 307 0 q 227 3 275 3 q 131 4 179 4 q 31 3 76 4 q -46 0 -15 3 l -39 28 q 33 39 7 31 q 74 72 58 47 q 101 147 89 97 l 285 836 q 296 912 299 888 q 272 945 293 936 q 203 956 250 954 l 210 983 q 285 981 238 982 q 386 979 332 979 q 483 981 435 979 q 564 983 531 982 l 557 956 q 483 945 510 954 q 442 912 457 936 q 414 836 428 888 l 231 147 m 1135 740 l 1128 713 l 82 713 l 89 740 l 1135 740 z "},"Ȟ":{"ha":1049,"x_min":-46,"x_max":1139,"o":"m 293 481 l 303 508 l 793 508 l 782 481 l 293 481 m 860 836 q 872 912 874 888 q 847 945 869 936 q 778 956 825 954 l 785 983 q 865 981 817 982 q 960 979 913 979 q 1061 981 1014 979 q 1139 983 1108 982 l 1132 956 q 1058 945 1085 954 q 1017 912 1032 936 q 989 836 1003 888 l 806 147 q 794 72 793 97 q 818 39 796 47 q 888 28 840 31 l 882 0 q 806 3 853 3 q 704 4 758 4 q 608 3 657 4 q 528 0 560 3 l 533 28 q 607 39 581 31 q 649 72 633 47 q 676 147 664 97 l 860 836 m 231 147 q 219 72 218 97 q 243 39 221 47 q 313 28 265 31 l 307 0 q 227 3 275 3 q 131 4 179 4 q 31 3 76 4 q -46 0 -15 3 l -39 28 q 33 39 7 31 q 74 72 58 47 q 101 147 89 97 l 285 836 q 296 912 299 888 q 272 945 293 936 q 203 956 250 954 l 210 983 q 285 981 238 982 q 386 979 332 979 q 483 981 435 979 q 564 983 531 982 l 557 956 q 483 945 510 954 q 442 912 457 936 q 414 836 428 888 l 231 147 m 725 1189 q 858 1240 779 1213 q 1011 1283 936 1267 l 1018 1264 q 831 1185 917 1233 q 692 1083 744 1136 l 667 1083 q 588 1190 632 1144 q 474 1264 544 1236 l 479 1283 q 585 1257 543 1272 q 659 1224 626 1242 q 725 1189 692 1207 z "},"Ĥ":{"ha":1049,"x_min":-46,"x_max":1139,"o":"m 293 481 l 303 508 l 793 508 l 782 481 l 293 481 m 860 836 q 872 912 874 888 q 847 945 869 936 q 778 956 825 954 l 785 983 q 865 981 817 982 q 960 979 913 979 q 1061 981 1014 979 q 1139 983 1108 982 l 1132 956 q 1058 945 1085 954 q 1017 912 1032 936 q 989 836 1003 888 l 806 147 q 794 72 793 97 q 818 39 796 47 q 888 28 840 31 l 882 0 q 806 3 853 3 q 704 4 758 4 q 608 3 657 4 q 528 0 560 3 l 533 28 q 607 39 581 31 q 649 72 633 47 q 676 147 664 97 l 860 836 m 231 147 q 219 72 218 97 q 243 39 221 47 q 313 28 265 31 l 307 0 q 227 3 275 3 q 131 4 179 4 q 31 3 76 4 q -46 0 -15 3 l -39 28 q 33 39 7 31 q 74 72 58 47 q 101 147 89 97 l 285 836 q 296 912 299 888 q 272 945 293 936 q 203 956 250 954 l 210 983 q 285 981 238 982 q 386 979 332 979 q 483 981 435 979 q 564 983 531 982 l 557 956 q 483 945 510 954 q 442 912 457 936 q 414 836 428 888 l 231 147 m 696 1167 q 563 1117 642 1144 q 410 1072 485 1089 l 403 1092 q 590 1172 504 1124 q 729 1272 676 1219 l 754 1272 q 833 1166 790 1213 q 947 1092 876 1119 l 942 1072 q 837 1099 879 1085 q 762 1131 794 1114 q 696 1167 729 1149 z "},"I":{"ha":474,"x_min":-46,"x_max":564,"o":"m 231 147 q 219 72 218 97 q 243 39 221 47 q 313 28 265 31 l 307 0 q 227 3 275 3 q 131 4 179 4 q 31 3 76 4 q -46 0 -15 3 l -39 28 q 33 39 7 31 q 74 72 58 47 q 101 147 89 97 l 285 836 q 296 912 299 888 q 272 945 293 936 q 203 956 250 954 l 210 983 q 285 981 238 982 q 386 979 332 979 q 483 981 435 979 q 564 983 531 982 l 557 956 q 483 945 510 954 q 442 912 457 936 q 414 836 428 888 l 231 147 z "},"Ĳ":{"ha":1108,"x_min":54,"x_max":1265,"o":"m 1086 508 q 1083 494 1086 508 q 1081 481 1081 481 l 635 481 q 638 494 635 481 q 640 508 640 508 l 1086 508 m 418 718 q 510 732 463 718 q 599 772 558 746 l 610 751 q 507 706 564 721 q 403 690 450 690 q 322 697 365 690 q 239 722 278 704 q 175 770 200 739 q 150 850 150 801 q 176 940 150 900 q 247 1003 201 981 q 350 1026 293 1026 q 473 1011 418 1026 q 578 974 528 996 q 677 931 628 953 q 781 893 726 908 q 901 878 835 878 q 987 885 949 878 q 1063 908 1025 893 q 1144 940 1100 922 q 1199 1008 1172 985 q 1247 1014 1226 1032 q 1248 976 1265 1000 q 1157 925 1231 953 q 1052 808 1094 872 q 981 663 1010 744 q 928 472 951 581 l 843 90 q 783 -83 824 -3 q 678 -212 742 -162 q 528 -261 615 -261 q 456 -253 488 -261 q 405 -227 424 -244 q 383 -185 386 -210 q 402 -128 382 -154 q 457 -103 422 -103 q 499 -119 482 -103 q 518 -158 517 -135 q 504 -202 521 -183 q 465 -232 488 -221 q 488 -237 475 -235 q 514 -239 500 -239 q 608 -202 571 -239 q 667 -102 644 -165 q 707 40 690 -39 q 742 201 724 118 l 786 410 q 842 588 808 514 q 921 717 876 661 q 1019 820 965 772 q 1135 921 1074 868 q 1068 889 1101 904 q 1000 862 1035 874 q 931 844 965 850 q 863 838 896 838 q 722 849 785 838 q 600 876 658 861 q 478 903 542 892 q 338 915 415 915 q 244 894 281 915 q 208 828 208 872 q 243 760 208 785 q 327 727 278 736 q 418 718 376 718 m 365 711 l 494 711 l 331 147 q 318 76 318 101 q 340 40 318 50 q 413 28 363 29 l 407 0 q 327 3 375 3 q 231 4 279 4 q 131 3 176 4 q 54 0 85 3 l 61 28 q 132 39 107 31 q 172 72 157 47 q 201 147 188 97 l 365 711 z "},"Í":{"ha":474,"x_min":-46,"x_max":749,"o":"m 231 147 q 219 72 218 97 q 243 39 221 47 q 313 28 265 31 l 307 0 q 227 3 275 3 q 131 4 179 4 q 31 3 76 4 q -46 0 -15 3 l -39 28 q 33 39 7 31 q 74 72 58 47 q 101 147 89 97 l 285 836 q 296 912 299 888 q 272 945 293 936 q 203 956 250 954 l 210 983 q 285 981 238 982 q 386 979 332 979 q 483 981 435 979 q 564 983 531 982 l 557 956 q 483 945 510 954 q 442 912 457 936 q 414 836 428 888 l 231 147 m 375 1088 q 497 1174 449 1138 q 580 1238 544 1211 q 647 1285 615 1265 q 680 1298 661 1293 q 715 1299 699 1303 q 739 1278 732 1296 q 731 1235 749 1256 q 693 1203 714 1214 q 619 1169 661 1185 q 521 1133 578 1154 q 385 1072 464 1111 l 375 1088 z "},"Ĭ":{"ha":474,"x_min":-46,"x_max":747,"o":"m 231 147 q 219 72 218 97 q 243 39 221 47 q 313 28 265 31 l 307 0 q 227 3 275 3 q 131 4 179 4 q 31 3 76 4 q -46 0 -15 3 l -39 28 q 33 39 7 31 q 74 72 58 47 q 101 147 89 97 l 285 836 q 296 912 299 888 q 272 945 293 936 q 203 956 250 954 l 210 983 q 285 981 238 982 q 386 979 332 979 q 483 981 435 979 q 564 983 531 982 l 557 956 q 483 945 510 954 q 442 912 457 936 q 414 836 428 888 l 231 147 m 426 1179 q 583 1200 499 1179 q 733 1260 667 1221 l 747 1244 q 652 1172 711 1208 q 527 1110 593 1135 q 403 1086 461 1086 q 299 1108 343 1086 q 229 1166 256 1129 q 193 1247 203 1203 l 215 1254 q 301 1195 251 1211 q 426 1179 350 1179 z "},"Î":{"ha":474,"x_min":-46,"x_max":663,"o":"m 231 147 q 219 72 218 97 q 243 39 221 47 q 313 28 265 31 l 307 0 q 227 3 275 3 q 131 4 179 4 q 31 3 76 4 q -46 0 -15 3 l -39 28 q 33 39 7 31 q 74 72 58 47 q 101 147 89 97 l 285 836 q 296 912 299 888 q 272 945 293 936 q 203 956 250 954 l 210 983 q 285 981 238 982 q 386 979 332 979 q 483 981 435 979 q 564 983 531 982 l 557 956 q 483 945 510 954 q 442 912 457 936 q 414 836 428 888 l 231 147 m 411 1167 q 278 1117 357 1144 q 125 1072 200 1089 l 118 1092 q 306 1172 219 1124 q 444 1272 392 1219 l 469 1272 q 549 1166 506 1213 q 663 1092 592 1119 l 657 1072 q 552 1099 594 1085 q 477 1131 510 1114 q 411 1167 444 1149 z "},"Ï":{"ha":474,"x_min":-46,"x_max":658,"o":"m 231 147 q 219 72 218 97 q 243 39 221 47 q 313 28 265 31 l 307 0 q 227 3 275 3 q 131 4 179 4 q 31 3 76 4 q -46 0 -15 3 l -39 28 q 33 39 7 31 q 74 72 58 47 q 101 147 89 97 l 285 836 q 296 912 299 888 q 272 945 293 936 q 203 956 250 954 l 210 983 q 285 981 238 982 q 386 979 332 979 q 483 981 435 979 q 564 983 531 982 l 557 956 q 483 945 510 954 q 442 912 457 936 q 414 836 428 888 l 231 147 m 201 1143 q 229 1204 201 1175 q 294 1233 257 1233 q 344 1213 324 1233 q 364 1164 364 1193 q 351 1120 364 1142 q 317 1085 339 1099 q 271 1072 296 1072 q 221 1092 240 1072 q 201 1143 201 1113 m 496 1143 q 524 1204 496 1175 q 589 1233 551 1233 q 638 1213 618 1233 q 658 1164 658 1193 q 646 1120 658 1142 q 612 1085 633 1099 q 565 1072 590 1072 q 515 1092 535 1072 q 496 1143 496 1113 z "},"İ":{"ha":474,"x_min":-46,"x_max":564,"o":"m 231 147 q 219 72 218 97 q 243 39 221 47 q 313 28 265 31 l 307 0 q 227 3 275 3 q 131 4 179 4 q 31 3 76 4 q -46 0 -15 3 l -39 28 q 33 39 7 31 q 74 72 58 47 q 101 147 89 97 l 285 836 q 296 912 299 888 q 272 945 293 936 q 203 956 250 954 l 210 983 q 285 981 238 982 q 386 979 332 979 q 483 981 435 979 q 564 983 531 982 l 557 956 q 483 945 510 954 q 442 912 457 936 q 414 836 428 888 l 231 147 m 356 1146 q 385 1216 356 1182 q 458 1250 415 1250 q 510 1229 490 1250 q 529 1176 529 1208 q 499 1106 529 1139 q 425 1072 469 1072 q 375 1094 394 1072 q 356 1146 356 1115 z "},"Ị":{"ha":474,"x_min":-46,"x_max":564,"o":"m 231 147 q 219 72 218 97 q 243 39 221 47 q 313 28 265 31 l 307 0 q 227 3 275 3 q 131 4 179 4 q 31 3 76 4 q -46 0 -15 3 l -39 28 q 33 39 7 31 q 74 72 58 47 q 101 147 89 97 l 285 836 q 296 912 299 888 q 272 945 293 936 q 203 956 250 954 l 210 983 q 285 981 238 982 q 386 979 332 979 q 483 981 435 979 q 564 983 531 982 l 557 956 q 483 945 510 954 q 442 912 457 936 q 414 836 428 888 l 231 147 m 88 -251 q 38 -233 57 -251 q 18 -186 18 -215 q 44 -123 18 -150 q 113 -96 71 -96 q 164 -115 146 -96 q 182 -161 182 -133 q 153 -227 182 -203 q 88 -251 124 -251 z "},"Ì":{"ha":474,"x_min":-46,"x_max":564,"o":"m 231 147 q 219 72 218 97 q 243 39 221 47 q 313 28 265 31 l 307 0 q 227 3 275 3 q 131 4 179 4 q 31 3 76 4 q -46 0 -15 3 l -39 28 q 33 39 7 31 q 74 72 58 47 q 101 147 89 97 l 285 836 q 296 912 299 888 q 272 945 293 936 q 203 956 250 954 l 210 983 q 285 981 238 982 q 386 979 332 979 q 483 981 435 979 q 564 983 531 982 l 557 956 q 483 945 510 954 q 442 912 457 936 q 414 836 428 888 l 231 147 m 436 1068 q 340 1143 381 1114 q 269 1193 299 1172 q 217 1235 239 1214 q 193 1273 203 1250 q 200 1317 183 1296 q 246 1329 218 1338 q 292 1301 274 1321 q 332 1250 313 1281 q 379 1178 351 1219 q 450 1082 407 1138 l 436 1068 z "},"Ỉ":{"ha":474,"x_min":-46,"x_max":599,"o":"m 231 147 q 219 72 218 97 q 243 39 221 47 q 313 28 265 31 l 307 0 q 227 3 275 3 q 131 4 179 4 q 31 3 76 4 q -46 0 -15 3 l -39 28 q 33 39 7 31 q 74 72 58 47 q 101 147 89 97 l 285 836 q 296 912 299 888 q 272 945 293 936 q 203 956 250 954 l 210 983 q 285 981 238 982 q 386 979 332 979 q 483 981 435 979 q 564 983 531 982 l 557 956 q 483 945 510 954 q 442 912 457 936 q 414 836 428 888 l 231 147 m 386 1042 q 409 1111 390 1085 q 449 1158 428 1138 q 487 1200 471 1178 q 503 1258 503 1222 q 483 1313 503 1296 q 426 1331 463 1331 q 394 1326 411 1331 q 365 1308 378 1322 q 390 1288 381 1301 q 399 1254 399 1274 q 380 1209 399 1228 q 331 1190 361 1190 q 288 1206 304 1190 q 272 1246 272 1221 q 294 1297 272 1275 q 346 1332 315 1318 q 388 1346 361 1339 q 453 1353 414 1353 q 555 1333 511 1353 q 599 1263 599 1313 q 581 1210 599 1231 q 538 1175 564 1190 q 485 1143 511 1160 q 438 1103 458 1126 q 414 1042 418 1079 l 386 1042 z "},"Ī":{"ha":474,"x_min":-46,"x_max":646,"o":"m 231 147 q 219 72 218 97 q 243 39 221 47 q 313 28 265 31 l 307 0 q 227 3 275 3 q 131 4 179 4 q 31 3 76 4 q -46 0 -15 3 l -39 28 q 33 39 7 31 q 74 72 58 47 q 101 147 89 97 l 285 836 q 296 912 299 888 q 272 945 293 936 q 203 956 250 954 l 210 983 q 285 981 238 982 q 386 979 332 979 q 483 981 435 979 q 564 983 531 982 l 557 956 q 483 945 510 954 q 442 912 457 936 q 414 836 428 888 l 231 147 m 646 1172 l 638 1138 l 149 1138 l 157 1172 l 646 1172 z "},"Į":{"ha":474,"x_min":-46,"x_max":564,"o":"m 231 147 q 219 72 218 97 q 243 39 221 47 q 313 28 265 31 l 307 0 q 227 3 275 3 q 131 4 179 4 q 31 3 76 4 q -46 0 -15 3 l -39 28 q 33 39 7 31 q 74 72 58 47 q 101 147 89 97 l 285 836 q 296 912 299 888 q 272 945 293 936 q 203 956 250 954 l 210 983 q 285 981 238 982 q 386 979 332 979 q 483 981 435 979 q 564 983 531 982 l 557 956 q 483 945 510 954 q 442 912 457 936 q 414 836 428 888 l 231 147 m 321 4 q 248 -25 286 -6 q 183 -74 210 -44 q 157 -143 157 -104 q 211 -194 157 -194 q 269 -183 239 -194 q 318 -158 300 -172 l 333 -182 q 244 -242 290 -224 q 154 -261 199 -261 q 77 -239 103 -261 q 51 -181 51 -217 q 88 -97 51 -133 q 174 -35 124 -61 q 268 4 225 -10 l 321 4 z "},"Ĩ":{"ha":474,"x_min":-46,"x_max":706,"o":"m 231 147 q 219 72 218 97 q 243 39 221 47 q 313 28 265 31 l 307 0 q 227 3 275 3 q 131 4 179 4 q 31 3 76 4 q -46 0 -15 3 l -39 28 q 33 39 7 31 q 74 72 58 47 q 101 147 89 97 l 285 836 q 296 912 299 888 q 272 945 293 936 q 203 956 250 954 l 210 983 q 285 981 238 982 q 386 979 332 979 q 483 981 435 979 q 564 983 531 982 l 557 956 q 483 945 510 954 q 442 912 457 936 q 414 836 428 888 l 231 147 m 343 1243 q 421 1228 390 1243 q 474 1192 451 1213 q 522 1157 497 1172 q 583 1142 547 1142 q 633 1160 608 1142 q 681 1222 657 1179 l 706 1215 q 624 1106 674 1139 q 525 1072 574 1072 q 447 1088 478 1072 q 394 1123 417 1103 q 346 1158 371 1143 q 285 1174 321 1174 q 235 1156 260 1174 q 188 1093 211 1138 l 163 1100 q 244 1210 194 1178 q 343 1243 294 1243 z "},"J":{"ha":883,"x_min":61,"x_max":1040,"o":"m 779 508 l 775 481 l 329 481 l 333 508 l 779 508 m 632 838 q 541 849 582 838 q 462 876 500 861 q 383 903 424 892 q 290 915 342 915 q 221 891 243 915 q 200 824 199 867 q 228 757 201 782 q 303 722 256 732 q 301 708 303 722 q 299 694 299 694 q 228 719 263 701 q 170 769 193 736 q 146 856 147 803 q 186 978 143 929 q 307 1026 229 1026 q 390 1011 353 1026 q 459 974 426 996 q 524 931 492 953 q 592 893 556 908 q 672 878 628 878 q 797 895 743 878 q 918 940 850 913 q 975 1008 947 985 q 1024 1014 1003 1032 q 1022 976 1040 1000 q 931 925 1004 953 q 736 717 813 846 q 618 426 660 588 l 532 90 q 465 -84 508 -4 q 356 -212 421 -164 q 204 -261 292 -261 q 132 -253 164 -261 q 82 -227 100 -244 q 63 -185 64 -210 q 83 -128 61 -154 q 139 -103 104 -103 q 180 -119 164 -103 q 197 -158 196 -135 q 182 -202 199 -183 q 142 -232 165 -221 q 164 -237 151 -235 q 190 -239 176 -239 q 285 -201 247 -239 q 347 -101 322 -164 q 392 41 372 -37 q 433 201 413 119 l 475 364 q 544 549 501 468 q 644 694 588 629 q 767 813 700 758 q 907 921 833 868 q 839 889 874 904 q 769 862 804 874 q 700 844 735 850 q 632 838 665 838 z "},"Ĵ":{"ha":883,"x_min":61,"x_max":1040,"o":"m 779 508 l 775 481 l 329 481 l 333 508 l 779 508 m 632 838 q 541 849 582 838 q 462 876 500 861 q 383 903 424 892 q 290 915 342 915 q 221 891 243 915 q 200 824 199 867 q 228 757 201 782 q 303 722 256 732 q 301 708 303 722 q 299 694 299 694 q 228 719 263 701 q 170 769 193 736 q 146 856 147 803 q 186 978 143 929 q 307 1026 229 1026 q 390 1011 353 1026 q 459 974 426 996 q 524 931 492 953 q 592 893 556 908 q 672 878 628 878 q 797 895 743 878 q 918 940 850 913 q 975 1008 947 985 q 1024 1014 1003 1032 q 1022 976 1040 1000 q 931 925 1004 953 q 736 717 813 846 q 618 426 660 588 l 532 90 q 465 -84 508 -4 q 356 -212 421 -164 q 204 -261 292 -261 q 132 -253 164 -261 q 82 -227 100 -244 q 63 -185 64 -210 q 83 -128 61 -154 q 139 -103 104 -103 q 180 -119 164 -103 q 197 -158 196 -135 q 182 -202 199 -183 q 142 -232 165 -221 q 164 -237 151 -235 q 190 -239 176 -239 q 285 -201 247 -239 q 347 -101 322 -164 q 392 41 372 -37 q 433 201 413 119 l 475 364 q 544 549 501 468 q 644 694 588 629 q 767 813 700 758 q 907 921 833 868 q 839 889 874 904 q 769 862 804 874 q 700 844 735 850 q 632 838 665 838 m 686 1167 q 553 1117 632 1144 q 400 1072 475 1089 l 393 1092 q 581 1172 494 1124 q 719 1272 667 1219 l 744 1272 q 824 1166 781 1213 q 938 1092 867 1119 l 932 1072 q 827 1099 869 1085 q 752 1131 785 1114 q 686 1167 719 1149 z "},"K":{"ha":938,"x_min":-46,"x_max":985,"o":"m 231 147 q 219 72 218 97 q 243 39 221 47 q 313 28 265 31 l 307 0 q 227 3 275 3 q 131 4 179 4 q 31 3 76 4 q -46 0 -15 3 l -39 28 q 33 39 7 31 q 74 72 58 47 q 101 147 89 97 l 285 836 q 296 912 299 888 q 272 945 293 936 q 203 956 250 954 l 210 983 q 285 981 238 982 q 386 979 332 979 q 483 981 435 979 q 564 983 531 982 l 557 956 q 483 945 510 954 q 442 912 457 936 q 414 836 428 888 l 231 147 m 693 57 q 753 83 729 57 q 796 165 776 110 l 819 236 l 847 236 l 811 129 q 743 17 785 53 q 642 -19 701 -19 q 548 22 576 -19 q 525 142 519 64 l 535 299 q 533 410 539 371 q 512 469 526 449 q 474 507 497 490 l 476 521 q 551 503 517 513 q 610 472 585 493 q 647 406 635 450 q 657 285 660 363 l 651 128 q 656 77 650 97 q 693 57 663 57 m 493 500 q 390 486 417 479 q 363 513 363 493 q 390 539 363 532 q 493 525 417 546 l 493 500 m 838 954 q 792 888 811 931 q 757 796 774 846 q 719 695 740 746 q 667 603 699 644 q 590 535 636 561 q 475 511 543 510 l 478 525 q 600 569 554 532 q 674 663 646 607 q 721 778 701 718 q 761 890 740 839 q 817 971 782 942 q 861 997 840 990 q 900 1003 882 1003 q 967 978 949 1003 q 982 921 985 954 q 972 883 981 904 q 947 847 964 863 q 901 832 929 832 q 858 851 871 832 q 847 892 846 869 q 861 934 849 911 q 892 974 874 957 q 890 974 890 974 q 888 974 889 974 q 859 967 869 972 q 838 954 849 963 z "},"Ǩ":{"ha":938,"x_min":-46,"x_max":985,"o":"m 231 147 q 219 72 218 97 q 243 39 221 47 q 313 28 265 31 l 307 0 q 227 3 275 3 q 131 4 179 4 q 31 3 76 4 q -46 0 -15 3 l -39 28 q 33 39 7 31 q 74 72 58 47 q 101 147 89 97 l 285 836 q 296 912 299 888 q 272 945 293 936 q 203 956 250 954 l 210 983 q 285 981 238 982 q 386 979 332 979 q 483 981 435 979 q 564 983 531 982 l 557 956 q 483 945 510 954 q 442 912 457 936 q 414 836 428 888 l 231 147 m 693 57 q 753 83 729 57 q 796 165 776 110 l 819 236 l 847 236 l 811 129 q 743 17 785 53 q 642 -19 701 -19 q 548 22 576 -19 q 525 142 519 64 l 535 299 q 533 410 539 371 q 512 469 526 449 q 474 507 497 490 l 476 521 q 551 503 517 513 q 610 472 585 493 q 647 406 635 450 q 657 285 660 363 l 651 128 q 656 77 650 97 q 693 57 663 57 m 493 500 q 390 486 417 479 q 363 513 363 493 q 390 539 363 532 q 493 525 417 546 l 493 500 m 838 954 q 792 888 811 931 q 757 796 774 846 q 719 695 740 746 q 667 603 699 644 q 590 535 636 561 q 475 511 543 510 l 478 525 q 600 569 554 532 q 674 663 646 607 q 721 778 701 718 q 761 890 740 839 q 817 971 782 942 q 861 997 840 990 q 900 1003 882 1003 q 967 978 949 1003 q 982 921 985 954 q 972 883 981 904 q 947 847 964 863 q 901 832 929 832 q 858 851 871 832 q 847 892 846 869 q 861 934 849 911 q 892 974 874 957 q 890 974 890 974 q 888 974 889 974 q 859 967 869 972 q 838 954 849 963 m 674 1189 q 806 1240 728 1213 q 960 1283 885 1267 l 967 1264 q 779 1185 865 1233 q 640 1083 693 1136 l 615 1083 q 537 1190 581 1144 q 422 1264 493 1236 l 428 1283 q 533 1257 492 1272 q 608 1224 575 1242 q 674 1189 640 1207 z "},"Ķ":{"ha":938,"x_min":-46,"x_max":985,"o":"m 231 147 q 219 72 218 97 q 243 39 221 47 q 313 28 265 31 l 307 0 q 227 3 275 3 q 131 4 179 4 q 31 3 76 4 q -46 0 -15 3 l -39 28 q 33 39 7 31 q 74 72 58 47 q 101 147 89 97 l 285 836 q 296 912 299 888 q 272 945 293 936 q 203 956 250 954 l 210 983 q 285 981 238 982 q 386 979 332 979 q 483 981 435 979 q 564 983 531 982 l 557 956 q 483 945 510 954 q 442 912 457 936 q 414 836 428 888 l 231 147 m 693 57 q 753 83 729 57 q 796 165 776 110 l 819 236 l 847 236 l 811 129 q 743 17 785 53 q 642 -19 701 -19 q 548 22 576 -19 q 525 142 519 64 l 535 299 q 533 410 539 371 q 512 469 526 449 q 474 507 497 490 l 476 521 q 551 503 517 513 q 610 472 585 493 q 647 406 635 450 q 657 285 660 363 l 651 128 q 656 77 650 97 q 693 57 663 57 m 493 500 q 390 486 417 479 q 363 513 363 493 q 390 539 363 532 q 493 525 417 546 l 493 500 m 838 954 q 792 888 811 931 q 757 796 774 846 q 719 695 740 746 q 667 603 699 644 q 590 535 636 561 q 475 511 543 510 l 478 525 q 600 569 554 532 q 674 663 646 607 q 721 778 701 718 q 761 890 740 839 q 817 971 782 942 q 861 997 840 990 q 900 1003 882 1003 q 967 978 949 1003 q 982 921 985 954 q 972 883 981 904 q 947 847 964 863 q 901 832 929 832 q 858 851 871 832 q 847 892 846 869 q 861 934 849 911 q 892 974 874 957 q 890 974 890 974 q 888 974 889 974 q 859 967 869 972 q 838 954 849 963 m 340 -96 q 397 -119 376 -96 q 417 -176 417 -142 q 392 -263 417 -221 q 281 -335 367 -306 l 271 -311 q 337 -278 303 -301 q 374 -222 371 -256 q 347 -238 364 -232 q 313 -244 331 -244 q 268 -229 286 -244 q 250 -186 250 -214 q 274 -126 250 -156 q 340 -96 297 -96 z "},"L":{"ha":814,"x_min":-49,"x_max":743,"o":"m 743 292 q 726 240 735 269 q 708 178 718 211 q 690 102 701 151 q 671 0 679 53 q 511 3 600 3 q 353 4 422 4 q 274 4 322 4 q 171 3 226 4 q 58 2 115 3 q -49 0 1 1 l -42 28 q 32 39 6 31 q 73 72 58 47 q 101 147 88 97 l 286 836 q 298 912 300 888 q 274 945 296 936 q 206 956 253 954 l 213 983 q 289 981 242 982 q 390 979 336 979 q 487 981 439 979 q 567 983 535 982 l 560 956 q 486 945 513 954 q 444 912 460 936 q 415 836 429 888 l 231 147 q 219 72 217 97 q 243 40 221 47 q 313 32 265 32 l 414 32 q 553 57 501 32 q 641 139 606 82 q 711 292 676 196 l 743 292 z "},"Ĺ":{"ha":814,"x_min":-49,"x_max":747,"o":"m 743 292 q 726 240 735 269 q 708 178 718 211 q 690 102 701 151 q 671 0 679 53 q 511 3 600 3 q 353 4 422 4 q 274 4 322 4 q 171 3 226 4 q 58 2 115 3 q -49 0 1 1 l -42 28 q 32 39 6 31 q 73 72 58 47 q 101 147 88 97 l 286 836 q 298 912 300 888 q 274 945 296 936 q 206 956 253 954 l 213 983 q 289 981 242 982 q 390 979 336 979 q 487 981 439 979 q 567 983 535 982 l 560 956 q 486 945 513 954 q 444 912 460 936 q 415 836 429 888 l 231 147 q 219 72 217 97 q 243 40 221 47 q 313 32 265 32 l 414 32 q 553 57 501 32 q 641 139 606 82 q 711 292 676 196 l 743 292 m 374 1088 q 495 1174 447 1138 q 578 1238 543 1211 q 646 1285 614 1265 q 678 1298 660 1293 q 714 1299 697 1303 q 738 1278 731 1296 q 730 1235 747 1256 q 692 1203 713 1214 q 618 1169 660 1185 q 519 1133 576 1154 q 383 1072 463 1111 l 374 1088 z "},"Ľ":{"ha":814,"x_min":-49,"x_max":792,"o":"m 743 292 q 726 240 735 269 q 708 178 718 211 q 690 102 701 151 q 671 0 679 53 q 511 3 600 3 q 353 4 422 4 q 274 4 322 4 q 171 3 226 4 q 58 2 115 3 q -49 0 1 1 l -42 28 q 32 39 6 31 q 73 72 58 47 q 101 147 88 97 l 286 836 q 298 912 300 888 q 274 945 296 936 q 206 956 253 954 l 213 983 q 289 981 242 982 q 390 979 336 979 q 487 981 439 979 q 567 983 535 982 l 560 956 q 486 945 513 954 q 444 912 460 936 q 415 836 429 888 l 231 147 q 219 72 217 97 q 243 40 221 47 q 313 32 265 32 l 414 32 q 553 57 501 32 q 641 139 606 82 q 711 292 676 196 l 743 292 m 575 674 q 651 837 629 771 q 674 928 674 903 q 665 947 674 940 q 628 954 656 954 l 632 983 q 662 983 649 983 q 689 982 675 982 q 747 988 724 982 q 790 999 771 993 q 792 988 792 996 q 740 853 792 936 q 594 668 688 769 l 575 674 z "},"Ļ":{"ha":814,"x_min":-49,"x_max":743,"o":"m 743 292 q 726 240 735 269 q 708 178 718 211 q 690 102 701 151 q 671 0 679 53 q 511 3 600 3 q 353 4 422 4 q 274 4 322 4 q 171 3 226 4 q 58 2 115 3 q -49 0 1 1 l -42 28 q 32 39 6 31 q 73 72 58 47 q 101 147 88 97 l 286 836 q 298 912 300 888 q 274 945 296 936 q 206 956 253 954 l 213 983 q 289 981 242 982 q 390 979 336 979 q 487 981 439 979 q 567 983 535 982 l 560 956 q 486 945 513 954 q 444 912 460 936 q 415 836 429 888 l 231 147 q 219 72 217 97 q 243 40 221 47 q 313 32 265 32 l 414 32 q 553 57 501 32 q 641 139 606 82 q 711 292 676 196 l 743 292 m 335 -96 q 391 -119 371 -96 q 411 -176 411 -142 q 386 -263 411 -221 q 275 -335 361 -306 l 265 -311 q 331 -278 297 -301 q 368 -222 365 -256 q 342 -238 358 -232 q 307 -244 325 -244 q 263 -229 281 -244 q 244 -186 244 -214 q 268 -126 244 -156 q 335 -96 292 -96 z "},"Ŀ":{"ha":829,"x_min":-49,"x_max":810,"o":"m 743 292 q 726 240 735 269 q 708 178 718 211 q 690 102 701 151 q 671 0 679 53 q 511 3 600 3 q 353 4 422 4 q 274 4 322 4 q 171 3 226 4 q 58 2 115 3 q -49 0 1 1 l -42 28 q 32 39 6 31 q 73 72 58 47 q 101 147 88 97 l 286 836 q 298 912 300 888 q 274 945 296 936 q 206 956 253 954 l 213 983 q 289 981 242 982 q 390 979 336 979 q 487 981 439 979 q 567 983 535 982 l 560 956 q 486 945 513 954 q 444 912 460 936 q 415 836 429 888 l 231 147 q 219 72 217 97 q 243 40 221 47 q 313 32 265 32 l 414 32 q 553 57 501 32 q 641 139 606 82 q 711 292 676 196 l 743 292 m 636 475 q 668 549 636 517 q 739 582 700 582 q 790 561 771 582 q 810 510 810 540 q 795 458 810 482 q 757 419 781 433 q 706 404 733 404 q 656 424 675 404 q 636 475 636 444 z "},"Ł":{"ha":815,"x_min":-46,"x_max":746,"o":"m 261 428 l 717 657 l 708 625 l 253 396 l 261 428 m 256 410 l 21 292 l 29 324 l 264 442 l 256 410 m 746 292 q 729 240 738 269 q 711 178 721 211 q 693 102 704 151 q 674 0 682 53 q 514 3 603 3 q 356 4 425 4 q 277 4 325 4 q 174 3 229 4 q 61 2 118 3 q -46 0 4 1 l -39 28 q 35 39 8 31 q 76 72 61 47 q 104 147 90 97 l 289 836 q 301 912 303 888 q 277 945 299 936 q 208 956 256 954 l 215 983 q 292 981 244 982 q 393 979 339 979 q 490 981 442 979 q 569 983 538 982 l 563 956 q 489 945 515 954 q 447 912 463 936 q 418 836 432 888 l 233 147 q 222 72 219 97 q 246 40 224 47 q 315 32 268 32 l 417 32 q 556 57 504 32 q 644 139 608 82 q 714 292 679 196 l 746 292 z "},"M":{"ha":1206,"x_min":-47,"x_max":1296,"o":"m 1056 979 l 1122 979 q 1217 981 1171 979 q 1296 983 1263 982 l 1289 956 q 1215 945 1242 954 q 1174 912 1189 936 q 1146 836 1160 888 l 963 147 q 952 72 950 97 q 976 39 954 47 q 1044 28 999 31 l 1039 0 q 961 3 1007 3 q 867 4 915 4 q 764 3 813 4 q 686 0 715 3 l 692 28 q 766 39 740 31 q 807 72 792 47 q 835 147 822 97 l 1036 896 l 460 -7 l 429 -7 l 335 907 l 138 161 q 126 83 125 111 q 153 42 128 54 q 231 28 178 31 l 224 0 q 184 2 208 1 q 133 3 160 3 q 83 4 107 4 q 13 3 49 4 q -47 0 -24 3 l -40 28 q 35 42 8 31 q 77 83 61 54 q 106 161 93 111 l 286 836 q 297 912 300 888 q 273 945 294 936 q 204 956 251 954 l 211 983 q 266 981 233 982 q 335 979 299 979 q 400 981 367 979 q 457 983 433 982 l 533 160 l 1056 979 z "},"N":{"ha":1069,"x_min":-100,"x_max":1211,"o":"m 693 -7 l 369 907 q 365 897 369 907 q 353 872 360 886 q 342 847 347 857 q 338 836 338 836 q 345 912 349 888 q 317 945 342 936 q 239 956 293 954 l 246 983 q 301 981 268 982 q 369 979 333 979 q 482 983 435 979 l 749 203 q 747 188 749 203 q 742 149 744 172 q 736 98 739 125 q 731 47 733 71 q 726 8 728 24 q 724 -7 724 -7 l 693 -7 m 1117 1018 q 1051 998 1078 1017 q 1003 947 1024 979 q 872 615 939 853 q 724 -7 806 378 l 704 32 q 749 233 725 125 q 799 449 772 340 q 855 656 826 557 q 915 833 883 754 q 978 958 946 911 q 1040 1022 1004 996 q 1128 1047 1076 1047 q 1194 1026 1176 1047 q 1211 976 1211 1004 q 1190 909 1211 942 q 1129 876 1169 876 q 1088 894 1099 876 q 1076 931 1076 913 q 1090 978 1076 954 q 1121 1018 1103 1001 q 1119 1018 1119 1018 q 1117 1018 1118 1018 m -6 -74 q 60 -53 32 -72 q 110 -1 89 -35 q 191 199 150 63 q 274 528 232 335 q 360 951 317 721 l 383 922 q 337 691 361 808 q 288 462 313 574 q 236 254 263 350 q 183 88 210 158 q 132 -15 157 18 q 73 -76 107 -49 q -17 -103 39 -103 q -83 -81 -65 -103 q -100 -31 -100 -60 q -79 36 -100 4 q -18 68 -58 68 q 24 50 14 68 q 35 14 35 32 q 22 -33 35 -10 q -10 -74 8 -57 q -8 -74 -8 -74 q -6 -74 -7 -74 z "},"Ń":{"ha":1069,"x_min":-100,"x_max":1211,"o":"m 693 -7 l 369 907 q 365 897 369 907 q 353 872 360 886 q 342 847 347 857 q 338 836 338 836 q 345 912 349 888 q 317 945 342 936 q 239 956 293 954 l 246 983 q 301 981 268 982 q 369 979 333 979 q 482 983 435 979 l 749 203 q 747 188 749 203 q 742 149 744 172 q 736 98 739 125 q 731 47 733 71 q 726 8 728 24 q 724 -7 724 -7 l 693 -7 m 1117 1018 q 1051 998 1078 1017 q 1003 947 1024 979 q 872 615 939 853 q 724 -7 806 378 l 704 32 q 749 233 725 125 q 799 449 772 340 q 855 656 826 557 q 915 833 883 754 q 978 958 946 911 q 1040 1022 1004 996 q 1128 1047 1076 1047 q 1194 1026 1176 1047 q 1211 976 1211 1004 q 1190 909 1211 942 q 1129 876 1169 876 q 1088 894 1099 876 q 1076 931 1076 913 q 1090 978 1076 954 q 1121 1018 1103 1001 q 1119 1018 1119 1018 q 1117 1018 1118 1018 m -6 -74 q 60 -53 32 -72 q 110 -1 89 -35 q 191 199 150 63 q 274 528 232 335 q 360 951 317 721 l 383 922 q 337 691 361 808 q 288 462 313 574 q 236 254 263 350 q 183 88 210 158 q 132 -15 157 18 q 73 -76 107 -49 q -17 -103 39 -103 q -83 -81 -65 -103 q -100 -31 -100 -60 q -79 36 -100 4 q -18 68 -58 68 q 24 50 14 68 q 35 14 35 32 q 22 -33 35 -10 q -10 -74 8 -57 q -8 -74 -8 -74 q -6 -74 -7 -74 m 689 1088 q 810 1174 763 1138 q 894 1238 858 1211 q 961 1285 929 1265 q 994 1298 975 1293 q 1029 1299 1013 1303 q 1053 1278 1046 1296 q 1045 1235 1063 1256 q 1007 1203 1028 1214 q 933 1169 975 1185 q 835 1133 892 1154 q 699 1072 778 1111 l 689 1088 z "},"Ň":{"ha":1069,"x_min":-100,"x_max":1211,"o":"m 693 -7 l 369 907 q 365 897 369 907 q 353 872 360 886 q 342 847 347 857 q 338 836 338 836 q 345 912 349 888 q 317 945 342 936 q 239 956 293 954 l 246 983 q 301 981 268 982 q 369 979 333 979 q 482 983 435 979 l 749 203 q 747 188 749 203 q 742 149 744 172 q 736 98 739 125 q 731 47 733 71 q 726 8 728 24 q 724 -7 724 -7 l 693 -7 m 1117 1018 q 1051 998 1078 1017 q 1003 947 1024 979 q 872 615 939 853 q 724 -7 806 378 l 704 32 q 749 233 725 125 q 799 449 772 340 q 855 656 826 557 q 915 833 883 754 q 978 958 946 911 q 1040 1022 1004 996 q 1128 1047 1076 1047 q 1194 1026 1176 1047 q 1211 976 1211 1004 q 1190 909 1211 942 q 1129 876 1169 876 q 1088 894 1099 876 q 1076 931 1076 913 q 1090 978 1076 954 q 1121 1018 1103 1001 q 1119 1018 1119 1018 q 1117 1018 1118 1018 m -6 -74 q 60 -53 32 -72 q 110 -1 89 -35 q 191 199 150 63 q 274 528 232 335 q 360 951 317 721 l 383 922 q 337 691 361 808 q 288 462 313 574 q 236 254 263 350 q 183 88 210 158 q 132 -15 157 18 q 73 -76 107 -49 q -17 -103 39 -103 q -83 -81 -65 -103 q -100 -31 -100 -60 q -79 36 -100 4 q -18 68 -58 68 q 24 50 14 68 q 35 14 35 32 q 22 -33 35 -10 q -10 -74 8 -57 q -8 -74 -8 -74 q -6 -74 -7 -74 m 754 1189 q 887 1240 808 1213 q 1040 1283 965 1267 l 1047 1264 q 860 1185 946 1233 q 721 1083 774 1136 l 696 1083 q 617 1190 661 1144 q 503 1264 574 1236 l 508 1283 q 614 1257 572 1272 q 688 1224 656 1242 q 754 1189 721 1207 z "},"Ņ":{"ha":1069,"x_min":-100,"x_max":1211,"o":"m 693 -7 l 369 907 q 365 897 369 907 q 353 872 360 886 q 342 847 347 857 q 338 836 338 836 q 345 912 349 888 q 317 945 342 936 q 239 956 293 954 l 246 983 q 301 981 268 982 q 369 979 333 979 q 482 983 435 979 l 749 203 q 747 188 749 203 q 742 149 744 172 q 736 98 739 125 q 731 47 733 71 q 726 8 728 24 q 724 -7 724 -7 l 693 -7 m 1117 1018 q 1051 998 1078 1017 q 1003 947 1024 979 q 872 615 939 853 q 724 -7 806 378 l 704 32 q 749 233 725 125 q 799 449 772 340 q 855 656 826 557 q 915 833 883 754 q 978 958 946 911 q 1040 1022 1004 996 q 1128 1047 1076 1047 q 1194 1026 1176 1047 q 1211 976 1211 1004 q 1190 909 1211 942 q 1129 876 1169 876 q 1088 894 1099 876 q 1076 931 1076 913 q 1090 978 1076 954 q 1121 1018 1103 1001 q 1119 1018 1119 1018 q 1117 1018 1118 1018 m -6 -74 q 60 -53 32 -72 q 110 -1 89 -35 q 191 199 150 63 q 274 528 232 335 q 360 951 317 721 l 383 922 q 337 691 361 808 q 288 462 313 574 q 236 254 263 350 q 183 88 210 158 q 132 -15 157 18 q 73 -76 107 -49 q -17 -103 39 -103 q -83 -81 -65 -103 q -100 -31 -100 -60 q -79 36 -100 4 q -18 68 -58 68 q 24 50 14 68 q 35 14 35 32 q 22 -33 35 -10 q -10 -74 8 -57 q -8 -74 -8 -74 q -6 -74 -7 -74 m 378 -96 q 434 -119 414 -96 q 454 -176 454 -142 q 429 -263 454 -221 q 318 -335 404 -306 l 308 -311 q 374 -278 340 -301 q 411 -222 408 -256 q 385 -238 401 -232 q 350 -244 368 -244 q 306 -229 324 -244 q 288 -186 288 -214 q 311 -126 288 -156 q 378 -96 335 -96 z "},"Ŋ":{"ha":974,"x_min":-46,"x_max":1075,"o":"m 890 822 q 902 901 904 874 q 876 942 900 929 q 797 956 851 954 l 804 983 q 869 981 828 982 q 944 979 910 979 q 1016 981 981 979 q 1075 983 1051 982 l 1068 956 q 994 942 1021 954 q 951 901 967 929 q 922 822 936 874 l 729 93 l 675 -14 l 335 907 l 139 161 q 128 83 126 111 q 154 42 129 54 q 232 28 179 31 l 225 0 q 161 3 201 3 q 85 4 121 4 q 14 3 50 4 q -46 0 -22 3 l -39 28 q 36 42 10 31 q 78 83 63 54 q 107 161 94 111 l 286 836 q 297 912 300 888 q 273 945 294 936 q 204 956 251 954 l 211 983 q 266 981 233 982 q 335 979 299 979 q 447 983 400 979 l 728 203 l 890 822 m 729 93 q 663 -106 703 -26 q 572 -223 624 -185 q 453 -261 519 -261 q 395 -253 424 -261 q 348 -228 367 -244 q 328 -185 329 -211 q 349 -128 326 -153 q 404 -103 372 -103 q 445 -119 429 -103 q 463 -158 461 -135 q 447 -202 464 -183 q 407 -232 429 -221 q 430 -237 417 -235 q 456 -239 443 -239 q 544 -212 506 -239 q 613 -138 583 -185 q 663 -33 642 -92 q 699 90 685 26 l 729 93 z "},"Ñ":{"ha":1069,"x_min":-100,"x_max":1211,"o":"m 693 -7 l 369 907 q 365 897 369 907 q 353 872 360 886 q 342 847 347 857 q 338 836 338 836 q 345 912 349 888 q 317 945 342 936 q 239 956 293 954 l 246 983 q 301 981 268 982 q 369 979 333 979 q 482 983 435 979 l 749 203 q 747 188 749 203 q 742 149 744 172 q 736 98 739 125 q 731 47 733 71 q 726 8 728 24 q 724 -7 724 -7 l 693 -7 m 1117 1018 q 1051 998 1078 1017 q 1003 947 1024 979 q 872 615 939 853 q 724 -7 806 378 l 704 32 q 749 233 725 125 q 799 449 772 340 q 855 656 826 557 q 915 833 883 754 q 978 958 946 911 q 1040 1022 1004 996 q 1128 1047 1076 1047 q 1194 1026 1176 1047 q 1211 976 1211 1004 q 1190 909 1211 942 q 1129 876 1169 876 q 1088 894 1099 876 q 1076 931 1076 913 q 1090 978 1076 954 q 1121 1018 1103 1001 q 1119 1018 1119 1018 q 1117 1018 1118 1018 m -6 -74 q 60 -53 32 -72 q 110 -1 89 -35 q 191 199 150 63 q 274 528 232 335 q 360 951 317 721 l 383 922 q 337 691 361 808 q 288 462 313 574 q 236 254 263 350 q 183 88 210 158 q 132 -15 157 18 q 73 -76 107 -49 q -17 -103 39 -103 q -83 -81 -65 -103 q -100 -31 -100 -60 q -79 36 -100 4 q -18 68 -58 68 q 24 50 14 68 q 35 14 35 32 q 22 -33 35 -10 q -10 -74 8 -57 q -8 -74 -8 -74 q -6 -74 -7 -74 m 657 1243 q 735 1228 704 1243 q 788 1192 765 1213 q 836 1157 811 1172 q 897 1142 861 1142 q 947 1160 922 1142 q 994 1222 971 1179 l 1019 1215 q 938 1106 988 1139 q 839 1072 888 1072 q 761 1088 792 1072 q 708 1123 731 1103 q 660 1158 685 1143 q 599 1174 635 1174 q 549 1156 574 1174 q 501 1093 525 1138 l 476 1100 q 558 1210 508 1178 q 657 1243 608 1243 z "},"O":{"ha":1013,"x_min":75,"x_max":982,"o":"m 642 978 q 516 940 578 978 q 401 834 454 901 q 308 680 349 767 q 245 494 268 593 q 222 296 222 396 q 276 83 222 160 q 414 6 329 6 q 540 44 478 6 q 654 149 601 82 q 747 303 707 217 q 810 489 788 390 q 833 688 833 588 q 780 901 833 824 q 642 978 726 978 m 75 314 q 101 503 75 406 q 178 689 128 600 q 299 849 228 778 q 460 961 371 919 q 654 1003 549 1003 q 895 916 808 1003 q 982 668 982 829 q 955 480 982 576 q 878 294 928 383 q 756 135 828 206 q 595 22 685 64 q 401 -19 506 -19 q 161 67 247 -19 q 75 314 75 154 z "},"Ó":{"ha":1013,"x_min":75,"x_max":1000,"o":"m 642 978 q 516 940 578 978 q 401 834 454 901 q 308 680 349 767 q 245 494 268 593 q 222 296 222 396 q 276 83 222 160 q 414 6 329 6 q 540 44 478 6 q 654 149 601 82 q 747 303 707 217 q 810 489 788 390 q 833 688 833 588 q 780 901 833 824 q 642 978 726 978 m 75 314 q 101 503 75 406 q 178 689 128 600 q 299 849 228 778 q 460 961 371 919 q 654 1003 549 1003 q 895 916 808 1003 q 982 668 982 829 q 955 480 982 576 q 878 294 928 383 q 756 135 828 206 q 595 22 685 64 q 401 -19 506 -19 q 161 67 247 -19 q 75 314 75 154 m 626 1088 q 748 1174 700 1138 q 831 1238 796 1211 q 899 1285 867 1265 q 931 1298 913 1293 q 967 1299 950 1303 q 990 1278 983 1296 q 983 1235 1000 1256 q 944 1203 965 1214 q 871 1169 913 1185 q 772 1133 829 1154 q 636 1072 715 1111 l 626 1088 z "},"Ŏ":{"ha":1013,"x_min":75,"x_max":999,"o":"m 642 978 q 516 940 578 978 q 401 834 454 901 q 308 680 349 767 q 245 494 268 593 q 222 296 222 396 q 276 83 222 160 q 414 6 329 6 q 540 44 478 6 q 654 149 601 82 q 747 303 707 217 q 810 489 788 390 q 833 688 833 588 q 780 901 833 824 q 642 978 726 978 m 75 314 q 101 503 75 406 q 178 689 128 600 q 299 849 228 778 q 460 961 371 919 q 654 1003 549 1003 q 895 916 808 1003 q 982 668 982 829 q 955 480 982 576 q 878 294 928 383 q 756 135 828 206 q 595 22 685 64 q 401 -19 506 -19 q 161 67 247 -19 q 75 314 75 154 m 678 1179 q 834 1200 750 1179 q 985 1260 918 1221 l 999 1244 q 903 1172 963 1208 q 778 1110 844 1135 q 654 1086 713 1086 q 551 1108 594 1086 q 481 1166 507 1129 q 444 1247 454 1203 l 467 1254 q 552 1195 503 1211 q 678 1179 601 1179 z "},"Ô":{"ha":1013,"x_min":75,"x_max":982,"o":"m 642 978 q 516 940 578 978 q 401 834 454 901 q 308 680 349 767 q 245 494 268 593 q 222 296 222 396 q 276 83 222 160 q 414 6 329 6 q 540 44 478 6 q 654 149 601 82 q 747 303 707 217 q 810 489 788 390 q 833 688 833 588 q 780 901 833 824 q 642 978 726 978 m 75 314 q 101 503 75 406 q 178 689 128 600 q 299 849 228 778 q 460 961 371 919 q 654 1003 549 1003 q 895 916 808 1003 q 982 668 982 829 q 955 480 982 576 q 878 294 928 383 q 756 135 828 206 q 595 22 685 64 q 401 -19 506 -19 q 161 67 247 -19 q 75 314 75 154 m 663 1167 q 530 1117 608 1144 q 376 1072 451 1089 l 369 1092 q 557 1172 471 1124 q 696 1272 643 1219 l 721 1272 q 800 1166 757 1213 q 914 1092 843 1119 l 908 1072 q 803 1099 846 1085 q 728 1131 761 1114 q 663 1167 696 1149 z "},"Ố":{"ha":1013,"x_min":75,"x_max":1067,"o":"m 642 978 q 516 940 578 978 q 401 834 454 901 q 308 680 349 767 q 245 494 268 593 q 222 296 222 396 q 276 83 222 160 q 414 6 329 6 q 540 44 478 6 q 654 149 601 82 q 747 303 707 217 q 810 489 788 390 q 833 688 833 588 q 780 901 833 824 q 642 978 726 978 m 75 314 q 101 503 75 406 q 178 689 128 600 q 299 849 228 778 q 460 961 371 919 q 654 1003 549 1003 q 895 916 808 1003 q 982 668 982 829 q 955 480 982 576 q 878 294 928 383 q 756 135 828 206 q 595 22 685 64 q 401 -19 506 -19 q 161 67 247 -19 q 75 314 75 154 m 663 1167 q 530 1117 608 1144 q 376 1072 451 1089 l 369 1092 q 557 1172 471 1124 q 696 1272 643 1219 l 721 1272 q 800 1166 757 1213 q 914 1092 843 1119 l 908 1072 q 803 1099 846 1085 q 728 1131 761 1114 q 663 1167 696 1149 m 693 1351 q 815 1438 767 1401 q 898 1502 863 1475 q 965 1549 933 1529 q 998 1562 979 1557 q 1033 1563 1017 1567 q 1057 1542 1050 1560 q 1049 1499 1067 1519 q 1011 1467 1032 1478 q 938 1433 979 1449 q 839 1397 896 1418 q 703 1336 782 1375 l 693 1351 z "},"Ộ":{"ha":1013,"x_min":75,"x_max":982,"o":"m 642 978 q 516 940 578 978 q 401 834 454 901 q 308 680 349 767 q 245 494 268 593 q 222 296 222 396 q 276 83 222 160 q 414 6 329 6 q 540 44 478 6 q 654 149 601 82 q 747 303 707 217 q 810 489 788 390 q 833 688 833 588 q 780 901 833 824 q 642 978 726 978 m 75 314 q 101 503 75 406 q 178 689 128 600 q 299 849 228 778 q 460 961 371 919 q 654 1003 549 1003 q 895 916 808 1003 q 982 668 982 829 q 955 480 982 576 q 878 294 928 383 q 756 135 828 206 q 595 22 685 64 q 401 -19 506 -19 q 161 67 247 -19 q 75 314 75 154 m 663 1167 q 530 1117 608 1144 q 376 1072 451 1089 l 369 1092 q 557 1172 471 1124 q 696 1272 643 1219 l 721 1272 q 800 1166 757 1213 q 914 1092 843 1119 l 908 1072 q 803 1099 846 1085 q 728 1131 761 1114 q 663 1167 696 1149 m 367 -251 q 317 -233 336 -251 q 297 -186 297 -215 q 324 -123 297 -150 q 392 -96 350 -96 q 443 -115 425 -96 q 461 -161 461 -133 q 432 -227 461 -203 q 367 -251 403 -251 z "},"Ồ":{"ha":1013,"x_min":75,"x_max":982,"o":"m 642 978 q 516 940 578 978 q 401 834 454 901 q 308 680 349 767 q 245 494 268 593 q 222 296 222 396 q 276 83 222 160 q 414 6 329 6 q 540 44 478 6 q 654 149 601 82 q 747 303 707 217 q 810 489 788 390 q 833 688 833 588 q 780 901 833 824 q 642 978 726 978 m 75 314 q 101 503 75 406 q 178 689 128 600 q 299 849 228 778 q 460 961 371 919 q 654 1003 549 1003 q 895 916 808 1003 q 982 668 982 829 q 955 480 982 576 q 878 294 928 383 q 756 135 828 206 q 595 22 685 64 q 401 -19 506 -19 q 161 67 247 -19 q 75 314 75 154 m 663 1167 q 530 1117 608 1144 q 376 1072 451 1089 l 369 1092 q 557 1172 471 1124 q 696 1272 643 1219 l 721 1272 q 800 1166 757 1213 q 914 1092 843 1119 l 908 1072 q 803 1099 846 1085 q 728 1131 761 1114 q 663 1167 696 1149 m 754 1332 q 658 1407 699 1378 q 587 1457 617 1436 q 535 1499 557 1478 q 511 1537 521 1514 q 518 1581 501 1560 q 564 1593 536 1601 q 610 1565 592 1585 q 650 1514 631 1544 q 697 1442 669 1483 q 768 1346 725 1401 l 754 1332 z "},"Ổ":{"ha":1013,"x_min":75,"x_max":1100,"o":"m 642 978 q 516 940 578 978 q 401 834 454 901 q 308 680 349 767 q 245 494 268 593 q 222 296 222 396 q 276 83 222 160 q 414 6 329 6 q 540 44 478 6 q 654 149 601 82 q 747 303 707 217 q 810 489 788 390 q 833 688 833 588 q 780 901 833 824 q 642 978 726 978 m 75 314 q 101 503 75 406 q 178 689 128 600 q 299 849 228 778 q 460 961 371 919 q 654 1003 549 1003 q 895 916 808 1003 q 982 668 982 829 q 955 480 982 576 q 878 294 928 383 q 756 135 828 206 q 595 22 685 64 q 401 -19 506 -19 q 161 67 247 -19 q 75 314 75 154 m 663 1167 q 530 1117 608 1144 q 376 1072 451 1089 l 369 1092 q 557 1172 471 1124 q 696 1272 643 1219 l 721 1272 q 800 1166 757 1213 q 914 1092 843 1119 l 908 1072 q 803 1099 846 1085 q 728 1131 761 1114 q 663 1167 696 1149 m 888 1244 q 910 1314 892 1288 q 951 1360 929 1340 q 988 1403 972 1381 q 1004 1461 1004 1425 q 984 1516 1004 1499 q 928 1533 964 1533 q 896 1529 913 1533 q 867 1511 879 1525 q 891 1490 882 1504 q 900 1457 900 1476 q 881 1412 900 1431 q 832 1393 863 1393 q 790 1408 806 1393 q 774 1449 774 1424 q 795 1499 774 1478 q 847 1535 817 1521 q 889 1549 863 1542 q 954 1556 915 1556 q 1056 1535 1013 1556 q 1100 1465 1100 1515 q 1083 1413 1100 1433 q 1039 1378 1065 1393 q 986 1346 1013 1363 q 940 1306 960 1329 q 915 1244 919 1282 l 888 1244 z "},"Ỗ":{"ha":1013,"x_min":75,"x_max":1024,"o":"m 642 978 q 516 940 578 978 q 401 834 454 901 q 308 680 349 767 q 245 494 268 593 q 222 296 222 396 q 276 83 222 160 q 414 6 329 6 q 540 44 478 6 q 654 149 601 82 q 747 303 707 217 q 810 489 788 390 q 833 688 833 588 q 780 901 833 824 q 642 978 726 978 m 75 314 q 101 503 75 406 q 178 689 128 600 q 299 849 228 778 q 460 961 371 919 q 654 1003 549 1003 q 895 916 808 1003 q 982 668 982 829 q 955 480 982 576 q 878 294 928 383 q 756 135 828 206 q 595 22 685 64 q 401 -19 506 -19 q 161 67 247 -19 q 75 314 75 154 m 663 1167 q 530 1117 608 1144 q 376 1072 451 1089 l 369 1092 q 557 1172 471 1124 q 696 1272 643 1219 l 721 1272 q 800 1166 757 1213 q 914 1092 843 1119 l 908 1072 q 803 1099 846 1085 q 728 1131 761 1114 q 663 1167 696 1149 m 661 1507 q 739 1492 708 1507 q 792 1456 769 1476 q 840 1421 815 1436 q 901 1406 865 1406 q 951 1424 926 1406 q 999 1486 975 1443 l 1024 1479 q 942 1369 992 1403 q 843 1336 892 1336 q 765 1351 796 1336 q 712 1387 735 1367 q 664 1422 689 1407 q 603 1438 639 1438 q 553 1419 578 1438 q 506 1357 529 1401 l 481 1364 q 563 1474 513 1442 q 661 1507 613 1507 z "},"Ö":{"ha":1013,"x_min":75,"x_max":982,"o":"m 642 978 q 516 940 578 978 q 401 834 454 901 q 308 680 349 767 q 245 494 268 593 q 222 296 222 396 q 276 83 222 160 q 414 6 329 6 q 540 44 478 6 q 654 149 601 82 q 747 303 707 217 q 810 489 788 390 q 833 688 833 588 q 780 901 833 824 q 642 978 726 978 m 75 314 q 101 503 75 406 q 178 689 128 600 q 299 849 228 778 q 460 961 371 919 q 654 1003 549 1003 q 895 916 808 1003 q 982 668 982 829 q 955 480 982 576 q 878 294 928 383 q 756 135 828 206 q 595 22 685 64 q 401 -19 506 -19 q 161 67 247 -19 q 75 314 75 154 m 453 1143 q 481 1204 453 1175 q 546 1233 508 1233 q 595 1213 575 1233 q 615 1164 615 1193 q 603 1120 615 1142 q 569 1085 590 1099 q 522 1072 547 1072 q 472 1092 492 1072 q 453 1143 453 1113 m 747 1143 q 775 1204 747 1175 q 840 1233 803 1233 q 890 1213 869 1233 q 910 1164 910 1193 q 897 1120 910 1142 q 863 1085 885 1099 q 817 1072 842 1072 q 767 1092 786 1072 q 747 1143 747 1113 z "},"Ọ":{"ha":1013,"x_min":75,"x_max":982,"o":"m 642 978 q 516 940 578 978 q 401 834 454 901 q 308 680 349 767 q 245 494 268 593 q 222 296 222 396 q 276 83 222 160 q 414 6 329 6 q 540 44 478 6 q 654 149 601 82 q 747 303 707 217 q 810 489 788 390 q 833 688 833 588 q 780 901 833 824 q 642 978 726 978 m 75 314 q 101 503 75 406 q 178 689 128 600 q 299 849 228 778 q 460 961 371 919 q 654 1003 549 1003 q 895 916 808 1003 q 982 668 982 829 q 955 480 982 576 q 878 294 928 383 q 756 135 828 206 q 595 22 685 64 q 401 -19 506 -19 q 161 67 247 -19 q 75 314 75 154 m 367 -251 q 317 -233 336 -251 q 297 -186 297 -215 q 324 -123 297 -150 q 392 -96 350 -96 q 443 -115 425 -96 q 461 -161 461 -133 q 432 -227 461 -203 q 367 -251 403 -251 z "},"Ò":{"ha":1013,"x_min":75,"x_max":982,"o":"m 642 978 q 516 940 578 978 q 401 834 454 901 q 308 680 349 767 q 245 494 268 593 q 222 296 222 396 q 276 83 222 160 q 414 6 329 6 q 540 44 478 6 q 654 149 601 82 q 747 303 707 217 q 810 489 788 390 q 833 688 833 588 q 780 901 833 824 q 642 978 726 978 m 75 314 q 101 503 75 406 q 178 689 128 600 q 299 849 228 778 q 460 961 371 919 q 654 1003 549 1003 q 895 916 808 1003 q 982 668 982 829 q 955 480 982 576 q 878 294 928 383 q 756 135 828 206 q 595 22 685 64 q 401 -19 506 -19 q 161 67 247 -19 q 75 314 75 154 m 688 1068 q 591 1143 632 1114 q 520 1193 550 1172 q 468 1235 490 1214 q 444 1273 454 1250 q 451 1317 435 1296 q 497 1329 469 1338 q 543 1301 525 1321 q 583 1250 564 1281 q 631 1178 603 1219 q 701 1082 658 1138 l 688 1068 z "},"Ỏ":{"ha":1013,"x_min":75,"x_max":982,"o":"m 642 978 q 516 940 578 978 q 401 834 454 901 q 308 680 349 767 q 245 494 268 593 q 222 296 222 396 q 276 83 222 160 q 414 6 329 6 q 540 44 478 6 q 654 149 601 82 q 747 303 707 217 q 810 489 788 390 q 833 688 833 588 q 780 901 833 824 q 642 978 726 978 m 75 314 q 101 503 75 406 q 178 689 128 600 q 299 849 228 778 q 460 961 371 919 q 654 1003 549 1003 q 895 916 808 1003 q 982 668 982 829 q 955 480 982 576 q 878 294 928 383 q 756 135 828 206 q 595 22 685 64 q 401 -19 506 -19 q 161 67 247 -19 q 75 314 75 154 m 656 1092 q 678 1161 660 1135 q 719 1208 697 1188 q 756 1250 740 1228 q 772 1308 772 1272 q 752 1363 772 1346 q 696 1381 732 1381 q 664 1376 681 1381 q 635 1358 647 1372 q 659 1338 650 1351 q 668 1304 668 1324 q 649 1259 668 1278 q 600 1240 631 1240 q 558 1256 574 1240 q 542 1296 542 1271 q 563 1347 542 1325 q 615 1382 585 1368 q 657 1396 631 1389 q 722 1403 683 1403 q 824 1383 781 1403 q 868 1313 868 1363 q 851 1260 868 1281 q 807 1225 833 1240 q 754 1193 781 1210 q 708 1153 728 1176 q 683 1092 688 1129 l 656 1092 z "},"Ơ":{"ha":1013,"x_min":75,"x_max":1171,"o":"m 772 950 l 761 982 q 950 983 881 971 q 1071 1029 1019 994 l 1069 1019 q 1030 1061 1047 1036 q 1013 1118 1013 1086 q 1033 1175 1013 1150 q 1093 1200 1053 1200 q 1151 1177 1132 1200 q 1171 1124 1171 1154 q 1146 1056 1171 1089 q 1081 1000 1121 1024 q 951 955 1028 969 q 772 950 875 940 m 642 978 q 516 940 578 978 q 401 834 454 901 q 308 680 349 767 q 245 494 268 593 q 222 296 222 396 q 276 83 222 160 q 414 6 329 6 q 540 44 478 6 q 654 149 601 82 q 747 303 707 217 q 810 489 788 390 q 833 688 833 588 q 780 901 833 824 q 642 978 726 978 m 75 314 q 101 503 75 406 q 178 689 128 600 q 299 849 228 778 q 460 961 371 919 q 654 1003 549 1003 q 895 916 808 1003 q 982 668 982 829 q 955 480 982 576 q 878 294 928 383 q 756 135 828 206 q 595 22 685 64 q 401 -19 506 -19 q 161 67 247 -19 q 75 314 75 154 z "},"Ớ":{"ha":1013,"x_min":75,"x_max":1171,"o":"m 772 950 l 761 982 q 950 983 881 971 q 1071 1029 1019 994 l 1069 1019 q 1030 1061 1047 1036 q 1013 1118 1013 1086 q 1033 1175 1013 1150 q 1093 1200 1053 1200 q 1151 1177 1132 1200 q 1171 1124 1171 1154 q 1146 1056 1171 1089 q 1081 1000 1121 1024 q 951 955 1028 969 q 772 950 875 940 m 642 978 q 516 940 578 978 q 401 834 454 901 q 308 680 349 767 q 245 494 268 593 q 222 296 222 396 q 276 83 222 160 q 414 6 329 6 q 540 44 478 6 q 654 149 601 82 q 747 303 707 217 q 810 489 788 390 q 833 688 833 588 q 780 901 833 824 q 642 978 726 978 m 75 314 q 101 503 75 406 q 178 689 128 600 q 299 849 228 778 q 460 961 371 919 q 654 1003 549 1003 q 895 916 808 1003 q 982 668 982 829 q 955 480 982 576 q 878 294 928 383 q 756 135 828 206 q 595 22 685 64 q 401 -19 506 -19 q 161 67 247 -19 q 75 314 75 154 m 626 1088 q 748 1174 700 1138 q 831 1238 796 1211 q 899 1285 867 1265 q 931 1298 913 1293 q 967 1299 950 1303 q 990 1278 983 1296 q 983 1235 1000 1256 q 944 1203 965 1214 q 871 1169 913 1185 q 772 1133 829 1154 q 636 1072 715 1111 l 626 1088 z "},"Ợ":{"ha":1013,"x_min":75,"x_max":1171,"o":"m 772 950 l 761 982 q 950 983 881 971 q 1071 1029 1019 994 l 1069 1019 q 1030 1061 1047 1036 q 1013 1118 1013 1086 q 1033 1175 1013 1150 q 1093 1200 1053 1200 q 1151 1177 1132 1200 q 1171 1124 1171 1154 q 1146 1056 1171 1089 q 1081 1000 1121 1024 q 951 955 1028 969 q 772 950 875 940 m 642 978 q 516 940 578 978 q 401 834 454 901 q 308 680 349 767 q 245 494 268 593 q 222 296 222 396 q 276 83 222 160 q 414 6 329 6 q 540 44 478 6 q 654 149 601 82 q 747 303 707 217 q 810 489 788 390 q 833 688 833 588 q 780 901 833 824 q 642 978 726 978 m 75 314 q 101 503 75 406 q 178 689 128 600 q 299 849 228 778 q 460 961 371 919 q 654 1003 549 1003 q 895 916 808 1003 q 982 668 982 829 q 955 480 982 576 q 878 294 928 383 q 756 135 828 206 q 595 22 685 64 q 401 -19 506 -19 q 161 67 247 -19 q 75 314 75 154 m 367 -251 q 317 -233 336 -251 q 297 -186 297 -215 q 324 -123 297 -150 q 392 -96 350 -96 q 443 -115 425 -96 q 461 -161 461 -133 q 432 -227 461 -203 q 367 -251 403 -251 z "},"Ờ":{"ha":1013,"x_min":75,"x_max":1171,"o":"m 772 950 l 761 982 q 950 983 881 971 q 1071 1029 1019 994 l 1069 1019 q 1030 1061 1047 1036 q 1013 1118 1013 1086 q 1033 1175 1013 1150 q 1093 1200 1053 1200 q 1151 1177 1132 1200 q 1171 1124 1171 1154 q 1146 1056 1171 1089 q 1081 1000 1121 1024 q 951 955 1028 969 q 772 950 875 940 m 642 978 q 516 940 578 978 q 401 834 454 901 q 308 680 349 767 q 245 494 268 593 q 222 296 222 396 q 276 83 222 160 q 414 6 329 6 q 540 44 478 6 q 654 149 601 82 q 747 303 707 217 q 810 489 788 390 q 833 688 833 588 q 780 901 833 824 q 642 978 726 978 m 75 314 q 101 503 75 406 q 178 689 128 600 q 299 849 228 778 q 460 961 371 919 q 654 1003 549 1003 q 895 916 808 1003 q 982 668 982 829 q 955 480 982 576 q 878 294 928 383 q 756 135 828 206 q 595 22 685 64 q 401 -19 506 -19 q 161 67 247 -19 q 75 314 75 154 m 688 1068 q 591 1143 632 1114 q 520 1193 550 1172 q 468 1235 490 1214 q 444 1273 454 1250 q 451 1317 435 1296 q 497 1329 469 1338 q 543 1301 525 1321 q 583 1250 564 1281 q 631 1178 603 1219 q 701 1082 658 1138 l 688 1068 z "},"Ở":{"ha":1013,"x_min":75,"x_max":1171,"o":"m 772 950 l 761 982 q 950 983 881 971 q 1071 1029 1019 994 l 1069 1019 q 1030 1061 1047 1036 q 1013 1118 1013 1086 q 1033 1175 1013 1150 q 1093 1200 1053 1200 q 1151 1177 1132 1200 q 1171 1124 1171 1154 q 1146 1056 1171 1089 q 1081 1000 1121 1024 q 951 955 1028 969 q 772 950 875 940 m 642 978 q 516 940 578 978 q 401 834 454 901 q 308 680 349 767 q 245 494 268 593 q 222 296 222 396 q 276 83 222 160 q 414 6 329 6 q 540 44 478 6 q 654 149 601 82 q 747 303 707 217 q 810 489 788 390 q 833 688 833 588 q 780 901 833 824 q 642 978 726 978 m 75 314 q 101 503 75 406 q 178 689 128 600 q 299 849 228 778 q 460 961 371 919 q 654 1003 549 1003 q 895 916 808 1003 q 982 668 982 829 q 955 480 982 576 q 878 294 928 383 q 756 135 828 206 q 595 22 685 64 q 401 -19 506 -19 q 161 67 247 -19 q 75 314 75 154 m 638 1042 q 660 1111 642 1085 q 701 1158 679 1138 q 738 1200 722 1178 q 754 1258 754 1222 q 734 1313 754 1296 q 678 1331 714 1331 q 646 1326 663 1331 q 617 1308 629 1322 q 641 1288 632 1301 q 650 1254 650 1274 q 631 1209 650 1228 q 582 1190 613 1190 q 540 1206 556 1190 q 524 1246 524 1221 q 545 1297 524 1275 q 597 1332 567 1318 q 639 1346 613 1339 q 704 1353 665 1353 q 806 1333 763 1353 q 850 1263 850 1313 q 833 1210 850 1231 q 789 1175 815 1190 q 736 1143 763 1160 q 690 1103 710 1126 q 665 1042 669 1079 l 638 1042 z "},"Ỡ":{"ha":1013,"x_min":75,"x_max":1171,"o":"m 772 950 l 761 982 q 950 983 881 971 q 1071 1029 1019 994 l 1069 1019 q 1030 1061 1047 1036 q 1013 1118 1013 1086 q 1033 1175 1013 1150 q 1093 1200 1053 1200 q 1151 1177 1132 1200 q 1171 1124 1171 1154 q 1146 1056 1171 1089 q 1081 1000 1121 1024 q 951 955 1028 969 q 772 950 875 940 m 642 978 q 516 940 578 978 q 401 834 454 901 q 308 680 349 767 q 245 494 268 593 q 222 296 222 396 q 276 83 222 160 q 414 6 329 6 q 540 44 478 6 q 654 149 601 82 q 747 303 707 217 q 810 489 788 390 q 833 688 833 588 q 780 901 833 824 q 642 978 726 978 m 75 314 q 101 503 75 406 q 178 689 128 600 q 299 849 228 778 q 460 961 371 919 q 654 1003 549 1003 q 895 916 808 1003 q 982 668 982 829 q 955 480 982 576 q 878 294 928 383 q 756 135 828 206 q 595 22 685 64 q 401 -19 506 -19 q 161 67 247 -19 q 75 314 75 154 m 594 1243 q 672 1228 642 1243 q 726 1192 703 1213 q 774 1157 749 1172 q 835 1142 799 1142 q 884 1160 860 1142 q 932 1222 908 1179 l 957 1215 q 875 1106 925 1139 q 776 1072 825 1072 q 699 1088 729 1072 q 645 1123 668 1103 q 597 1158 622 1143 q 536 1174 572 1174 q 487 1156 511 1174 q 439 1093 463 1138 l 414 1100 q 496 1210 446 1178 q 594 1243 546 1243 z "},"Ő":{"ha":1013,"x_min":75,"x_max":1033,"o":"m 642 978 q 516 940 578 978 q 401 834 454 901 q 308 680 349 767 q 245 494 268 593 q 222 296 222 396 q 276 83 222 160 q 414 6 329 6 q 540 44 478 6 q 654 149 601 82 q 747 303 707 217 q 810 489 788 390 q 833 688 833 588 q 780 901 833 824 q 642 978 726 978 m 75 314 q 101 503 75 406 q 178 689 128 600 q 299 849 228 778 q 460 961 371 919 q 654 1003 549 1003 q 895 916 808 1003 q 982 668 982 829 q 955 480 982 576 q 878 294 928 383 q 756 135 828 206 q 595 22 685 64 q 401 -19 506 -19 q 161 67 247 -19 q 75 314 75 154 m 719 1089 q 799 1158 763 1122 q 868 1226 835 1193 q 933 1281 901 1258 q 975 1299 949 1292 q 1018 1283 1001 1307 q 1017 1238 1033 1261 q 979 1199 1001 1214 q 906 1158 947 1176 q 819 1119 864 1139 q 728 1072 774 1100 l 719 1089 m 460 1089 q 539 1158 503 1122 q 608 1226 575 1193 q 674 1281 642 1258 q 718 1299 690 1293 q 760 1281 746 1306 q 757 1237 771 1258 q 719 1199 743 1215 q 646 1158 688 1176 q 559 1119 604 1139 q 468 1072 514 1100 l 460 1089 z "},"Ō":{"ha":1013,"x_min":75,"x_max":982,"o":"m 642 978 q 516 940 578 978 q 401 834 454 901 q 308 680 349 767 q 245 494 268 593 q 222 296 222 396 q 276 83 222 160 q 414 6 329 6 q 540 44 478 6 q 654 149 601 82 q 747 303 707 217 q 810 489 788 390 q 833 688 833 588 q 780 901 833 824 q 642 978 726 978 m 75 314 q 101 503 75 406 q 178 689 128 600 q 299 849 228 778 q 460 961 371 919 q 654 1003 549 1003 q 895 916 808 1003 q 982 668 982 829 q 955 480 982 576 q 878 294 928 383 q 756 135 828 206 q 595 22 685 64 q 401 -19 506 -19 q 161 67 247 -19 q 75 314 75 154 m 897 1172 l 889 1138 l 400 1138 l 408 1172 l 897 1172 z "},"Ø":{"ha":1013,"x_min":-28,"x_max":1093,"o":"m 642 978 q 516 940 578 978 q 401 834 454 901 q 308 680 349 767 q 245 494 268 593 q 222 296 222 396 q 276 83 222 160 q 414 6 329 6 q 540 44 478 6 q 654 149 601 82 q 747 303 707 217 q 810 489 788 390 q 833 688 833 588 q 780 901 833 824 q 642 978 726 978 m 75 314 q 101 503 75 406 q 178 689 128 600 q 299 849 228 778 q 460 961 371 919 q 654 1003 549 1003 q 895 916 808 1003 q 982 668 982 829 q 955 480 982 576 q 878 294 928 383 q 756 135 828 206 q 595 22 685 64 q 401 -19 506 -19 q 161 67 247 -19 q 75 314 75 154 m 885 878 l 1072 1074 l 1093 1056 l 899 850 l 885 878 m 192 107 l -4 -101 l -28 -82 l 174 132 l 192 107 m 185 132 l 875 878 l 889 850 l 203 107 l 185 132 z "},"Ǿ":{"ha":1013,"x_min":-28,"x_max":1093,"o":"m 642 978 q 516 940 578 978 q 401 834 454 901 q 308 680 349 767 q 245 494 268 593 q 222 296 222 396 q 276 83 222 160 q 414 6 329 6 q 540 44 478 6 q 654 149 601 82 q 747 303 707 217 q 810 489 788 390 q 833 688 833 588 q 780 901 833 824 q 642 978 726 978 m 75 314 q 101 503 75 406 q 178 689 128 600 q 299 849 228 778 q 460 961 371 919 q 654 1003 549 1003 q 895 916 808 1003 q 982 668 982 829 q 955 480 982 576 q 878 294 928 383 q 756 135 828 206 q 595 22 685 64 q 401 -19 506 -19 q 161 67 247 -19 q 75 314 75 154 m 885 878 l 1072 1074 l 1093 1056 l 899 850 l 885 878 m 192 107 l -4 -101 l -28 -82 l 174 132 l 192 107 m 185 132 l 875 878 l 889 850 l 203 107 l 185 132 m 626 1088 q 748 1174 700 1138 q 831 1238 796 1211 q 899 1285 867 1265 q 931 1298 913 1293 q 967 1299 950 1303 q 990 1278 983 1296 q 983 1235 1000 1256 q 944 1203 965 1214 q 871 1169 913 1185 q 772 1133 829 1154 q 636 1072 715 1111 l 626 1088 z "},"Õ":{"ha":1013,"x_min":75,"x_max":982,"o":"m 642 978 q 516 940 578 978 q 401 834 454 901 q 308 680 349 767 q 245 494 268 593 q 222 296 222 396 q 276 83 222 160 q 414 6 329 6 q 540 44 478 6 q 654 149 601 82 q 747 303 707 217 q 810 489 788 390 q 833 688 833 588 q 780 901 833 824 q 642 978 726 978 m 75 314 q 101 503 75 406 q 178 689 128 600 q 299 849 228 778 q 460 961 371 919 q 654 1003 549 1003 q 895 916 808 1003 q 982 668 982 829 q 955 480 982 576 q 878 294 928 383 q 756 135 828 206 q 595 22 685 64 q 401 -19 506 -19 q 161 67 247 -19 q 75 314 75 154 m 594 1243 q 672 1228 642 1243 q 726 1192 703 1213 q 774 1157 749 1172 q 835 1142 799 1142 q 884 1160 860 1142 q 932 1222 908 1179 l 957 1215 q 875 1106 925 1139 q 776 1072 825 1072 q 699 1088 729 1072 q 645 1123 668 1103 q 597 1158 622 1143 q 536 1174 572 1174 q 487 1156 511 1174 q 439 1093 463 1138 l 414 1100 q 496 1210 446 1178 q 594 1243 546 1243 z "},"Œ":{"ha":1328,"x_min":78,"x_max":1379,"o":"m 769 481 l 775 508 l 1058 508 l 1053 481 l 769 481 m 960 508 q 1027 531 1001 508 q 1070 588 1053 553 q 1103 664 1088 624 l 1133 664 q 1106 574 1115 610 q 1086 494 1097 539 q 1069 429 1078 464 q 1050 325 1061 394 l 1019 325 q 1024 375 1019 349 q 1026 424 1028 401 q 1009 463 1025 447 q 954 481 993 478 l 960 508 m 389 6 q 526 34 476 6 q 599 147 576 63 l 782 836 q 782 929 799 899 q 726 969 765 960 q 633 978 686 978 q 508 940 568 978 q 396 834 447 901 q 306 680 344 767 q 247 494 268 593 q 225 296 225 396 q 271 83 225 160 q 389 6 317 6 m 1278 733 q 1274 904 1300 857 q 1165 951 1249 951 l 1050 951 q 978 944 1004 951 q 939 912 953 936 q 911 836 925 888 l 728 147 q 717 72 715 97 q 740 40 718 47 q 807 32 761 32 l 936 32 q 1047 56 1003 32 q 1122 133 1090 79 q 1185 278 1154 186 l 1215 278 q 1201 233 1207 260 q 1186 178 1194 207 q 1168 102 1179 151 q 1150 0 1157 53 q 999 3 1082 3 q 850 4 917 4 q 761 4 815 4 q 644 3 707 4 q 518 1 581 3 q 449 -14 486 -8 q 376 -19 413 -19 q 156 67 235 -19 q 78 314 78 154 q 103 503 78 406 q 176 689 128 600 q 291 849 224 778 q 444 961 358 919 q 629 1003 529 1003 q 704 998 669 1003 q 769 982 739 993 q 901 980 835 981 q 1026 979 968 979 q 1119 979 1083 979 q 1248 980 1176 979 q 1379 983 1319 981 q 1347 889 1361 935 q 1326 819 1333 843 q 1313 772 1317 794 q 1308 733 1308 749 l 1278 733 z "},"P":{"ha":818,"x_min":-46,"x_max":861,"o":"m 282 394 l 289 422 l 351 422 q 525 451 454 422 q 639 531 596 479 q 701 649 682 582 q 721 794 721 717 q 680 916 721 876 q 544 956 639 956 q 480 945 504 956 q 441 909 456 935 q 414 836 426 883 l 231 147 q 218 78 219 104 q 237 41 217 53 q 313 28 257 29 l 307 0 q 229 3 275 3 q 135 4 183 4 q 32 3 81 4 q -46 0 -17 3 l -40 28 q 33 39 7 31 q 75 72 60 47 q 103 147 90 97 l 286 836 q 298 906 299 881 q 276 944 297 932 q 204 956 256 956 l 211 983 q 288 981 239 982 q 382 979 336 979 q 483 981 432 979 q 585 982 533 982 q 793 924 725 982 q 861 772 861 867 q 795 578 861 664 q 611 444 729 493 q 338 394 493 394 l 282 394 z "},"Þ":{"ha":840,"x_min":-46,"x_max":826,"o":"m 347 796 q 448 797 397 796 q 550 799 499 799 q 758 741 690 799 q 826 589 826 683 q 760 395 826 481 q 576 260 694 310 q 303 211 458 211 l 247 211 q 251 225 247 211 q 254 239 254 239 l 317 239 q 490 267 419 239 q 604 347 561 296 q 667 466 647 399 q 686 611 686 533 q 645 733 686 693 q 510 772 604 772 q 445 771 469 772 q 401 768 421 769 q 349 764 381 767 l 347 796 m 231 147 q 219 72 218 97 q 243 39 221 47 q 313 28 265 31 l 307 0 q 227 3 275 3 q 131 4 179 4 q 31 3 76 4 q -46 0 -15 3 l -39 28 q 33 39 7 31 q 74 72 58 47 q 101 147 89 97 l 285 836 q 296 912 299 888 q 272 945 293 936 q 203 956 250 954 l 210 983 q 285 981 238 982 q 386 979 332 979 q 483 981 435 979 q 564 983 531 982 l 557 956 q 483 945 510 954 q 442 912 457 936 q 414 836 428 888 l 231 147 z "},"Q":{"ha":1085,"x_min":-62,"x_max":1044,"o":"m 415 338 q 281 369 336 338 q 197 455 225 400 q 168 581 168 510 q 212 750 168 672 q 330 884 256 828 q 497 972 404 940 q 686 1003 589 1003 q 878 968 797 1003 q 1001 869 958 933 q 1044 715 1044 806 q 1007 541 1044 628 q 905 372 969 454 q 758 217 840 290 q 583 83 675 144 q 401 -22 492 22 q 227 -90 310 -65 q 82 -114 144 -114 q -24 -86 14 -114 q -62 -11 -62 -58 q -40 53 -62 25 q 20 97 -18 82 q 107 113 58 113 q 230 84 175 113 q 335 15 285 56 q 442 -68 386 -26 q 566 -138 497 -110 q 728 -167 635 -167 q 808 -158 771 -167 q 875 -129 844 -150 q 928 -72 906 -108 q 907 -78 918 -76 q 885 -81 896 -81 q 835 -61 853 -81 q 817 -14 817 -42 q 840 44 817 18 q 899 69 864 69 q 949 49 929 69 q 968 -10 968 28 q 936 -102 968 -57 q 852 -183 904 -147 q 738 -240 800 -218 q 613 -261 675 -261 q 488 -236 544 -261 q 385 -172 432 -211 q 297 -90 338 -133 q 217 -7 256 -46 q 142 57 179 32 q 65 82 106 82 q -4 58 28 82 q -36 -8 -36 35 q 0 -71 -36 -51 q 97 -90 36 -90 q 167 -83 131 -90 q 242 -62 203 -75 q 318 -33 281 -50 q 488 63 404 4 q 645 195 571 121 q 777 354 719 269 q 867 528 835 439 q 900 707 900 618 q 839 903 900 828 q 663 978 778 978 q 517 942 582 978 q 406 847 453 907 q 335 715 360 788 q 310 568 310 643 q 331 455 310 499 q 388 390 351 411 q 468 369 424 369 q 581 403 532 369 q 658 489 631 438 q 686 589 686 540 q 684 619 686 603 q 676 644 682 635 q 633 599 663 615 q 574 582 604 582 q 526 601 543 582 q 508 647 508 619 q 535 708 508 683 q 604 732 563 732 q 684 694 654 732 q 714 596 714 657 q 676 469 714 528 q 571 374 638 410 q 415 338 504 338 z "},"R":{"ha":922,"x_min":-46,"x_max":861,"o":"m 310 490 q 429 484 386 488 q 498 478 472 481 q 547 471 524 475 q 619 451 589 463 q 669 418 650 439 q 696 366 688 397 q 700 288 704 335 l 689 146 q 694 67 686 104 q 733 32 701 31 q 777 63 758 33 q 815 149 796 93 l 822 168 l 854 168 l 849 150 q 787 23 825 65 q 683 -19 749 -19 q 585 22 615 -19 q 558 114 554 63 l 569 269 q 559 386 575 343 q 485 448 543 429 q 307 467 428 467 l 310 490 m 296 467 l 303 494 l 365 494 q 533 517 465 494 q 642 582 601 540 q 702 678 683 624 q 721 794 721 732 q 680 916 721 876 q 544 956 639 956 q 458 931 483 956 q 414 836 433 907 l 231 147 q 218 78 219 104 q 238 41 217 53 q 313 28 260 29 l 307 0 q 229 3 275 3 q 135 4 183 4 q 32 3 81 4 q -46 0 -17 3 l -40 28 q 33 39 7 31 q 75 72 60 47 q 103 147 90 97 l 286 836 q 298 906 299 881 q 276 944 297 932 q 204 956 256 956 l 211 983 q 258 981 231 982 q 319 980 286 981 q 382 979 351 979 q 483 981 432 979 q 585 982 533 982 q 793 928 725 982 q 861 786 861 875 q 797 622 861 693 q 617 508 732 550 q 351 467 503 467 l 296 467 z "},"Ŕ":{"ha":922,"x_min":-46,"x_max":918,"o":"m 310 490 q 429 484 386 488 q 498 478 472 481 q 547 471 524 475 q 619 451 589 463 q 669 418 650 439 q 696 366 688 397 q 700 288 704 335 l 689 146 q 694 67 686 104 q 733 32 701 31 q 777 63 758 33 q 815 149 796 93 l 822 168 l 854 168 l 849 150 q 787 23 825 65 q 683 -19 749 -19 q 585 22 615 -19 q 558 114 554 63 l 569 269 q 559 386 575 343 q 485 448 543 429 q 307 467 428 467 l 310 490 m 296 467 l 303 494 l 365 494 q 533 517 465 494 q 642 582 601 540 q 702 678 683 624 q 721 794 721 732 q 680 916 721 876 q 544 956 639 956 q 458 931 483 956 q 414 836 433 907 l 231 147 q 218 78 219 104 q 238 41 217 53 q 313 28 260 29 l 307 0 q 229 3 275 3 q 135 4 183 4 q 32 3 81 4 q -46 0 -17 3 l -40 28 q 33 39 7 31 q 75 72 60 47 q 103 147 90 97 l 286 836 q 298 906 299 881 q 276 944 297 932 q 204 956 256 956 l 211 983 q 258 981 231 982 q 319 980 286 981 q 382 979 351 979 q 483 981 432 979 q 585 982 533 982 q 793 928 725 982 q 861 786 861 875 q 797 622 861 693 q 617 508 732 550 q 351 467 503 467 l 296 467 m 544 1088 q 666 1174 618 1138 q 749 1238 714 1211 q 817 1285 785 1265 q 849 1298 831 1293 q 885 1299 868 1303 q 908 1278 901 1296 q 901 1235 918 1256 q 863 1203 883 1214 q 789 1169 831 1185 q 690 1133 747 1154 q 554 1072 633 1111 l 544 1088 z "},"Ř":{"ha":922,"x_min":-46,"x_max":903,"o":"m 310 490 q 429 484 386 488 q 498 478 472 481 q 547 471 524 475 q 619 451 589 463 q 669 418 650 439 q 696 366 688 397 q 700 288 704 335 l 689 146 q 694 67 686 104 q 733 32 701 31 q 777 63 758 33 q 815 149 796 93 l 822 168 l 854 168 l 849 150 q 787 23 825 65 q 683 -19 749 -19 q 585 22 615 -19 q 558 114 554 63 l 569 269 q 559 386 575 343 q 485 448 543 429 q 307 467 428 467 l 310 490 m 296 467 l 303 494 l 365 494 q 533 517 465 494 q 642 582 601 540 q 702 678 683 624 q 721 794 721 732 q 680 916 721 876 q 544 956 639 956 q 458 931 483 956 q 414 836 433 907 l 231 147 q 218 78 219 104 q 238 41 217 53 q 313 28 260 29 l 307 0 q 229 3 275 3 q 135 4 183 4 q 32 3 81 4 q -46 0 -17 3 l -40 28 q 33 39 7 31 q 75 72 60 47 q 103 147 90 97 l 286 836 q 298 906 299 881 q 276 944 297 932 q 204 956 256 956 l 211 983 q 258 981 231 982 q 319 980 286 981 q 382 979 351 979 q 483 981 432 979 q 585 982 533 982 q 793 928 725 982 q 861 786 861 875 q 797 622 861 693 q 617 508 732 550 q 351 467 503 467 l 296 467 m 610 1189 q 742 1240 664 1213 q 896 1283 821 1267 l 903 1264 q 715 1185 801 1233 q 576 1083 629 1136 l 551 1083 q 473 1190 517 1144 q 358 1264 429 1236 l 364 1283 q 469 1257 428 1272 q 544 1224 511 1242 q 610 1189 576 1207 z "},"Ŗ":{"ha":922,"x_min":-46,"x_max":861,"o":"m 310 490 q 429 484 386 488 q 498 478 472 481 q 547 471 524 475 q 619 451 589 463 q 669 418 650 439 q 696 366 688 397 q 700 288 704 335 l 689 146 q 694 67 686 104 q 733 32 701 31 q 777 63 758 33 q 815 149 796 93 l 822 168 l 854 168 l 849 150 q 787 23 825 65 q 683 -19 749 -19 q 585 22 615 -19 q 558 114 554 63 l 569 269 q 559 386 575 343 q 485 448 543 429 q 307 467 428 467 l 310 490 m 296 467 l 303 494 l 365 494 q 533 517 465 494 q 642 582 601 540 q 702 678 683 624 q 721 794 721 732 q 680 916 721 876 q 544 956 639 956 q 458 931 483 956 q 414 836 433 907 l 231 147 q 218 78 219 104 q 238 41 217 53 q 313 28 260 29 l 307 0 q 229 3 275 3 q 135 4 183 4 q 32 3 81 4 q -46 0 -17 3 l -40 28 q 33 39 7 31 q 75 72 60 47 q 103 147 90 97 l 286 836 q 298 906 299 881 q 276 944 297 932 q 204 956 256 956 l 211 983 q 258 981 231 982 q 319 980 286 981 q 382 979 351 979 q 483 981 432 979 q 585 982 533 982 q 793 928 725 982 q 861 786 861 875 q 797 622 861 693 q 617 508 732 550 q 351 467 503 467 l 296 467 m 383 -96 q 440 -119 419 -96 q 460 -176 460 -142 q 435 -263 460 -221 q 324 -335 410 -306 l 314 -311 q 380 -278 346 -301 q 417 -222 414 -256 q 390 -238 407 -232 q 356 -244 374 -244 q 311 -229 329 -244 q 293 -186 293 -214 q 317 -126 293 -156 q 383 -96 340 -96 z "},"S":{"ha":769,"x_min":-25,"x_max":800,"o":"m 800 993 q 763 888 786 957 q 718 710 740 819 l 690 710 q 697 750 694 729 q 699 789 699 771 q 678 883 699 840 q 615 951 658 925 q 501 976 572 976 q 363 933 418 976 q 307 800 307 890 q 333 702 307 747 q 398 616 358 657 q 483 534 438 575 q 567 450 528 493 q 633 359 607 407 q 658 253 658 311 q 626 129 658 181 q 543 45 594 78 q 430 -3 492 13 q 307 -19 368 -19 q 214 -9 251 -19 q 151 17 176 1 q 110 44 126 32 q 81 61 94 57 q 60 65 68 65 q 30 47 42 65 q 3 -10 18 28 l -25 -10 q 1 61 -12 21 q 32 165 15 101 q 69 324 49 228 l 97 324 q 88 267 92 294 q 85 211 83 240 q 143 63 89 117 q 311 8 197 8 q 458 50 401 8 q 515 182 515 92 q 492 286 515 240 q 433 372 469 332 q 355 449 396 411 q 277 527 314 486 q 217 618 240 568 q 194 732 194 668 q 221 849 194 799 q 291 934 247 900 q 389 985 335 968 q 500 1003 443 1003 q 600 989 558 1003 q 681 944 642 975 q 708 926 697 932 q 726 919 719 919 q 772 993 746 919 l 800 993 z "},"Ś":{"ha":769,"x_min":-25,"x_max":890,"o":"m 800 993 q 763 888 786 957 q 718 710 740 819 l 690 710 q 697 750 694 729 q 699 789 699 771 q 678 883 699 840 q 615 951 658 925 q 501 976 572 976 q 363 933 418 976 q 307 800 307 890 q 333 702 307 747 q 398 616 358 657 q 483 534 438 575 q 567 450 528 493 q 633 359 607 407 q 658 253 658 311 q 626 129 658 181 q 543 45 594 78 q 430 -3 492 13 q 307 -19 368 -19 q 214 -9 251 -19 q 151 17 176 1 q 110 44 126 32 q 81 61 94 57 q 60 65 68 65 q 30 47 42 65 q 3 -10 18 28 l -25 -10 q 1 61 -12 21 q 32 165 15 101 q 69 324 49 228 l 97 324 q 88 267 92 294 q 85 211 83 240 q 143 63 89 117 q 311 8 197 8 q 458 50 401 8 q 515 182 515 92 q 492 286 515 240 q 433 372 469 332 q 355 449 396 411 q 277 527 314 486 q 217 618 240 568 q 194 732 194 668 q 221 849 194 799 q 291 934 247 900 q 389 985 335 968 q 500 1003 443 1003 q 600 989 558 1003 q 681 944 642 975 q 708 926 697 932 q 726 919 719 919 q 772 993 746 919 l 800 993 m 517 1088 q 638 1174 590 1138 q 722 1238 686 1211 q 789 1285 757 1265 q 822 1298 803 1293 q 857 1299 840 1303 q 881 1278 874 1296 q 873 1235 890 1256 q 835 1203 856 1214 q 761 1169 803 1185 q 663 1133 719 1154 q 526 1072 606 1111 l 517 1088 z "},"Š":{"ha":769,"x_min":-25,"x_max":875,"o":"m 800 993 q 763 888 786 957 q 718 710 740 819 l 690 710 q 697 750 694 729 q 699 789 699 771 q 678 883 699 840 q 615 951 658 925 q 501 976 572 976 q 363 933 418 976 q 307 800 307 890 q 333 702 307 747 q 398 616 358 657 q 483 534 438 575 q 567 450 528 493 q 633 359 607 407 q 658 253 658 311 q 626 129 658 181 q 543 45 594 78 q 430 -3 492 13 q 307 -19 368 -19 q 214 -9 251 -19 q 151 17 176 1 q 110 44 126 32 q 81 61 94 57 q 60 65 68 65 q 30 47 42 65 q 3 -10 18 28 l -25 -10 q 1 61 -12 21 q 32 165 15 101 q 69 324 49 228 l 97 324 q 88 267 92 294 q 85 211 83 240 q 143 63 89 117 q 311 8 197 8 q 458 50 401 8 q 515 182 515 92 q 492 286 515 240 q 433 372 469 332 q 355 449 396 411 q 277 527 314 486 q 217 618 240 568 q 194 732 194 668 q 221 849 194 799 q 291 934 247 900 q 389 985 335 968 q 500 1003 443 1003 q 600 989 558 1003 q 681 944 642 975 q 708 926 697 932 q 726 919 719 919 q 772 993 746 919 l 800 993 m 582 1189 q 715 1240 636 1213 q 868 1283 793 1267 l 875 1264 q 688 1185 774 1233 q 549 1083 601 1136 l 524 1083 q 445 1190 489 1144 q 331 1264 401 1236 l 336 1283 q 442 1257 400 1272 q 516 1224 483 1242 q 582 1189 549 1207 z "},"Ş":{"ha":769,"x_min":-25,"x_max":800,"o":"m 800 993 q 763 888 786 957 q 718 710 740 819 l 690 710 q 697 750 694 729 q 699 789 699 771 q 678 883 699 840 q 615 951 658 925 q 501 976 572 976 q 363 933 418 976 q 307 800 307 890 q 333 702 307 747 q 398 616 358 657 q 483 534 438 575 q 567 450 528 493 q 633 359 607 407 q 658 253 658 311 q 626 129 658 181 q 543 45 594 78 q 430 -3 492 13 q 307 -19 368 -19 q 214 -9 251 -19 q 151 17 176 1 q 110 44 126 32 q 81 61 94 57 q 60 65 68 65 q 30 47 42 65 q 3 -10 18 28 l -25 -10 q 1 61 -12 21 q 32 165 15 101 q 69 324 49 228 l 97 324 q 88 267 92 294 q 85 211 83 240 q 143 63 89 117 q 311 8 197 8 q 458 50 401 8 q 515 182 515 92 q 492 286 515 240 q 433 372 469 332 q 355 449 396 411 q 277 527 314 486 q 217 618 240 568 q 194 732 194 668 q 221 849 194 799 q 291 934 247 900 q 389 985 335 968 q 500 1003 443 1003 q 600 989 558 1003 q 681 944 642 975 q 708 926 697 932 q 726 919 719 919 q 772 993 746 919 l 800 993 m 318 6 l 268 -100 q 302 -93 283 -96 q 339 -90 321 -90 q 393 -105 374 -90 q 413 -146 413 -119 q 378 -212 413 -186 q 294 -249 343 -237 q 200 -261 244 -261 q 115 -251 151 -261 q 61 -231 79 -242 l 71 -210 q 108 -221 82 -214 q 182 -228 135 -228 q 237 -222 203 -228 q 297 -200 271 -215 q 324 -157 324 -185 q 271 -124 324 -124 q 245 -126 261 -124 q 214 -133 229 -128 l 281 6 l 318 6 z "},"Ŝ":{"ha":769,"x_min":-25,"x_max":804,"o":"m 800 993 q 763 888 786 957 q 718 710 740 819 l 690 710 q 697 750 694 729 q 699 789 699 771 q 678 883 699 840 q 615 951 658 925 q 501 976 572 976 q 363 933 418 976 q 307 800 307 890 q 333 702 307 747 q 398 616 358 657 q 483 534 438 575 q 567 450 528 493 q 633 359 607 407 q 658 253 658 311 q 626 129 658 181 q 543 45 594 78 q 430 -3 492 13 q 307 -19 368 -19 q 214 -9 251 -19 q 151 17 176 1 q 110 44 126 32 q 81 61 94 57 q 60 65 68 65 q 30 47 42 65 q 3 -10 18 28 l -25 -10 q 1 61 -12 21 q 32 165 15 101 q 69 324 49 228 l 97 324 q 88 267 92 294 q 85 211 83 240 q 143 63 89 117 q 311 8 197 8 q 458 50 401 8 q 515 182 515 92 q 492 286 515 240 q 433 372 469 332 q 355 449 396 411 q 277 527 314 486 q 217 618 240 568 q 194 732 194 668 q 221 849 194 799 q 291 934 247 900 q 389 985 335 968 q 500 1003 443 1003 q 600 989 558 1003 q 681 944 642 975 q 708 926 697 932 q 726 919 719 919 q 772 993 746 919 l 800 993 m 553 1167 q 420 1117 499 1144 q 267 1072 342 1089 l 260 1092 q 447 1172 361 1124 q 586 1272 533 1219 l 611 1272 q 690 1166 647 1213 q 804 1092 733 1119 l 799 1072 q 694 1099 736 1085 q 619 1131 651 1114 q 553 1167 586 1149 z "},"Ș":{"ha":769,"x_min":-25,"x_max":800,"o":"m 800 993 q 763 888 786 957 q 718 710 740 819 l 690 710 q 697 750 694 729 q 699 789 699 771 q 678 883 699 840 q 615 951 658 925 q 501 976 572 976 q 363 933 418 976 q 307 800 307 890 q 333 702 307 747 q 398 616 358 657 q 483 534 438 575 q 567 450 528 493 q 633 359 607 407 q 658 253 658 311 q 626 129 658 181 q 543 45 594 78 q 430 -3 492 13 q 307 -19 368 -19 q 214 -9 251 -19 q 151 17 176 1 q 110 44 126 32 q 81 61 94 57 q 60 65 68 65 q 30 47 42 65 q 3 -10 18 28 l -25 -10 q 1 61 -12 21 q 32 165 15 101 q 69 324 49 228 l 97 324 q 88 267 92 294 q 85 211 83 240 q 143 63 89 117 q 311 8 197 8 q 458 50 401 8 q 515 182 515 92 q 492 286 515 240 q 433 372 469 332 q 355 449 396 411 q 277 527 314 486 q 217 618 240 568 q 194 732 194 668 q 221 849 194 799 q 291 934 247 900 q 389 985 335 968 q 500 1003 443 1003 q 600 989 558 1003 q 681 944 642 975 q 708 926 697 932 q 726 919 719 919 q 772 993 746 919 l 800 993 m 275 -96 q 331 -119 311 -96 q 351 -176 351 -142 q 326 -263 351 -221 q 215 -335 301 -306 l 206 -311 q 272 -278 238 -301 q 308 -222 306 -256 q 282 -238 299 -232 q 247 -244 265 -244 q 203 -229 221 -244 q 185 -186 185 -214 q 208 -126 185 -156 q 275 -96 232 -96 z "},"ẞ":{"ha":803,"x_min":-74,"x_max":789,"o":"m 63 -242 q -9 -247 25 -243 q -74 -261 -43 -251 l 168 635 q 262 842 203 761 q 401 963 321 924 q 579 1003 482 1003 q 733 963 678 1003 q 789 835 789 922 q 744 691 789 754 q 629 585 700 628 q 479 519 558 542 q 616 476 565 510 q 690 393 667 442 q 713 289 713 344 q 683 165 713 221 q 605 67 654 108 q 493 3 556 26 q 364 -19 431 -19 q 262 0 306 -19 q 218 58 218 19 q 228 96 218 78 q 257 126 239 114 q 297 139 275 139 q 339 122 324 139 q 354 82 354 106 q 339 42 354 60 q 300 13 324 24 q 337 5 317 7 q 371 3 357 3 q 480 38 433 3 q 553 134 526 72 q 579 276 579 196 q 565 389 579 336 q 522 474 550 442 q 451 507 493 507 q 413 495 429 500 q 381 490 396 490 q 351 507 351 490 q 362 526 351 517 q 394 535 372 535 q 423 531 407 535 q 460 522 439 528 q 571 601 528 547 q 635 723 614 656 q 656 853 656 790 q 634 947 656 911 q 551 982 613 982 q 469 960 513 982 q 388 881 426 939 q 319 714 349 824 l 63 -242 z "},"Ə":{"ha":1011,"x_min":75,"x_max":982,"o":"m 397 -19 q 226 19 299 -19 q 114 133 153 58 q 75 318 75 208 q 83 414 75 367 q 103 508 90 461 l 853 508 l 847 482 l 242 482 q 227 394 232 439 q 222 306 222 350 q 275 84 222 163 q 415 6 328 6 q 540 45 479 6 q 655 153 601 85 q 749 307 708 221 q 812 486 789 393 q 835 668 835 579 q 772 891 835 815 q 603 967 710 967 q 472 941 539 967 q 354 869 404 915 q 290 785 317 835 q 231 650 263 735 l 199 650 q 231 770 218 717 q 255 874 244 824 q 275 983 265 925 l 307 983 q 304 958 306 971 q 303 936 303 946 q 321 901 303 901 q 353 913 333 901 q 449 962 406 942 q 538 992 493 982 q 642 1003 583 1003 q 897 914 811 1003 q 982 668 982 825 q 956 487 982 582 q 881 302 931 392 q 761 140 832 213 q 599 24 690 67 q 397 -19 507 -19 z "},"T":{"ha":915,"x_min":138,"x_max":1129,"o":"m 1067 1135 q 1114 1115 1099 1135 q 1129 1068 1129 1096 q 1110 1010 1129 1036 q 1064 968 1092 985 q 974 934 1029 946 q 844 922 919 922 q 728 928 786 922 q 615 943 671 935 q 506 958 560 951 q 399 964 451 964 q 310 960 356 964 q 243 940 265 956 q 261 903 254 926 q 268 860 268 881 q 251 806 268 832 q 199 779 235 779 q 153 799 168 779 q 138 849 138 818 q 153 906 138 876 q 211 957 168 936 q 280 979 243 972 q 349 988 317 986 q 397 989 382 989 q 554 979 481 989 q 701 960 628 969 q 854 950 774 950 q 962 958 918 950 q 1040 985 1006 965 l 1039 975 q 1012 1010 1025 989 q 999 1058 999 1032 q 1015 1110 999 1086 q 1067 1135 1032 1135 m 581 960 q 593 958 581 960 q 624 954 606 957 q 662 949 643 951 q 693 944 681 946 q 706 943 706 943 l 497 161 q 486 80 483 108 q 516 40 489 51 q 601 28 543 29 l 596 0 q 504 3 560 3 q 389 4 449 4 q 274 3 329 4 q 186 0 219 3 l 192 28 q 283 42 250 31 q 334 83 315 54 q 368 161 353 111 l 581 960 z "},"Ŧ":{"ha":915,"x_min":138,"x_max":1129,"o":"m 1067 1135 q 1114 1115 1099 1135 q 1129 1068 1129 1096 q 1110 1010 1129 1036 q 1064 968 1092 985 q 974 934 1029 946 q 844 922 919 922 q 728 928 786 922 q 615 943 671 935 q 506 958 560 951 q 399 964 451 964 q 310 960 356 964 q 243 940 265 956 q 261 903 254 926 q 268 860 268 881 q 251 806 268 832 q 199 779 235 779 q 153 799 168 779 q 138 849 138 818 q 153 906 138 876 q 211 957 168 936 q 280 979 243 972 q 349 988 317 986 q 397 989 382 989 q 554 979 481 989 q 701 960 628 969 q 854 950 774 950 q 962 958 918 950 q 1040 985 1006 965 l 1039 975 q 1012 1010 1025 989 q 999 1058 999 1032 q 1015 1110 999 1086 q 1067 1135 1032 1135 m 581 960 q 593 958 581 960 q 624 954 606 957 q 662 949 643 951 q 693 944 681 946 q 706 943 706 943 l 497 161 q 486 80 483 108 q 516 40 489 51 q 601 28 543 29 l 596 0 q 504 3 560 3 q 389 4 449 4 q 274 3 329 4 q 186 0 219 3 l 192 28 q 283 42 250 31 q 334 83 315 54 q 368 161 353 111 l 581 960 m 801 508 l 793 474 l 221 474 l 229 508 l 801 508 z "},"Ť":{"ha":915,"x_min":138,"x_max":1129,"o":"m 1067 1135 q 1114 1115 1099 1135 q 1129 1068 1129 1096 q 1110 1010 1129 1036 q 1064 968 1092 985 q 974 934 1029 946 q 844 922 919 922 q 728 928 786 922 q 615 943 671 935 q 506 958 560 951 q 399 964 451 964 q 310 960 356 964 q 243 940 265 956 q 261 903 254 926 q 268 860 268 881 q 251 806 268 832 q 199 779 235 779 q 153 799 168 779 q 138 849 138 818 q 153 906 138 876 q 211 957 168 936 q 280 979 243 972 q 349 988 317 986 q 397 989 382 989 q 554 979 481 989 q 701 960 628 969 q 854 950 774 950 q 962 958 918 950 q 1040 985 1006 965 l 1039 975 q 1012 1010 1025 989 q 999 1058 999 1032 q 1015 1110 999 1086 q 1067 1135 1032 1135 m 581 960 q 593 958 581 960 q 624 954 606 957 q 662 949 643 951 q 693 944 681 946 q 706 943 706 943 l 497 161 q 486 80 483 108 q 516 40 489 51 q 601 28 543 29 l 596 0 q 504 3 560 3 q 389 4 449 4 q 274 3 329 4 q 186 0 219 3 l 192 28 q 283 42 250 31 q 334 83 315 54 q 368 161 353 111 l 581 960 m 697 1189 q 830 1240 751 1213 q 983 1283 908 1267 l 990 1264 q 803 1185 889 1233 q 664 1083 717 1136 l 639 1083 q 560 1190 604 1144 q 446 1264 517 1236 l 451 1283 q 557 1257 515 1272 q 631 1224 599 1242 q 697 1189 664 1207 z "},"Ţ":{"ha":915,"x_min":138,"x_max":1129,"o":"m 1067 1135 q 1114 1115 1099 1135 q 1129 1068 1129 1096 q 1110 1010 1129 1036 q 1064 968 1092 985 q 974 934 1029 946 q 844 922 919 922 q 728 928 786 922 q 615 943 671 935 q 506 958 560 951 q 399 964 451 964 q 310 960 356 964 q 243 940 265 956 q 261 903 254 926 q 268 860 268 881 q 251 806 268 832 q 199 779 235 779 q 153 799 168 779 q 138 849 138 818 q 153 906 138 876 q 211 957 168 936 q 280 979 243 972 q 349 988 317 986 q 397 989 382 989 q 554 979 481 989 q 701 960 628 969 q 854 950 774 950 q 962 958 918 950 q 1040 985 1006 965 l 1039 975 q 1012 1010 1025 989 q 999 1058 999 1032 q 1015 1110 999 1086 q 1067 1135 1032 1135 m 581 960 q 593 958 581 960 q 624 954 606 957 q 662 949 643 951 q 693 944 681 946 q 706 943 706 943 l 497 161 q 486 80 483 108 q 516 40 489 51 q 601 28 543 29 l 596 0 q 504 3 560 3 q 389 4 449 4 q 274 3 329 4 q 186 0 219 3 l 192 28 q 283 42 250 31 q 334 83 315 54 q 368 161 353 111 l 581 960 m 410 6 l 360 -100 q 394 -93 375 -96 q 431 -90 413 -90 q 485 -105 465 -90 q 504 -146 504 -119 q 469 -212 504 -186 q 385 -249 435 -237 q 292 -261 336 -261 q 207 -251 243 -261 q 153 -231 171 -242 l 163 -210 q 200 -221 174 -214 q 274 -228 226 -228 q 328 -222 294 -228 q 389 -200 363 -215 q 415 -157 415 -185 q 363 -124 415 -124 q 337 -126 353 -124 q 306 -133 321 -128 l 372 6 l 410 6 z "},"Ț":{"ha":915,"x_min":138,"x_max":1129,"o":"m 1067 1135 q 1114 1115 1099 1135 q 1129 1068 1129 1096 q 1110 1010 1129 1036 q 1064 968 1092 985 q 974 934 1029 946 q 844 922 919 922 q 728 928 786 922 q 615 943 671 935 q 506 958 560 951 q 399 964 451 964 q 310 960 356 964 q 243 940 265 956 q 261 903 254 926 q 268 860 268 881 q 251 806 268 832 q 199 779 235 779 q 153 799 168 779 q 138 849 138 818 q 153 906 138 876 q 211 957 168 936 q 280 979 243 972 q 349 988 317 986 q 397 989 382 989 q 554 979 481 989 q 701 960 628 969 q 854 950 774 950 q 962 958 918 950 q 1040 985 1006 965 l 1039 975 q 1012 1010 1025 989 q 999 1058 999 1032 q 1015 1110 999 1086 q 1067 1135 1032 1135 m 581 960 q 593 958 581 960 q 624 954 606 957 q 662 949 643 951 q 693 944 681 946 q 706 943 706 943 l 497 161 q 486 80 483 108 q 516 40 489 51 q 601 28 543 29 l 596 0 q 504 3 560 3 q 389 4 449 4 q 274 3 329 4 q 186 0 219 3 l 192 28 q 283 42 250 31 q 334 83 315 54 q 368 161 353 111 l 581 960 m 367 -96 q 423 -119 403 -96 q 443 -176 443 -142 q 418 -263 443 -221 q 307 -335 393 -306 l 297 -311 q 363 -278 329 -301 q 400 -222 397 -256 q 374 -238 390 -232 q 339 -244 357 -244 q 294 -229 313 -244 q 276 -186 276 -214 q 300 -126 276 -156 q 367 -96 324 -96 z "},"U":{"ha":947,"x_min":114,"x_max":1061,"o":"m 876 822 q 885 901 890 874 q 855 942 879 929 q 783 956 831 954 l 790 983 q 855 981 814 982 q 931 979 896 979 q 1002 981 967 979 q 1061 983 1038 982 l 1054 956 q 979 942 1007 954 q 935 901 951 929 q 907 822 919 874 l 799 404 q 663 110 749 213 q 538 16 613 51 q 378 -19 464 -19 q 255 -2 310 -19 q 164 56 200 15 q 115 193 114 113 q 150 400 117 274 l 265 836 q 276 912 279 888 q 252 945 274 936 q 183 956 231 954 l 192 983 q 268 981 219 982 q 371 979 317 979 q 465 981 419 979 q 544 983 511 982 l 536 956 q 463 945 489 954 q 422 912 436 936 q 393 836 407 888 l 271 376 q 244 242 253 306 q 246 131 235 179 q 294 56 257 83 q 404 29 332 29 q 578 76 508 29 q 692 204 647 122 q 763 389 736 286 l 876 822 z "},"Ú":{"ha":947,"x_min":114,"x_max":1061,"o":"m 876 822 q 885 901 890 874 q 855 942 879 929 q 783 956 831 954 l 790 983 q 855 981 814 982 q 931 979 896 979 q 1002 981 967 979 q 1061 983 1038 982 l 1054 956 q 979 942 1007 954 q 935 901 951 929 q 907 822 919 874 l 799 404 q 663 110 749 213 q 538 16 613 51 q 378 -19 464 -19 q 255 -2 310 -19 q 164 56 200 15 q 115 193 114 113 q 150 400 117 274 l 265 836 q 276 912 279 888 q 252 945 274 936 q 183 956 231 954 l 192 983 q 268 981 219 982 q 371 979 317 979 q 465 981 419 979 q 544 983 511 982 l 536 956 q 463 945 489 954 q 422 912 436 936 q 393 836 407 888 l 271 376 q 244 242 253 306 q 246 131 235 179 q 294 56 257 83 q 404 29 332 29 q 578 76 508 29 q 692 204 647 122 q 763 389 736 286 l 876 822 m 640 1088 q 762 1174 714 1138 q 845 1238 810 1211 q 913 1285 881 1265 q 945 1298 926 1293 q 981 1299 964 1303 q 1004 1278 997 1296 q 997 1235 1014 1256 q 958 1203 979 1214 q 885 1169 926 1185 q 786 1133 843 1154 q 650 1072 729 1111 l 640 1088 z "},"Ŭ":{"ha":947,"x_min":114,"x_max":1061,"o":"m 876 822 q 885 901 890 874 q 855 942 879 929 q 783 956 831 954 l 790 983 q 855 981 814 982 q 931 979 896 979 q 1002 981 967 979 q 1061 983 1038 982 l 1054 956 q 979 942 1007 954 q 935 901 951 929 q 907 822 919 874 l 799 404 q 663 110 749 213 q 538 16 613 51 q 378 -19 464 -19 q 255 -2 310 -19 q 164 56 200 15 q 115 193 114 113 q 150 400 117 274 l 265 836 q 276 912 279 888 q 252 945 274 936 q 183 956 231 954 l 192 983 q 268 981 219 982 q 371 979 317 979 q 465 981 419 979 q 544 983 511 982 l 536 956 q 463 945 489 954 q 422 912 436 936 q 393 836 407 888 l 271 376 q 244 242 253 306 q 246 131 235 179 q 294 56 257 83 q 404 29 332 29 q 578 76 508 29 q 692 204 647 122 q 763 389 736 286 l 876 822 m 692 1179 q 848 1200 764 1179 q 999 1260 932 1221 l 1013 1244 q 917 1172 976 1208 q 792 1110 858 1135 q 668 1086 726 1086 q 565 1108 608 1086 q 494 1166 521 1129 q 458 1247 468 1203 l 481 1254 q 566 1195 517 1211 q 692 1179 615 1179 z "},"Ǔ":{"ha":947,"x_min":114,"x_max":1061,"o":"m 876 822 q 885 901 890 874 q 855 942 879 929 q 783 956 831 954 l 790 983 q 855 981 814 982 q 931 979 896 979 q 1002 981 967 979 q 1061 983 1038 982 l 1054 956 q 979 942 1007 954 q 935 901 951 929 q 907 822 919 874 l 799 404 q 663 110 749 213 q 538 16 613 51 q 378 -19 464 -19 q 255 -2 310 -19 q 164 56 200 15 q 115 193 114 113 q 150 400 117 274 l 265 836 q 276 912 279 888 q 252 945 274 936 q 183 956 231 954 l 192 983 q 268 981 219 982 q 371 979 317 979 q 465 981 419 979 q 544 983 511 982 l 536 956 q 463 945 489 954 q 422 912 436 936 q 393 836 407 888 l 271 376 q 244 242 253 306 q 246 131 235 179 q 294 56 257 83 q 404 29 332 29 q 578 76 508 29 q 692 204 647 122 q 763 389 736 286 l 876 822 m 706 1189 q 838 1240 760 1213 q 992 1283 917 1267 l 999 1264 q 811 1185 897 1233 q 672 1083 725 1136 l 647 1083 q 569 1190 613 1144 q 454 1264 525 1236 l 460 1283 q 565 1257 524 1272 q 640 1224 607 1242 q 706 1189 672 1207 z "},"Û":{"ha":947,"x_min":114,"x_max":1061,"o":"m 876 822 q 885 901 890 874 q 855 942 879 929 q 783 956 831 954 l 790 983 q 855 981 814 982 q 931 979 896 979 q 1002 981 967 979 q 1061 983 1038 982 l 1054 956 q 979 942 1007 954 q 935 901 951 929 q 907 822 919 874 l 799 404 q 663 110 749 213 q 538 16 613 51 q 378 -19 464 -19 q 255 -2 310 -19 q 164 56 200 15 q 115 193 114 113 q 150 400 117 274 l 265 836 q 276 912 279 888 q 252 945 274 936 q 183 956 231 954 l 192 983 q 268 981 219 982 q 371 979 317 979 q 465 981 419 979 q 544 983 511 982 l 536 956 q 463 945 489 954 q 422 912 436 936 q 393 836 407 888 l 271 376 q 244 242 253 306 q 246 131 235 179 q 294 56 257 83 q 404 29 332 29 q 578 76 508 29 q 692 204 647 122 q 763 389 736 286 l 876 822 m 676 1167 q 544 1117 622 1144 q 390 1072 465 1089 l 383 1092 q 571 1172 485 1124 q 710 1272 657 1219 l 735 1272 q 814 1166 771 1213 q 928 1092 857 1119 l 922 1072 q 817 1099 860 1085 q 742 1131 775 1114 q 676 1167 710 1149 z "},"Ü":{"ha":947,"x_min":114,"x_max":1061,"o":"m 876 822 q 885 901 890 874 q 855 942 879 929 q 783 956 831 954 l 790 983 q 855 981 814 982 q 931 979 896 979 q 1002 981 967 979 q 1061 983 1038 982 l 1054 956 q 979 942 1007 954 q 935 901 951 929 q 907 822 919 874 l 799 404 q 663 110 749 213 q 538 16 613 51 q 378 -19 464 -19 q 255 -2 310 -19 q 164 56 200 15 q 115 193 114 113 q 150 400 117 274 l 265 836 q 276 912 279 888 q 252 945 274 936 q 183 956 231 954 l 192 983 q 268 981 219 982 q 371 979 317 979 q 465 981 419 979 q 544 983 511 982 l 536 956 q 463 945 489 954 q 422 912 436 936 q 393 836 407 888 l 271 376 q 244 242 253 306 q 246 131 235 179 q 294 56 257 83 q 404 29 332 29 q 578 76 508 29 q 692 204 647 122 q 763 389 736 286 l 876 822 m 467 1143 q 494 1204 467 1175 q 560 1233 522 1233 q 609 1213 589 1233 q 629 1164 629 1193 q 617 1120 629 1142 q 583 1085 604 1099 q 536 1072 561 1072 q 486 1092 506 1072 q 467 1143 467 1113 m 761 1143 q 789 1204 761 1175 q 854 1233 817 1233 q 903 1213 883 1233 q 924 1164 924 1193 q 911 1120 924 1142 q 877 1085 899 1099 q 831 1072 856 1072 q 781 1092 800 1072 q 761 1143 761 1113 z "},"Ụ":{"ha":947,"x_min":114,"x_max":1061,"o":"m 876 822 q 885 901 890 874 q 855 942 879 929 q 783 956 831 954 l 790 983 q 855 981 814 982 q 931 979 896 979 q 1002 981 967 979 q 1061 983 1038 982 l 1054 956 q 979 942 1007 954 q 935 901 951 929 q 907 822 919 874 l 799 404 q 663 110 749 213 q 538 16 613 51 q 378 -19 464 -19 q 255 -2 310 -19 q 164 56 200 15 q 115 193 114 113 q 150 400 117 274 l 265 836 q 276 912 279 888 q 252 945 274 936 q 183 956 231 954 l 192 983 q 268 981 219 982 q 371 979 317 979 q 465 981 419 979 q 544 983 511 982 l 536 956 q 463 945 489 954 q 422 912 436 936 q 393 836 407 888 l 271 376 q 244 242 253 306 q 246 131 235 179 q 294 56 257 83 q 404 29 332 29 q 578 76 508 29 q 692 204 647 122 q 763 389 736 286 l 876 822 m 349 -251 q 299 -233 318 -251 q 279 -186 279 -215 q 306 -123 279 -150 q 374 -96 332 -96 q 425 -115 407 -96 q 443 -161 443 -133 q 414 -227 443 -203 q 349 -251 385 -251 z "},"Ù":{"ha":947,"x_min":114,"x_max":1061,"o":"m 876 822 q 885 901 890 874 q 855 942 879 929 q 783 956 831 954 l 790 983 q 855 981 814 982 q 931 979 896 979 q 1002 981 967 979 q 1061 983 1038 982 l 1054 956 q 979 942 1007 954 q 935 901 951 929 q 907 822 919 874 l 799 404 q 663 110 749 213 q 538 16 613 51 q 378 -19 464 -19 q 255 -2 310 -19 q 164 56 200 15 q 115 193 114 113 q 150 400 117 274 l 265 836 q 276 912 279 888 q 252 945 274 936 q 183 956 231 954 l 192 983 q 268 981 219 982 q 371 979 317 979 q 465 981 419 979 q 544 983 511 982 l 536 956 q 463 945 489 954 q 422 912 436 936 q 393 836 407 888 l 271 376 q 244 242 253 306 q 246 131 235 179 q 294 56 257 83 q 404 29 332 29 q 578 76 508 29 q 692 204 647 122 q 763 389 736 286 l 876 822 m 701 1068 q 605 1143 646 1114 q 534 1193 564 1172 q 482 1235 504 1214 q 458 1273 468 1250 q 465 1317 449 1296 q 511 1329 483 1338 q 557 1301 539 1321 q 597 1250 578 1281 q 644 1178 617 1219 q 715 1082 672 1138 l 701 1068 z "},"Ủ":{"ha":947,"x_min":114,"x_max":1061,"o":"m 876 822 q 885 901 890 874 q 855 942 879 929 q 783 956 831 954 l 790 983 q 855 981 814 982 q 931 979 896 979 q 1002 981 967 979 q 1061 983 1038 982 l 1054 956 q 979 942 1007 954 q 935 901 951 929 q 907 822 919 874 l 799 404 q 663 110 749 213 q 538 16 613 51 q 378 -19 464 -19 q 255 -2 310 -19 q 164 56 200 15 q 115 193 114 113 q 150 400 117 274 l 265 836 q 276 912 279 888 q 252 945 274 936 q 183 956 231 954 l 192 983 q 268 981 219 982 q 371 979 317 979 q 465 981 419 979 q 544 983 511 982 l 536 956 q 463 945 489 954 q 422 912 436 936 q 393 836 407 888 l 271 376 q 244 242 253 306 q 246 131 235 179 q 294 56 257 83 q 404 29 332 29 q 578 76 508 29 q 692 204 647 122 q 763 389 736 286 l 876 822 m 651 1042 q 674 1111 656 1085 q 715 1158 693 1138 q 752 1200 736 1178 q 768 1258 768 1222 q 748 1313 768 1296 q 692 1331 728 1331 q 660 1326 676 1331 q 631 1308 643 1322 q 655 1288 646 1301 q 664 1254 664 1274 q 645 1209 664 1228 q 596 1190 626 1190 q 553 1206 569 1190 q 538 1246 538 1221 q 559 1297 538 1275 q 611 1332 581 1318 q 653 1346 626 1339 q 718 1353 679 1353 q 820 1333 776 1353 q 864 1263 864 1313 q 847 1210 864 1231 q 803 1175 829 1190 q 750 1143 776 1160 q 703 1103 724 1126 q 679 1042 683 1079 l 651 1042 z "},"Ư":{"ha":947,"x_min":110,"x_max":1164,"o":"m 369 -19 q 258 -3 314 -19 q 164 56 203 13 q 115 203 110 117 q 150 400 121 290 l 265 836 q 276 910 278 885 q 252 944 274 935 q 183 956 231 954 l 192 983 q 268 981 219 982 q 368 979 317 979 q 465 981 419 979 q 544 983 511 982 l 536 956 q 463 945 489 954 q 422 912 436 936 q 393 836 407 888 l 271 376 q 241 191 243 269 q 278 71 239 113 q 408 29 317 29 q 577 76 508 29 q 691 204 646 122 q 763 389 736 286 l 913 968 l 918 953 q 851 952 885 951 q 783 956 817 953 l 790 983 q 838 981 810 982 q 893 979 867 979 q 975 985 931 979 q 1064 1026 1019 992 l 1063 1019 q 1024 1060 1042 1035 q 1006 1117 1006 1086 q 1026 1174 1006 1149 q 1086 1200 1046 1200 q 1144 1177 1125 1200 q 1164 1122 1164 1154 q 1138 1055 1164 1086 q 1074 1000 1113 1024 q 997 965 1032 975 q 931 953 963 954 l 944 967 l 799 404 q 740 234 774 307 q 663 110 707 161 q 539 16 613 51 q 369 -19 465 -19 z "},"Ứ":{"ha":947,"x_min":110,"x_max":1164,"o":"m 369 -19 q 258 -3 314 -19 q 164 56 203 13 q 115 203 110 117 q 150 400 121 290 l 265 836 q 276 910 278 885 q 252 944 274 935 q 183 956 231 954 l 192 983 q 268 981 219 982 q 368 979 317 979 q 465 981 419 979 q 544 983 511 982 l 536 956 q 463 945 489 954 q 422 912 436 936 q 393 836 407 888 l 271 376 q 241 191 243 269 q 278 71 239 113 q 408 29 317 29 q 577 76 508 29 q 691 204 646 122 q 763 389 736 286 l 913 968 l 918 953 q 851 952 885 951 q 783 956 817 953 l 790 983 q 838 981 810 982 q 893 979 867 979 q 975 985 931 979 q 1064 1026 1019 992 l 1063 1019 q 1024 1060 1042 1035 q 1006 1117 1006 1086 q 1026 1174 1006 1149 q 1086 1200 1046 1200 q 1144 1177 1125 1200 q 1164 1122 1164 1154 q 1138 1055 1164 1086 q 1074 1000 1113 1024 q 997 965 1032 975 q 931 953 963 954 l 944 967 l 799 404 q 740 234 774 307 q 663 110 707 161 q 539 16 613 51 q 369 -19 465 -19 m 640 1088 q 762 1174 714 1138 q 845 1238 810 1211 q 913 1285 881 1265 q 945 1298 926 1293 q 981 1299 964 1303 q 1004 1278 997 1296 q 997 1235 1014 1256 q 958 1203 979 1214 q 885 1169 926 1185 q 786 1133 843 1154 q 650 1072 729 1111 l 640 1088 z "},"Ự":{"ha":947,"x_min":110,"x_max":1164,"o":"m 369 -19 q 258 -3 314 -19 q 164 56 203 13 q 115 203 110 117 q 150 400 121 290 l 265 836 q 276 910 278 885 q 252 944 274 935 q 183 956 231 954 l 192 983 q 268 981 219 982 q 368 979 317 979 q 465 981 419 979 q 544 983 511 982 l 536 956 q 463 945 489 954 q 422 912 436 936 q 393 836 407 888 l 271 376 q 241 191 243 269 q 278 71 239 113 q 408 29 317 29 q 577 76 508 29 q 691 204 646 122 q 763 389 736 286 l 913 968 l 918 953 q 851 952 885 951 q 783 956 817 953 l 790 983 q 838 981 810 982 q 893 979 867 979 q 975 985 931 979 q 1064 1026 1019 992 l 1063 1019 q 1024 1060 1042 1035 q 1006 1117 1006 1086 q 1026 1174 1006 1149 q 1086 1200 1046 1200 q 1144 1177 1125 1200 q 1164 1122 1164 1154 q 1138 1055 1164 1086 q 1074 1000 1113 1024 q 997 965 1032 975 q 931 953 963 954 l 944 967 l 799 404 q 740 234 774 307 q 663 110 707 161 q 539 16 613 51 q 369 -19 465 -19 m 349 -251 q 299 -233 318 -251 q 279 -186 279 -215 q 306 -123 279 -150 q 374 -96 332 -96 q 425 -115 407 -96 q 443 -161 443 -133 q 414 -227 443 -203 q 349 -251 385 -251 z "},"Ừ":{"ha":947,"x_min":110,"x_max":1164,"o":"m 369 -19 q 258 -3 314 -19 q 164 56 203 13 q 115 203 110 117 q 150 400 121 290 l 265 836 q 276 910 278 885 q 252 944 274 935 q 183 956 231 954 l 192 983 q 268 981 219 982 q 368 979 317 979 q 465 981 419 979 q 544 983 511 982 l 536 956 q 463 945 489 954 q 422 912 436 936 q 393 836 407 888 l 271 376 q 241 191 243 269 q 278 71 239 113 q 408 29 317 29 q 577 76 508 29 q 691 204 646 122 q 763 389 736 286 l 913 968 l 918 953 q 851 952 885 951 q 783 956 817 953 l 790 983 q 838 981 810 982 q 893 979 867 979 q 975 985 931 979 q 1064 1026 1019 992 l 1063 1019 q 1024 1060 1042 1035 q 1006 1117 1006 1086 q 1026 1174 1006 1149 q 1086 1200 1046 1200 q 1144 1177 1125 1200 q 1164 1122 1164 1154 q 1138 1055 1164 1086 q 1074 1000 1113 1024 q 997 965 1032 975 q 931 953 963 954 l 944 967 l 799 404 q 740 234 774 307 q 663 110 707 161 q 539 16 613 51 q 369 -19 465 -19 m 701 1068 q 605 1143 646 1114 q 534 1193 564 1172 q 482 1235 504 1214 q 458 1273 468 1250 q 465 1317 449 1296 q 511 1329 483 1338 q 557 1301 539 1321 q 597 1250 578 1281 q 644 1178 617 1219 q 715 1082 672 1138 l 701 1068 z "},"Ử":{"ha":947,"x_min":110,"x_max":1164,"o":"m 369 -19 q 258 -3 314 -19 q 164 56 203 13 q 115 203 110 117 q 150 400 121 290 l 265 836 q 276 910 278 885 q 252 944 274 935 q 183 956 231 954 l 192 983 q 268 981 219 982 q 368 979 317 979 q 465 981 419 979 q 544 983 511 982 l 536 956 q 463 945 489 954 q 422 912 436 936 q 393 836 407 888 l 271 376 q 241 191 243 269 q 278 71 239 113 q 408 29 317 29 q 577 76 508 29 q 691 204 646 122 q 763 389 736 286 l 913 968 l 918 953 q 851 952 885 951 q 783 956 817 953 l 790 983 q 838 981 810 982 q 893 979 867 979 q 975 985 931 979 q 1064 1026 1019 992 l 1063 1019 q 1024 1060 1042 1035 q 1006 1117 1006 1086 q 1026 1174 1006 1149 q 1086 1200 1046 1200 q 1144 1177 1125 1200 q 1164 1122 1164 1154 q 1138 1055 1164 1086 q 1074 1000 1113 1024 q 997 965 1032 975 q 931 953 963 954 l 944 967 l 799 404 q 740 234 774 307 q 663 110 707 161 q 539 16 613 51 q 369 -19 465 -19 m 651 1042 q 674 1111 656 1085 q 715 1158 693 1138 q 752 1200 736 1178 q 768 1258 768 1222 q 748 1313 768 1296 q 692 1331 728 1331 q 660 1326 676 1331 q 631 1308 643 1322 q 655 1288 646 1301 q 664 1254 664 1274 q 645 1209 664 1228 q 596 1190 626 1190 q 553 1206 569 1190 q 538 1246 538 1221 q 559 1297 538 1275 q 611 1332 581 1318 q 653 1346 626 1339 q 718 1353 679 1353 q 820 1333 776 1353 q 864 1263 864 1313 q 847 1210 864 1231 q 803 1175 829 1190 q 750 1143 776 1160 q 703 1103 724 1126 q 679 1042 683 1079 l 651 1042 z "},"Ữ":{"ha":947,"x_min":110,"x_max":1164,"o":"m 369 -19 q 258 -3 314 -19 q 164 56 203 13 q 115 203 110 117 q 150 400 121 290 l 265 836 q 276 910 278 885 q 252 944 274 935 q 183 956 231 954 l 192 983 q 268 981 219 982 q 368 979 317 979 q 465 981 419 979 q 544 983 511 982 l 536 956 q 463 945 489 954 q 422 912 436 936 q 393 836 407 888 l 271 376 q 241 191 243 269 q 278 71 239 113 q 408 29 317 29 q 577 76 508 29 q 691 204 646 122 q 763 389 736 286 l 913 968 l 918 953 q 851 952 885 951 q 783 956 817 953 l 790 983 q 838 981 810 982 q 893 979 867 979 q 975 985 931 979 q 1064 1026 1019 992 l 1063 1019 q 1024 1060 1042 1035 q 1006 1117 1006 1086 q 1026 1174 1006 1149 q 1086 1200 1046 1200 q 1144 1177 1125 1200 q 1164 1122 1164 1154 q 1138 1055 1164 1086 q 1074 1000 1113 1024 q 997 965 1032 975 q 931 953 963 954 l 944 967 l 799 404 q 740 234 774 307 q 663 110 707 161 q 539 16 613 51 q 369 -19 465 -19 m 608 1243 q 686 1228 656 1243 q 740 1192 717 1213 q 788 1157 763 1172 q 849 1142 813 1142 q 898 1160 874 1142 q 946 1222 922 1179 l 971 1215 q 889 1106 939 1139 q 790 1072 839 1072 q 713 1088 743 1072 q 659 1123 682 1103 q 611 1158 636 1143 q 550 1174 586 1174 q 501 1156 525 1174 q 453 1093 476 1138 l 428 1100 q 510 1210 460 1178 q 608 1243 560 1243 z "},"Ű":{"ha":947,"x_min":114,"x_max":1061,"o":"m 876 822 q 885 901 890 874 q 855 942 879 929 q 783 956 831 954 l 790 983 q 855 981 814 982 q 931 979 896 979 q 1002 981 967 979 q 1061 983 1038 982 l 1054 956 q 979 942 1007 954 q 935 901 951 929 q 907 822 919 874 l 799 404 q 663 110 749 213 q 538 16 613 51 q 378 -19 464 -19 q 255 -2 310 -19 q 164 56 200 15 q 115 193 114 113 q 150 400 117 274 l 265 836 q 276 912 279 888 q 252 945 274 936 q 183 956 231 954 l 192 983 q 268 981 219 982 q 371 979 317 979 q 465 981 419 979 q 544 983 511 982 l 536 956 q 463 945 489 954 q 422 912 436 936 q 393 836 407 888 l 271 376 q 244 242 253 306 q 246 131 235 179 q 294 56 257 83 q 404 29 332 29 q 578 76 508 29 q 692 204 647 122 q 763 389 736 286 l 876 822 m 733 1089 q 813 1158 776 1122 q 882 1226 849 1193 q 947 1281 915 1258 q 989 1299 963 1292 q 1032 1283 1015 1307 q 1031 1238 1047 1261 q 993 1199 1015 1214 q 919 1158 961 1176 q 833 1119 878 1139 q 742 1072 788 1100 l 733 1089 m 474 1089 q 553 1158 517 1122 q 622 1226 589 1193 q 688 1281 656 1258 q 732 1299 704 1293 q 774 1281 760 1306 q 771 1237 785 1258 q 733 1199 757 1215 q 660 1158 701 1176 q 573 1119 618 1139 q 482 1072 528 1100 l 474 1089 z "},"Ū":{"ha":947,"x_min":114,"x_max":1061,"o":"m 876 822 q 885 901 890 874 q 855 942 879 929 q 783 956 831 954 l 790 983 q 855 981 814 982 q 931 979 896 979 q 1002 981 967 979 q 1061 983 1038 982 l 1054 956 q 979 942 1007 954 q 935 901 951 929 q 907 822 919 874 l 799 404 q 663 110 749 213 q 538 16 613 51 q 378 -19 464 -19 q 255 -2 310 -19 q 164 56 200 15 q 115 193 114 113 q 150 400 117 274 l 265 836 q 276 912 279 888 q 252 945 274 936 q 183 956 231 954 l 192 983 q 268 981 219 982 q 371 979 317 979 q 465 981 419 979 q 544 983 511 982 l 536 956 q 463 945 489 954 q 422 912 436 936 q 393 836 407 888 l 271 376 q 244 242 253 306 q 246 131 235 179 q 294 56 257 83 q 404 29 332 29 q 578 76 508 29 q 692 204 647 122 q 763 389 736 286 l 876 822 m 911 1172 l 903 1138 l 414 1138 l 422 1172 l 911 1172 z "},"Ų":{"ha":947,"x_min":114,"x_max":1061,"o":"m 876 822 q 885 901 890 874 q 855 942 879 929 q 783 956 831 954 l 790 983 q 855 981 814 982 q 931 979 896 979 q 1002 981 967 979 q 1061 983 1038 982 l 1054 956 q 979 942 1007 954 q 935 901 951 929 q 907 822 919 874 l 799 404 q 663 110 749 213 q 538 16 613 51 q 378 -19 464 -19 q 255 -2 310 -19 q 164 56 200 15 q 115 193 114 113 q 150 400 117 274 l 265 836 q 276 912 279 888 q 252 945 274 936 q 183 956 231 954 l 192 983 q 268 981 219 982 q 371 979 317 979 q 465 981 419 979 q 544 983 511 982 l 536 956 q 463 945 489 954 q 422 912 436 936 q 393 836 407 888 l 271 376 q 244 242 253 306 q 246 131 235 179 q 294 56 257 83 q 404 29 332 29 q 578 76 508 29 q 692 204 647 122 q 763 389 736 286 l 876 822 m 508 4 q 435 -25 474 -6 q 371 -74 397 -44 q 344 -143 344 -104 q 399 -194 344 -194 q 457 -183 426 -194 q 506 -158 488 -172 l 521 -182 q 432 -242 478 -224 q 342 -261 386 -261 q 265 -239 290 -261 q 239 -181 239 -217 q 275 -97 239 -133 q 362 -35 311 -61 q 456 4 413 -10 l 508 4 z "},"Ů":{"ha":947,"x_min":114,"x_max":1061,"o":"m 876 822 q 885 901 890 874 q 855 942 879 929 q 783 956 831 954 l 790 983 q 855 981 814 982 q 931 979 896 979 q 1002 981 967 979 q 1061 983 1038 982 l 1054 956 q 979 942 1007 954 q 935 901 951 929 q 907 822 919 874 l 799 404 q 663 110 749 213 q 538 16 613 51 q 378 -19 464 -19 q 255 -2 310 -19 q 164 56 200 15 q 115 193 114 113 q 150 400 117 274 l 265 836 q 276 912 279 888 q 252 945 274 936 q 183 956 231 954 l 192 983 q 268 981 219 982 q 371 979 317 979 q 465 981 419 979 q 544 983 511 982 l 536 956 q 463 945 489 954 q 422 912 436 936 q 393 836 407 888 l 271 376 q 244 242 253 306 q 246 131 235 179 q 294 56 257 83 q 404 29 332 29 q 578 76 508 29 q 692 204 647 122 q 763 389 736 286 l 876 822 m 701 1285 q 786 1255 751 1285 q 821 1174 821 1225 q 799 1102 821 1135 q 742 1050 778 1069 q 665 1031 707 1031 q 583 1060 617 1031 q 550 1142 550 1090 q 571 1215 550 1182 q 626 1266 592 1247 q 701 1285 660 1285 m 671 1060 q 726 1075 700 1060 q 769 1116 753 1090 q 785 1175 785 1142 q 756 1235 785 1215 q 696 1256 728 1256 q 619 1222 653 1256 q 586 1143 586 1188 q 613 1081 586 1101 q 671 1060 640 1060 z "},"Ũ":{"ha":947,"x_min":114,"x_max":1061,"o":"m 876 822 q 885 901 890 874 q 855 942 879 929 q 783 956 831 954 l 790 983 q 855 981 814 982 q 931 979 896 979 q 1002 981 967 979 q 1061 983 1038 982 l 1054 956 q 979 942 1007 954 q 935 901 951 929 q 907 822 919 874 l 799 404 q 663 110 749 213 q 538 16 613 51 q 378 -19 464 -19 q 255 -2 310 -19 q 164 56 200 15 q 115 193 114 113 q 150 400 117 274 l 265 836 q 276 912 279 888 q 252 945 274 936 q 183 956 231 954 l 192 983 q 268 981 219 982 q 371 979 317 979 q 465 981 419 979 q 544 983 511 982 l 536 956 q 463 945 489 954 q 422 912 436 936 q 393 836 407 888 l 271 376 q 244 242 253 306 q 246 131 235 179 q 294 56 257 83 q 404 29 332 29 q 578 76 508 29 q 692 204 647 122 q 763 389 736 286 l 876 822 m 608 1243 q 686 1228 656 1243 q 740 1192 717 1213 q 788 1157 763 1172 q 849 1142 813 1142 q 898 1160 874 1142 q 946 1222 922 1179 l 971 1215 q 889 1106 939 1139 q 790 1072 839 1072 q 713 1088 743 1072 q 659 1123 682 1103 q 611 1158 636 1143 q 550 1174 586 1174 q 501 1156 525 1174 q 453 1093 476 1138 l 428 1100 q 510 1210 460 1178 q 608 1243 560 1243 z "},"V":{"ha":878,"x_min":133,"x_max":1031,"o":"m 803 758 q 860 876 851 833 q 844 936 869 918 q 760 956 818 954 l 767 983 q 820 981 793 982 q 874 980 847 981 q 925 979 901 979 q 985 981 961 979 q 1031 983 1008 982 l 1024 956 q 982 939 1004 951 q 935 901 960 926 q 883 835 910 876 l 336 -7 q 326 -7 331 -7 q 315 -7 321 -7 l 206 867 q 176 935 200 917 q 133 956 153 954 l 140 983 q 210 981 168 982 q 290 979 251 979 q 385 981 344 979 q 457 983 426 982 l 450 956 q 380 947 407 954 q 343 915 353 939 q 339 839 333 890 l 419 157 l 413 160 l 803 758 z "},"W":{"ha":1253,"x_min":119,"x_max":1381,"o":"m 722 656 l 328 -7 l 306 -7 l 196 867 q 165 938 189 921 q 119 956 142 954 l 125 983 q 188 981 153 982 q 263 979 224 979 q 348 981 308 979 q 413 983 388 982 l 407 956 q 340 931 360 953 q 329 839 321 908 l 408 164 l 396 158 l 710 689 l 722 656 m 1171 758 q 1216 881 1211 839 q 1194 938 1221 922 q 1110 956 1168 954 l 1117 983 q 1170 981 1143 982 q 1224 980 1197 981 q 1275 979 1251 979 q 1335 981 1311 979 q 1381 983 1358 982 l 1374 956 q 1332 940 1354 951 q 1287 904 1310 929 q 1242 835 1264 879 l 826 -7 l 804 -7 l 667 867 q 641 937 658 919 q 604 956 624 954 l 610 983 q 667 981 635 982 q 733 979 699 979 q 835 981 788 979 q 911 983 882 982 l 906 956 q 811 932 833 953 q 800 839 789 911 l 901 194 l 892 192 l 1171 758 z "},"Ẃ":{"ha":1253,"x_min":119,"x_max":1381,"o":"m 722 656 l 328 -7 l 306 -7 l 196 867 q 165 938 189 921 q 119 956 142 954 l 125 983 q 188 981 153 982 q 263 979 224 979 q 348 981 308 979 q 413 983 388 982 l 407 956 q 340 931 360 953 q 329 839 321 908 l 408 164 l 396 158 l 710 689 l 722 656 m 1171 758 q 1216 881 1211 839 q 1194 938 1221 922 q 1110 956 1168 954 l 1117 983 q 1170 981 1143 982 q 1224 980 1197 981 q 1275 979 1251 979 q 1335 981 1311 979 q 1381 983 1358 982 l 1374 956 q 1332 940 1354 951 q 1287 904 1310 929 q 1242 835 1264 879 l 826 -7 l 804 -7 l 667 867 q 641 937 658 919 q 604 956 624 954 l 610 983 q 667 981 635 982 q 733 979 699 979 q 835 981 788 979 q 911 983 882 982 l 906 956 q 811 932 833 953 q 800 839 789 911 l 901 194 l 892 192 l 1171 758 m 778 1088 q 899 1174 851 1138 q 983 1238 947 1211 q 1050 1285 1018 1265 q 1083 1298 1064 1293 q 1118 1299 1101 1303 q 1142 1278 1135 1296 q 1134 1235 1151 1256 q 1096 1203 1117 1214 q 1022 1169 1064 1185 q 924 1133 981 1154 q 788 1072 867 1111 l 778 1088 z "},"Ŵ":{"ha":1253,"x_min":119,"x_max":1381,"o":"m 722 656 l 328 -7 l 306 -7 l 196 867 q 165 938 189 921 q 119 956 142 954 l 125 983 q 188 981 153 982 q 263 979 224 979 q 348 981 308 979 q 413 983 388 982 l 407 956 q 340 931 360 953 q 329 839 321 908 l 408 164 l 396 158 l 710 689 l 722 656 m 1171 758 q 1216 881 1211 839 q 1194 938 1221 922 q 1110 956 1168 954 l 1117 983 q 1170 981 1143 982 q 1224 980 1197 981 q 1275 979 1251 979 q 1335 981 1311 979 q 1381 983 1358 982 l 1374 956 q 1332 940 1354 951 q 1287 904 1310 929 q 1242 835 1264 879 l 826 -7 l 804 -7 l 667 867 q 641 937 658 919 q 604 956 624 954 l 610 983 q 667 981 635 982 q 733 979 699 979 q 835 981 788 979 q 911 983 882 982 l 906 956 q 811 932 833 953 q 800 839 789 911 l 901 194 l 892 192 l 1171 758 m 814 1167 q 681 1117 760 1144 q 528 1072 603 1089 l 521 1092 q 708 1172 622 1124 q 847 1272 794 1219 l 872 1272 q 951 1166 908 1213 q 1065 1092 994 1119 l 1060 1072 q 955 1099 997 1085 q 880 1131 913 1114 q 814 1167 847 1149 z "},"Ẅ":{"ha":1253,"x_min":119,"x_max":1381,"o":"m 722 656 l 328 -7 l 306 -7 l 196 867 q 165 938 189 921 q 119 956 142 954 l 125 983 q 188 981 153 982 q 263 979 224 979 q 348 981 308 979 q 413 983 388 982 l 407 956 q 340 931 360 953 q 329 839 321 908 l 408 164 l 396 158 l 710 689 l 722 656 m 1171 758 q 1216 881 1211 839 q 1194 938 1221 922 q 1110 956 1168 954 l 1117 983 q 1170 981 1143 982 q 1224 980 1197 981 q 1275 979 1251 979 q 1335 981 1311 979 q 1381 983 1358 982 l 1374 956 q 1332 940 1354 951 q 1287 904 1310 929 q 1242 835 1264 879 l 826 -7 l 804 -7 l 667 867 q 641 937 658 919 q 604 956 624 954 l 610 983 q 667 981 635 982 q 733 979 699 979 q 835 981 788 979 q 911 983 882 982 l 906 956 q 811 932 833 953 q 800 839 789 911 l 901 194 l 892 192 l 1171 758 m 604 1143 q 632 1204 604 1175 q 697 1233 660 1233 q 747 1213 726 1233 q 767 1164 767 1193 q 754 1120 767 1142 q 720 1085 742 1099 q 674 1072 699 1072 q 624 1092 643 1072 q 604 1143 604 1113 m 899 1143 q 926 1204 899 1175 q 992 1233 954 1233 q 1041 1213 1021 1233 q 1061 1164 1061 1193 q 1049 1120 1061 1142 q 1015 1085 1036 1099 q 968 1072 993 1072 q 918 1092 938 1072 q 899 1143 899 1113 z "},"Ẁ":{"ha":1253,"x_min":119,"x_max":1381,"o":"m 722 656 l 328 -7 l 306 -7 l 196 867 q 165 938 189 921 q 119 956 142 954 l 125 983 q 188 981 153 982 q 263 979 224 979 q 348 981 308 979 q 413 983 388 982 l 407 956 q 340 931 360 953 q 329 839 321 908 l 408 164 l 396 158 l 710 689 l 722 656 m 1171 758 q 1216 881 1211 839 q 1194 938 1221 922 q 1110 956 1168 954 l 1117 983 q 1170 981 1143 982 q 1224 980 1197 981 q 1275 979 1251 979 q 1335 981 1311 979 q 1381 983 1358 982 l 1374 956 q 1332 940 1354 951 q 1287 904 1310 929 q 1242 835 1264 879 l 826 -7 l 804 -7 l 667 867 q 641 937 658 919 q 604 956 624 954 l 610 983 q 667 981 635 982 q 733 979 699 979 q 835 981 788 979 q 911 983 882 982 l 906 956 q 811 932 833 953 q 800 839 789 911 l 901 194 l 892 192 l 1171 758 m 839 1068 q 742 1143 783 1114 q 672 1193 701 1172 q 619 1235 642 1214 q 596 1273 606 1250 q 603 1317 586 1296 q 649 1329 621 1338 q 694 1301 676 1321 q 735 1250 715 1281 q 782 1178 754 1219 q 853 1082 810 1138 l 839 1068 z "},"X":{"ha":971,"x_min":-49,"x_max":1043,"o":"m 606 215 q 636 104 613 151 q 715 57 660 57 q 782 83 757 57 q 826 165 807 110 l 850 236 l 878 236 l 842 129 q 774 17 815 53 q 672 -19 732 -19 q 568 14 606 -19 q 514 97 531 47 q 490 197 497 147 l 424 768 q 393 880 417 833 q 314 926 369 926 q 247 901 272 926 q 203 818 222 875 l 179 747 l 151 747 l 188 854 q 256 967 214 932 q 357 1003 297 1003 q 462 969 425 1003 q 516 887 499 936 q 539 786 533 838 l 606 215 m 946 974 q 898 967 919 974 q 857 944 876 960 q 751 837 811 911 q 628 649 692 763 q 508 386 565 536 l 531 492 q 616 673 565 582 q 724 838 667 764 q 831 954 781 913 q 958 1003 894 1003 q 1026 978 1008 1003 q 1040 921 1043 953 q 1018 863 1038 893 q 958 832 999 832 q 916 851 928 832 q 906 892 904 869 q 920 934 908 911 q 950 974 932 957 q 948 974 949 974 q 946 974 947 974 m 50 10 q 97 18 76 11 q 138 39 118 25 q 248 138 186 71 q 376 308 310 204 q 500 550 442 411 l 478 444 q 389 281 443 363 q 276 133 335 200 q 164 29 217 67 q 36 -19 100 -19 q -31 6 -14 -19 q -46 63 -49 31 q -24 121 -43 90 q 36 151 -4 151 q 80 133 68 151 q 89 92 92 114 q 76 49 88 72 q 44 10 64 26 q 47 10 46 10 q 50 10 49 10 z "},"Y":{"ha":931,"x_min":135,"x_max":1053,"o":"m 481 147 q 470 72 468 97 q 494 39 472 47 q 563 28 515 31 l 556 0 q 507 2 535 1 q 447 3 479 3 q 383 4 415 4 q 281 3 329 4 q 201 0 232 3 l 208 28 q 282 39 256 31 q 324 72 308 47 q 351 147 339 97 l 447 528 l 496 440 l 542 467 l 589 578 l 481 147 m 956 974 q 915 964 933 972 q 879 943 896 956 q 774 840 833 910 q 650 656 714 769 q 525 375 586 542 l 443 368 q 428 507 438 432 q 407 656 419 582 q 376 791 394 729 q 331 890 357 853 q 271 926 306 926 q 231 912 247 926 q 204 861 215 897 l 165 747 q 150 747 165 747 q 135 747 135 747 l 181 882 q 229 973 201 943 q 317 1003 257 1003 q 438 941 393 1003 q 507 766 482 879 q 549 500 532 653 q 669 737 601 633 q 808 913 736 840 q 884 974 840 944 q 972 1003 928 1003 q 1036 977 1019 1003 q 1050 921 1053 951 q 1028 863 1049 893 q 968 832 1008 832 q 925 851 936 832 q 915 892 914 869 q 929 935 917 914 q 960 974 942 957 q 958 974 958 974 q 956 974 957 974 z "},"Ý":{"ha":931,"x_min":135,"x_max":1053,"o":"m 481 147 q 470 72 468 97 q 494 39 472 47 q 563 28 515 31 l 556 0 q 507 2 535 1 q 447 3 479 3 q 383 4 415 4 q 281 3 329 4 q 201 0 232 3 l 208 28 q 282 39 256 31 q 324 72 308 47 q 351 147 339 97 l 447 528 l 496 440 l 542 467 l 589 578 l 481 147 m 956 974 q 915 964 933 972 q 879 943 896 956 q 774 840 833 910 q 650 656 714 769 q 525 375 586 542 l 443 368 q 428 507 438 432 q 407 656 419 582 q 376 791 394 729 q 331 890 357 853 q 271 926 306 926 q 231 912 247 926 q 204 861 215 897 l 165 747 q 150 747 165 747 q 135 747 135 747 l 181 882 q 229 973 201 943 q 317 1003 257 1003 q 438 941 393 1003 q 507 766 482 879 q 549 500 532 653 q 669 737 601 633 q 808 913 736 840 q 884 974 840 944 q 972 1003 928 1003 q 1036 977 1019 1003 q 1050 921 1053 951 q 1028 863 1049 893 q 968 832 1008 832 q 925 851 936 832 q 915 892 914 869 q 929 935 917 914 q 960 974 942 957 q 958 974 958 974 q 956 974 957 974 m 635 1088 q 756 1174 708 1138 q 840 1238 804 1211 q 907 1285 875 1265 q 940 1298 921 1293 q 975 1299 958 1303 q 999 1278 992 1296 q 991 1235 1008 1256 q 953 1203 974 1214 q 879 1169 921 1185 q 781 1133 838 1154 q 644 1072 724 1111 l 635 1088 z "},"Ŷ":{"ha":931,"x_min":135,"x_max":1053,"o":"m 481 147 q 470 72 468 97 q 494 39 472 47 q 563 28 515 31 l 556 0 q 507 2 535 1 q 447 3 479 3 q 383 4 415 4 q 281 3 329 4 q 201 0 232 3 l 208 28 q 282 39 256 31 q 324 72 308 47 q 351 147 339 97 l 447 528 l 496 440 l 542 467 l 589 578 l 481 147 m 956 974 q 915 964 933 972 q 879 943 896 956 q 774 840 833 910 q 650 656 714 769 q 525 375 586 542 l 443 368 q 428 507 438 432 q 407 656 419 582 q 376 791 394 729 q 331 890 357 853 q 271 926 306 926 q 231 912 247 926 q 204 861 215 897 l 165 747 q 150 747 165 747 q 135 747 135 747 l 181 882 q 229 973 201 943 q 317 1003 257 1003 q 438 941 393 1003 q 507 766 482 879 q 549 500 532 653 q 669 737 601 633 q 808 913 736 840 q 884 974 840 944 q 972 1003 928 1003 q 1036 977 1019 1003 q 1050 921 1053 951 q 1028 863 1049 893 q 968 832 1008 832 q 925 851 936 832 q 915 892 914 869 q 929 935 917 914 q 960 974 942 957 q 958 974 958 974 q 956 974 957 974 m 671 1167 q 538 1117 617 1144 q 385 1072 460 1089 l 378 1092 q 565 1172 479 1124 q 704 1272 651 1219 l 729 1272 q 808 1166 765 1213 q 922 1092 851 1119 l 917 1072 q 812 1099 854 1085 q 737 1131 769 1114 q 671 1167 704 1149 z "},"Ÿ":{"ha":931,"x_min":135,"x_max":1053,"o":"m 481 147 q 470 72 468 97 q 494 39 472 47 q 563 28 515 31 l 556 0 q 507 2 535 1 q 447 3 479 3 q 383 4 415 4 q 281 3 329 4 q 201 0 232 3 l 208 28 q 282 39 256 31 q 324 72 308 47 q 351 147 339 97 l 447 528 l 496 440 l 542 467 l 589 578 l 481 147 m 956 974 q 915 964 933 972 q 879 943 896 956 q 774 840 833 910 q 650 656 714 769 q 525 375 586 542 l 443 368 q 428 507 438 432 q 407 656 419 582 q 376 791 394 729 q 331 890 357 853 q 271 926 306 926 q 231 912 247 926 q 204 861 215 897 l 165 747 q 150 747 165 747 q 135 747 135 747 l 181 882 q 229 973 201 943 q 317 1003 257 1003 q 438 941 393 1003 q 507 766 482 879 q 549 500 532 653 q 669 737 601 633 q 808 913 736 840 q 884 974 840 944 q 972 1003 928 1003 q 1036 977 1019 1003 q 1050 921 1053 951 q 1028 863 1049 893 q 968 832 1008 832 q 925 851 936 832 q 915 892 914 869 q 929 935 917 914 q 960 974 942 957 q 958 974 958 974 q 956 974 957 974 m 461 1143 q 489 1204 461 1175 q 554 1233 517 1233 q 603 1213 583 1233 q 624 1164 624 1193 q 611 1120 624 1142 q 577 1085 599 1099 q 531 1072 556 1072 q 481 1092 500 1072 q 461 1143 461 1113 m 756 1143 q 783 1204 756 1175 q 849 1233 811 1233 q 898 1213 878 1233 q 918 1164 918 1193 q 906 1120 918 1142 q 872 1085 893 1099 q 825 1072 850 1072 q 775 1092 794 1072 q 756 1143 756 1113 z "},"Ỵ":{"ha":931,"x_min":135,"x_max":1053,"o":"m 481 147 q 470 72 468 97 q 494 39 472 47 q 563 28 515 31 l 556 0 q 507 2 535 1 q 447 3 479 3 q 383 4 415 4 q 281 3 329 4 q 201 0 232 3 l 208 28 q 282 39 256 31 q 324 72 308 47 q 351 147 339 97 l 447 528 l 496 440 l 542 467 l 589 578 l 481 147 m 956 974 q 915 964 933 972 q 879 943 896 956 q 774 840 833 910 q 650 656 714 769 q 525 375 586 542 l 443 368 q 428 507 438 432 q 407 656 419 582 q 376 791 394 729 q 331 890 357 853 q 271 926 306 926 q 231 912 247 926 q 204 861 215 897 l 165 747 q 150 747 165 747 q 135 747 135 747 l 181 882 q 229 973 201 943 q 317 1003 257 1003 q 438 941 393 1003 q 507 766 482 879 q 549 500 532 653 q 669 737 601 633 q 808 913 736 840 q 884 974 840 944 q 972 1003 928 1003 q 1036 977 1019 1003 q 1050 921 1053 951 q 1028 863 1049 893 q 968 832 1008 832 q 925 851 936 832 q 915 892 914 869 q 929 935 917 914 q 960 974 942 957 q 958 974 958 974 q 956 974 957 974 m 333 -251 q 283 -233 303 -251 q 264 -186 264 -215 q 290 -123 264 -150 q 358 -96 317 -96 q 410 -115 392 -96 q 428 -161 428 -133 q 399 -227 428 -203 q 333 -251 369 -251 z "},"Ỳ":{"ha":931,"x_min":135,"x_max":1053,"o":"m 481 147 q 470 72 468 97 q 494 39 472 47 q 563 28 515 31 l 556 0 q 507 2 535 1 q 447 3 479 3 q 383 4 415 4 q 281 3 329 4 q 201 0 232 3 l 208 28 q 282 39 256 31 q 324 72 308 47 q 351 147 339 97 l 447 528 l 496 440 l 542 467 l 589 578 l 481 147 m 956 974 q 915 964 933 972 q 879 943 896 956 q 774 840 833 910 q 650 656 714 769 q 525 375 586 542 l 443 368 q 428 507 438 432 q 407 656 419 582 q 376 791 394 729 q 331 890 357 853 q 271 926 306 926 q 231 912 247 926 q 204 861 215 897 l 165 747 q 150 747 165 747 q 135 747 135 747 l 181 882 q 229 973 201 943 q 317 1003 257 1003 q 438 941 393 1003 q 507 766 482 879 q 549 500 532 653 q 669 737 601 633 q 808 913 736 840 q 884 974 840 944 q 972 1003 928 1003 q 1036 977 1019 1003 q 1050 921 1053 951 q 1028 863 1049 893 q 968 832 1008 832 q 925 851 936 832 q 915 892 914 869 q 929 935 917 914 q 960 974 942 957 q 958 974 958 974 q 956 974 957 974 m 696 1068 q 599 1143 640 1114 q 528 1193 558 1172 q 476 1235 499 1214 q 453 1273 463 1250 q 460 1317 443 1296 q 506 1329 478 1338 q 551 1301 533 1321 q 592 1250 572 1281 q 639 1178 611 1219 q 710 1082 667 1138 l 696 1068 z "},"Ỷ":{"ha":931,"x_min":135,"x_max":1053,"o":"m 481 147 q 470 72 468 97 q 494 39 472 47 q 563 28 515 31 l 556 0 q 507 2 535 1 q 447 3 479 3 q 383 4 415 4 q 281 3 329 4 q 201 0 232 3 l 208 28 q 282 39 256 31 q 324 72 308 47 q 351 147 339 97 l 447 528 l 496 440 l 542 467 l 589 578 l 481 147 m 956 974 q 915 964 933 972 q 879 943 896 956 q 774 840 833 910 q 650 656 714 769 q 525 375 586 542 l 443 368 q 428 507 438 432 q 407 656 419 582 q 376 791 394 729 q 331 890 357 853 q 271 926 306 926 q 231 912 247 926 q 204 861 215 897 l 165 747 q 150 747 165 747 q 135 747 135 747 l 181 882 q 229 973 201 943 q 317 1003 257 1003 q 438 941 393 1003 q 507 766 482 879 q 549 500 532 653 q 669 737 601 633 q 808 913 736 840 q 884 974 840 944 q 972 1003 928 1003 q 1036 977 1019 1003 q 1050 921 1053 951 q 1028 863 1049 893 q 968 832 1008 832 q 925 851 936 832 q 915 892 914 869 q 929 935 917 914 q 960 974 942 957 q 958 974 958 974 q 956 974 957 974 m 646 1042 q 669 1111 650 1085 q 709 1158 688 1138 q 747 1200 731 1178 q 763 1258 763 1222 q 742 1313 763 1296 q 686 1331 722 1331 q 654 1326 671 1331 q 625 1308 638 1322 q 649 1288 640 1301 q 658 1254 658 1274 q 640 1209 658 1228 q 590 1190 621 1190 q 548 1206 564 1190 q 532 1246 532 1221 q 553 1297 532 1275 q 606 1332 575 1318 q 647 1346 621 1339 q 713 1353 674 1353 q 815 1333 771 1353 q 858 1263 858 1313 q 841 1210 858 1231 q 797 1175 824 1190 q 744 1143 771 1160 q 698 1103 718 1126 q 674 1042 678 1079 l 646 1042 z "},"Ỹ":{"ha":931,"x_min":135,"x_max":1053,"o":"m 481 147 q 470 72 468 97 q 494 39 472 47 q 563 28 515 31 l 556 0 q 507 2 535 1 q 447 3 479 3 q 383 4 415 4 q 281 3 329 4 q 201 0 232 3 l 208 28 q 282 39 256 31 q 324 72 308 47 q 351 147 339 97 l 447 528 l 496 440 l 542 467 l 589 578 l 481 147 m 956 974 q 915 964 933 972 q 879 943 896 956 q 774 840 833 910 q 650 656 714 769 q 525 375 586 542 l 443 368 q 428 507 438 432 q 407 656 419 582 q 376 791 394 729 q 331 890 357 853 q 271 926 306 926 q 231 912 247 926 q 204 861 215 897 l 165 747 q 150 747 165 747 q 135 747 135 747 l 181 882 q 229 973 201 943 q 317 1003 257 1003 q 438 941 393 1003 q 507 766 482 879 q 549 500 532 653 q 669 737 601 633 q 808 913 736 840 q 884 974 840 944 q 972 1003 928 1003 q 1036 977 1019 1003 q 1050 921 1053 951 q 1028 863 1049 893 q 968 832 1008 832 q 925 851 936 832 q 915 892 914 869 q 929 935 917 914 q 960 974 942 957 q 958 974 958 974 q 956 974 957 974 m 603 1243 q 681 1228 650 1243 q 734 1192 711 1213 q 782 1157 757 1172 q 843 1142 807 1142 q 892 1160 868 1142 q 940 1222 917 1179 l 965 1215 q 883 1106 933 1139 q 785 1072 833 1072 q 707 1088 738 1072 q 653 1123 676 1103 q 606 1158 631 1143 q 544 1174 581 1174 q 495 1156 519 1174 q 447 1093 471 1138 l 422 1100 q 504 1210 454 1178 q 603 1243 554 1243 z "},"Z":{"ha":906,"x_min":-57,"x_max":1007,"o":"m 221 481 l 231 508 l 721 508 l 710 481 l 221 481 m 621 285 q 624 299 621 285 q 626 313 626 313 q 696 289 663 307 q 751 238 729 271 q 774 151 774 206 q 728 29 774 78 q 606 -19 683 -19 q 517 3 554 -19 q 445 55 479 25 q 374 107 411 85 q 288 129 338 129 q 184 112 229 129 q 82 67 139 94 q 15 -1 51 22 q -40 -7 -21 -25 q -37 39 -57 8 q 56 97 -18 69 l 861 889 q 741 834 803 854 q 621 814 679 814 q 541 826 576 814 q 473 853 506 838 q 404 880 440 868 q 324 892 368 892 q 253 867 276 892 q 229 800 229 843 q 256 733 229 758 q 329 699 282 708 q 326 685 329 699 q 324 671 324 671 q 255 695 289 678 q 199 746 221 713 q 176 832 176 779 q 222 954 176 906 q 344 1003 267 1003 q 433 981 396 1003 q 505 928 471 958 q 576 876 539 899 q 663 854 613 854 q 767 872 721 854 q 868 917 813 889 q 935 985 900 961 q 990 990 969 1008 q 988 945 1007 976 q 894 886 968 914 l 89 94 q 209 149 147 129 q 329 169 271 169 q 409 158 374 169 q 477 131 444 146 q 546 103 510 115 q 626 92 582 92 q 697 116 674 92 q 721 183 721 140 q 695 250 721 225 q 621 285 669 275 z "},"Ź":{"ha":906,"x_min":-57,"x_max":1007,"o":"m 221 481 l 231 508 l 721 508 l 710 481 l 221 481 m 621 285 q 624 299 621 285 q 626 313 626 313 q 696 289 663 307 q 751 238 729 271 q 774 151 774 206 q 728 29 774 78 q 606 -19 683 -19 q 517 3 554 -19 q 445 55 479 25 q 374 107 411 85 q 288 129 338 129 q 184 112 229 129 q 82 67 139 94 q 15 -1 51 22 q -40 -7 -21 -25 q -37 39 -57 8 q 56 97 -18 69 l 861 889 q 741 834 803 854 q 621 814 679 814 q 541 826 576 814 q 473 853 506 838 q 404 880 440 868 q 324 892 368 892 q 253 867 276 892 q 229 800 229 843 q 256 733 229 758 q 329 699 282 708 q 326 685 329 699 q 324 671 324 671 q 255 695 289 678 q 199 746 221 713 q 176 832 176 779 q 222 954 176 906 q 344 1003 267 1003 q 433 981 396 1003 q 505 928 471 958 q 576 876 539 899 q 663 854 613 854 q 767 872 721 854 q 868 917 813 889 q 935 985 900 961 q 990 990 969 1008 q 988 945 1007 976 q 894 886 968 914 l 89 94 q 209 149 147 129 q 329 169 271 169 q 409 158 374 169 q 477 131 444 146 q 546 103 510 115 q 626 92 582 92 q 697 116 674 92 q 721 183 721 140 q 695 250 721 225 q 621 285 669 275 m 600 1088 q 722 1174 674 1138 q 805 1238 769 1211 q 872 1285 840 1265 q 905 1298 886 1293 q 940 1299 924 1303 q 964 1278 957 1296 q 956 1235 974 1256 q 918 1203 939 1214 q 844 1169 886 1185 q 746 1133 803 1154 q 610 1072 689 1111 l 600 1088 z "},"Ž":{"ha":906,"x_min":-57,"x_max":1007,"o":"m 221 481 l 231 508 l 721 508 l 710 481 l 221 481 m 621 285 q 624 299 621 285 q 626 313 626 313 q 696 289 663 307 q 751 238 729 271 q 774 151 774 206 q 728 29 774 78 q 606 -19 683 -19 q 517 3 554 -19 q 445 55 479 25 q 374 107 411 85 q 288 129 338 129 q 184 112 229 129 q 82 67 139 94 q 15 -1 51 22 q -40 -7 -21 -25 q -37 39 -57 8 q 56 97 -18 69 l 861 889 q 741 834 803 854 q 621 814 679 814 q 541 826 576 814 q 473 853 506 838 q 404 880 440 868 q 324 892 368 892 q 253 867 276 892 q 229 800 229 843 q 256 733 229 758 q 329 699 282 708 q 326 685 329 699 q 324 671 324 671 q 255 695 289 678 q 199 746 221 713 q 176 832 176 779 q 222 954 176 906 q 344 1003 267 1003 q 433 981 396 1003 q 505 928 471 958 q 576 876 539 899 q 663 854 613 854 q 767 872 721 854 q 868 917 813 889 q 935 985 900 961 q 990 990 969 1008 q 988 945 1007 976 q 894 886 968 914 l 89 94 q 209 149 147 129 q 329 169 271 169 q 409 158 374 169 q 477 131 444 146 q 546 103 510 115 q 626 92 582 92 q 697 116 674 92 q 721 183 721 140 q 695 250 721 225 q 621 285 669 275 m 665 1189 q 798 1240 719 1213 q 951 1283 876 1267 l 958 1264 q 771 1185 857 1233 q 632 1083 685 1136 l 607 1083 q 528 1190 572 1144 q 414 1264 485 1236 l 419 1283 q 525 1257 483 1272 q 599 1224 567 1242 q 665 1189 632 1207 z "},"Ż":{"ha":906,"x_min":-57,"x_max":1007,"o":"m 221 481 l 231 508 l 721 508 l 710 481 l 221 481 m 621 285 q 624 299 621 285 q 626 313 626 313 q 696 289 663 307 q 751 238 729 271 q 774 151 774 206 q 728 29 774 78 q 606 -19 683 -19 q 517 3 554 -19 q 445 55 479 25 q 374 107 411 85 q 288 129 338 129 q 184 112 229 129 q 82 67 139 94 q 15 -1 51 22 q -40 -7 -21 -25 q -37 39 -57 8 q 56 97 -18 69 l 861 889 q 741 834 803 854 q 621 814 679 814 q 541 826 576 814 q 473 853 506 838 q 404 880 440 868 q 324 892 368 892 q 253 867 276 892 q 229 800 229 843 q 256 733 229 758 q 329 699 282 708 q 326 685 329 699 q 324 671 324 671 q 255 695 289 678 q 199 746 221 713 q 176 832 176 779 q 222 954 176 906 q 344 1003 267 1003 q 433 981 396 1003 q 505 928 471 958 q 576 876 539 899 q 663 854 613 854 q 767 872 721 854 q 868 917 813 889 q 935 985 900 961 q 990 990 969 1008 q 988 945 1007 976 q 894 886 968 914 l 89 94 q 209 149 147 129 q 329 169 271 169 q 409 158 374 169 q 477 131 444 146 q 546 103 510 115 q 626 92 582 92 q 697 116 674 92 q 721 183 721 140 q 695 250 721 225 q 621 285 669 275 m 581 1146 q 610 1216 581 1182 q 683 1250 640 1250 q 735 1229 715 1250 q 754 1176 754 1208 q 724 1106 754 1139 q 650 1072 694 1072 q 600 1094 619 1072 q 581 1146 581 1115 z "},"a":{"ha":726,"x_min":13,"x_max":661,"o":"m 183 25 q 260 67 217 25 q 347 182 303 110 q 429 346 392 254 q 489 536 467 438 l 465 386 q 360 149 413 239 q 253 20 307 60 q 143 -19 199 -19 q 45 28 78 -19 q 13 149 13 75 q 35 294 13 215 q 97 450 57 372 q 188 592 136 528 q 299 694 239 656 q 422 733 360 733 q 497 685 471 733 q 507 551 522 638 l 492 543 q 482 662 501 617 q 418 707 463 707 q 342 672 382 707 q 266 576 303 636 q 199 440 229 515 q 152 285 169 365 q 135 132 135 206 q 148 49 135 72 q 183 25 161 25 m 533 714 q 600 719 567 715 q 661 733 633 724 l 488 119 q 480 87 485 107 q 480 50 475 67 q 508 33 485 33 q 563 64 536 33 q 615 175 589 94 l 632 226 l 658 226 l 624 125 q 577 38 604 69 q 521 -6 550 7 q 464 -19 492 -19 q 388 17 410 -19 q 378 91 369 49 q 397 176 386 133 l 533 714 z "},"á":{"ha":726,"x_min":13,"x_max":718,"o":"m 183 25 q 260 67 217 25 q 347 182 303 110 q 429 346 392 254 q 489 536 467 438 l 465 386 q 360 149 413 239 q 253 20 307 60 q 143 -19 199 -19 q 45 28 78 -19 q 13 149 13 75 q 35 294 13 215 q 97 450 57 372 q 188 592 136 528 q 299 694 239 656 q 422 733 360 733 q 497 685 471 733 q 507 551 522 638 l 492 543 q 482 662 501 617 q 418 707 463 707 q 342 672 382 707 q 266 576 303 636 q 199 440 229 515 q 152 285 169 365 q 135 132 135 206 q 148 49 135 72 q 183 25 161 25 m 533 714 q 600 719 567 715 q 661 733 633 724 l 488 119 q 480 87 485 107 q 480 50 475 67 q 508 33 485 33 q 563 64 536 33 q 615 175 589 94 l 632 226 l 658 226 l 624 125 q 577 38 604 69 q 521 -6 550 7 q 464 -19 492 -19 q 388 17 410 -19 q 378 91 369 49 q 397 176 386 133 l 533 714 m 408 844 q 501 961 465 913 q 564 1046 538 1010 q 617 1108 590 1082 q 664 1139 640 1136 q 704 1129 688 1142 q 715 1093 718 1115 q 683 1043 711 1071 q 622 990 658 1017 q 537 927 586 964 q 422 832 488 890 l 408 844 z "}}}
